<?xml version="1.0" encoding="utf-8"?>
<!-- Generator: Adobe Illustrator 27.3.0, SVG Export Plug-In . SVG Version: 6.00 Build 0)  -->
<svg version="1.1" id="Layer_1" xmlns="http://www.w3.org/2000/svg" xmlns:xlink="http://www.w3.org/1999/xlink" x="0px" y="0px"
	 viewBox="0 0 1300 1300" style="enable-background:new 0 0 1300 1300;" xml:space="preserve">
<style type="text/css">
	.st0{opacity:0.25;fill:#01031C;enable-background:new    ;}
	.st1{fill:#02021D;}
</style>
<path class="st0" d="M704.1,1297.3c-37.1,0.3-120.2-51-157.9-105.2c-29.5-42.5-36.8-80.5-34.9-135.3c1.3-38.8,3-102.9,1.8-119.1
	c-3-39.1-49.9-129.3-46-148.3c0.8-3.7,2.7-9.6,6.8-13.5c7.5-7.1,12.6-10.7,26-7.5c9.4,2.2,19.2,3.7,28.7,10.7
	c22.3,16.5,42.7,55.6,42.7,55.6s0.1-44.9-1.7-101.7c-0.7-20.7-4.1-44-4.4-65.9c-0.7-71.5,3-140.3,1.3-148.4
	c-3.5-17.4,22-55.2,43.8-54.4c21.8,0.8,30.7,15,30.7,15l8.3,35.1l0.6,86.8v69.6l10.7,59.5l27.5,112.3c0,0,0.4-14.9,4.2-33.9
	c6.8-34.2,19.4-82.4,25-86.7c8.7-6.6,20.1-9,20.1-9s31.1,0.1,34.1,6.1s4.7,21,4.7,21l17.5-11.4l12.1-3.1l27,26.1l22.1,37.1
	c0,0,5.7-4.5,8.8-3.9s13,7.4,13,7.4s38,77.8,41.6,92.5l8,33l-0.3,38.6l12,42l13,61l-2.9,69.8l-4.5,25.2l-13.8,28.6
	C930.2,1183.2,881.1,1295.9,704.1,1297.3L704.1,1297.3z"/>
<g>
	<path class="st1" d="M596.5,470.1c0.9-0.9,1.8-1.7,2.6-2.7c1.8-2.4,4.2-3.3,7.1-3.2c4.5,0.1,8.9,0.2,13.4,0.6
		c11.6,1.1,20,6.9,25,17.4c1.1,2.3,2,4.7,2.6,7.2c1.4,5.9,2.8,11.8,3.4,17.8c0.6,5.2,1.7,10.3,3.8,15.2c5.9,13.5,11.3,27.1,17,40.6
		c0.6,1.4,1.3,2.8,1.9,4.3c1.9-0.2,3.5-0.3,5-0.6c8.8-2.2,17.6-4.5,26.4-6.7c1.2-0.3,2.6,0,3.7-0.4c5-1.8,10.2-2.5,15.2-3.9
		c4.3-1.2,8.4-2.9,12.9-3.5c0.3,0,0.5-0.4,0.7-0.6c0,0,0,0,0,0c0.1,1.1,0.1,2-1.3,2.5c-5.5,2.1-11.3,3-17,4.5
		c-7.3,1.9-14.4,4-21.7,5.8c-4.3,1.1-8.7,1.8-13.1,2.7c-1.3,0.2-2.5,0.4-3.8,0.7c-7,1.6-7,1.7-11.4,7.6c-4.7,6.4-9.4,12.9-14.2,19.3
		c-1.5,2-2.2,4.1-2.1,6.6c0.1,3.8,0,7.7-0.3,11.5c-0.5,8,0.3,16,0.8,23.9c0.4,7.5,0.5,15,0.4,22.5c-0.1,9.3,0,18.5,2.1,27.6
		c1.6,7.1,2.2,14.5,3.3,21.8c0.3,2.1-0.2,4.5,1.8,6.2c0.6,0.5,0.4,1.8,0.5,2.8c0.1,1.1,0.3,2.2,1.2,3c0.9,0.9,0.9,1.9,0,3
		c-0.1,0.1,0.3,1,0.4,1c1.5-0.1,2.2,1.4,2,2.1c-0.6,2.1,0.7,2.7,1.9,3.4c-0.2,1.4-1.3,0.7-1.9,1.2c1.7,3,2.2,6.4,2.9,9.7
		c0.7,3.4,1.2,6.8,1.8,10.2c0.1,0.6,0.3,1.2,0.5,1.7c0.3,0.7,1,1.5,0.9,2.1c-0.6,2.7,1.7,4.8,1.3,7.4c1.7,3.3,1.7,7.1,2.2,10.7
		c0.3,2.1,0.6,4.1,1.6,6c0.4,0.8,0.6,1.8,0.8,2.7c0.3,1.5,0.5,3.1,0.8,4.7c0.5,3,1.6,5.8,1.9,8.8c0.2,2.5,0.7,5,2.2,7.2
		c0.4,0.6,0.3,1.5,0.4,2.3c0.6,3.6,1.8,7,1.7,10.7c1.6,2,1.3,4.7,2.3,7c0.9,2.2,1.3,4.6,2,6.9c0.3,0.9,0.9,1.6,1.6,2.8
		c1.2-1.7,1.6-3.3,1.5-5c-0.5-4.5,0.5-8.9,1.4-13.3c0.4-2,0.8-4,0.7-6.1c0-1.8,0.8-3.7,1.1-5.6c1.4-8.5,3.3-16.9,5.4-25.2
		c0.5-2.1,1.5-4.1,2.4-6.5c-1.1-2.8-0.6-5.9,0.6-9c1.7-4.5,3.2-9.1,4.6-13.6c0.9-3,1.1-6.3,2.7-9.1c1.2-2.2,2.1-4.6,3.1-6.9
		c0.4-0.9,0.9-1.7,1.2-2.6c0.8-3.2,2.8-5.7,4.8-8.2c0.9-1.2,2.3-2.2,3.7-2.9c2.5-1.4,5.2-2.4,7.8-3.7c3-1.6,6.2-2.1,9.6-1.6
		c2,0.3,4.2,0.4,6.2,0.1c5.8-0.8,11.4,0.1,17.1,0.8c2.1,0.3,4.1,0.8,5.7,2.2c0.5,0.4,1,0.9,1.6,1c4.2,0.8,5.3,4.4,6.3,7.6
		c1.3,4.1,2.5,8.2,2.3,12.7c-0.1,3.4,0.7,6.7,2,9.8c1.4,3.2,2.3,6.5,3,9.9c0.7,3.4,1.7,6.8,2.9,10.1c0.4,1.1,0.6,2.1,0.8,3.2
		c0.5,2.5,1,5,1.6,7.5c0.2,0.9,0.7,1.9,0.7,2.8c-0.1,6.8,2.8,13.1,3.6,19.7c0.2,2.1,0.5,4.1,0.9,6.2c1.2,6.3,2.4,12.5,3.6,18.8
		c0.8,4.2,1.3,8.4,0.3,12.7c-0.1,0.6,0.1,1.2,0.2,1.9c0.1,0.8,0.3,1.6,0.4,2.4c0.4,2.6,1.9,5,1.8,7.8c0,2.7-0.1,5.4-0.1,8.1
		c0,1.6,0.2,3.2,0.4,4.7c0.2,2,0.5,4.1,0.7,6.1c0,0.5-0.1,1,0.1,1.4c2.2,4.7,0.4,9.8,1,14.6c0.2,1.3-0.1,2.7-0.2,4.6
		c-1.1-1.2-1.8-2-2.4-2.8c-0.5-0.7-0.4-1.5,0.1-2.2c0.4-0.5,1.3-0.9,1.2-1.2c-0.2-1-0.5-2.2-1.2-3c-0.5-0.6-1.4-0.7-1-1.7
		c0.7-1.8-0.2-3.4-1.3-5.1c0.7-0.4,1.3-0.8,2.1-1.2c-2.8-1.8-2.8-1.8-2.2-5.1l-0.1,0.1c0.8-0.6,0.8-0.7,0-1.1l0.1,0.1
		c-1.5-4.8-0.7-9.8-1-14.7c0-0.6,0.4-1.3,0.2-1.8c-1.5-2.9-0.5-6.2-1.9-9.1c-1.1-2.3-1.9-4.7-1.5-7.4c0-0.3,0-0.6-0.1-0.9
		c-1.4-3.5-1.1-7.1-1.5-10.7c-0.2-1.9-0.2-3.8-0.4-5.7c-0.8-5.3-1.5-10.6-2.9-15.8c-0.9-3.5-1.3-7.2-2.4-10.6
		c-0.2-0.6-0.5-1.2-0.4-1.8c0.3-3.1-0.5-6-1.9-8.7c-0.8-1.7-0.4-3,1.3-3.9c-0.4-1.4-2-2.4-0.9-4c0.2-0.4-0.4-1.5-0.8-2.1
		c-1.3-2.1-2-4.1-1.9-6.7c0.1-2.6-1.1-5.2-1.7-7.7c0.5-0.5,1-0.9,1.9-1.7c-1.1-0.6-1.8-0.9-2.4-1.2c-0.7-1.7-1.5-3.5-2.2-5.2
		c-1.1-2.5-1.7-5.1-1.7-7.9c0.1-2.2-0.4-4.4-0.9-6.6c-0.3-1.1-0.7-1.9-0.2-3.1c0.2-0.6-0.4-1.8-0.9-2.5c-2.2-2.8-4.4-5.4-6.7-8.2
		c-4-0.8-8-1.8-12.1-2.3c-2.5-0.3-5.1,0.2-7.6,0.5c-3.8,0.4-7.5,1-11.2,1.6c-0.8,0.1-1.5,0.5-2.2,0.8c-0.9,0.3-1.7,0.7-2.6,0.9
		c-1.1,0.3-2.2,0.4-3.2,0.8c-4.2,1.4-7.8,3.4-9.2,8.1c-1,3.2-2.3,6.3-3.9,9.2c-2.1,3.8-3.1,7.9-4.1,12c-0.9,3.7-1.5,7.5-3.5,10.8
		c-0.2,0.4-0.5,0.9-0.5,1.3c-0.1,2.3-1.1,4.3-1.7,6.4c-0.6,2.1-1,4.3-1.8,6.4c-0.6,1.6-0.5,3.4-0.6,5.2c-0.1,0.8-0.2,1.6-0.1,2.4
		c0.1,2.9-2.3,5.1-2.2,8.2c0.1,2.8-1.1,5.6-2.6,8.1c-0.3,0.5-0.3,1.2-0.2,1.8c0.3,2.9-0.1,5.7-1.4,8.3c-1,1.9-1.5,3.8-1.1,6
		c0.3,1.8,0,3.4-1,5.1c-0.5,0.9-0.8,2.1-0.8,3.2c0.3,7.8-0.2,15.6-1.5,23.3c-0.1,0.9-0.3,1.9-0.2,2.9c0.5,3.2,0.3,6.3-0.1,9.5
		c-0.4,3.6-0.3,7.3,0.8,10.9c0.2,0.7,0.2,1.6,0.3,2.4c0.4,6.2,0.8,12.4,1.2,18.6c0.1,1.5-0.3,2.7-1.6,3.7c-1.5-3.6-2.7-9.1-2.6-12
		c0.1-3.7-0.1-7.3-0.9-10.9c-0.6-2.9-0.8-6-0.9-9c-0.2-5.2,0.1-10.5-0.4-15.7c-0.4-4.5-0.8-9.1-3.1-13.4c-1.1-2-1.6-4.6-1.6-6.9
		c0-3.5-2-6.3-2.2-9.7c-2.2-5-3.3-10.3-4-15.6c-0.2-1.4-0.9-1.9-2.1-2.3c-0.8,0.4-1.6,0.9-2.4,1.2c-0.3-0.3-0.6-0.4-0.7-0.7
		c-0.8-1.5-0.1-3.5-1.8-4.7l0,0c1.8-0.3,2.9,1,4.5,2.2c-0.3-2-0.3-3.6-0.7-5.2c-1-4-1.5-8.1-2.9-12c-1.4-3.9-2.2-8-3.1-12
		c-1-4.4-1.7-8.8-2.5-13.2c-0.1-0.3,0-0.7-0.2-0.9c-3.3-4.4-2.5-9.8-3.7-14.7c-0.1-0.3-0.1-0.6-0.1-1c0.2-1.7-1.7-3.7,0.6-5.2
		c-0.9-1.6,0-3.9-1.5-5.3c-1.9-1.7-2.4-4.1-2.2-6.1c0.3-3.4-0.8-6.3-1.6-9.3c-0.4-1.4-0.7-2.6-0.6-4.2c0.1-1.8-0.7-3.7-1.2-6
		c0.3-0.2,0.8-0.5,1.4-0.9c-3.1-2.5-2.6-6.2-3.3-9.5c-1-4.3-1.2-8.9-1.6-13.3c-0.3-3.7-0.7-7.3-0.6-11c0.1-2.8-0.1-5.5-0.9-8.1
		c-0.6-2.2-0.8-4.4-0.7-6.6c0-2.4-0.4-4.8-0.3-7.2c0-1.5-0.8-3.6,1.6-4.3c0.2-0.1,0.3-0.5,0.4-0.8c0.3-3.6,0.6-7.2,1-11.2
		c-1.4,0.1-2.4,0.2-3.6,0.3c0.1-0.9,0.2-1.8,0.3-2.7c0.1-2.7,0.3-5.4,0.1-8.1c-0.3-3.5,0-6.9,0.8-10.4c0.6-2.5,0.2-5.4,0-8.1
		c-0.1-1.3-0.4-2.6-0.9-3.7c-1.2-3-0.9-5.9-0.4-9.6c2.2,3.7,1.2,7.6,3.2,11.1c0.7-2.2,0.4-4.1,0-5.9c-0.7-3.5-1.5-6.9-2.2-10.3
		c-0.4-1.7-0.6-3.4,0.3-5.1c1.2-2.3,0.3-4.7,0-7c-0.4-3.8-0.8-7.6-1-11.4c-0.1-1.9,0.3-3.8,0.5-5.7c0.1-0.9,0.1-1.9,0.1-2.8
		c-0.1-1.4-0.4-2.9,0.4-4.2c0.1-0.3,0.3-0.7,0.2-0.9c-1.9-3.8,0.5-7.9-0.9-11.8c-0.3-0.9-0.3-1.8-0.4-2.7c0.9-0.4,1.6-0.8,2.4-1.2
		c0.1-0.4,0.3-0.9,0.2-1.3c-0.1-1.2,0-2.6-1.3-3.4c-0.3-0.2-0.6-0.8-0.5-1.2c1-8.8-1.6-17-3.3-25.4c-0.5-2.3-1-4.7-1.5-7
		c-0.7-3.5-2-6.7-4.3-9.5c-1-1.2-2-2.5-3-3.7c-1.4-1.8-3.1-3.3-5.3-4c-1.3-0.4-2.3-1-2.5-2.5c-0.1-0.4-0.8-0.9-1.4-1.1
		c-1.5-0.4-3.1-0.9-4.7-0.9c-3.8,0-7.7,0.6-11.5,0.5c-5.5-0.1-10.3,1.5-15,4.2c-1.4,0.8-3.2,0.8-4.3,1.8c-2.1,2-3.9,4.2-5.5,6.6
		c-3.8,5.9-7.3,12-11,18c-1.2,2.1-1.8,4.4-2.4,6.7c-1.1,5-1.5,10-1.7,15.2c-0.6,20.5-1.3,40.9-2,61.4c-0.2,4.3-0.4,8.6-0.7,12.9
		c-0.2,3.2-0.3,6.4,0.5,9.5c0.1,0.5,0.2,1,0.2,1.4c-0.4,5.6,0.6,11.1,0.2,16.7c-0.1,1.4-0.3,2.9-0.4,4.3c-0.1,1.3-0.4,2.5-0.3,3.8
		c0.1,1.9,0.5,3.8,0.5,5.7c0,1.7-0.5,3.4-0.7,5.2c-0.1,0.6-0.1,1.3,0,1.9c1.4,7,0.4,14,0.6,21c0.1,6.1,0,12.2,0.6,18.2
		c0.6,5.4,0.3,10.8,0.5,16.3c0.1,4.2,0.2,8.3,1.4,12.3c0.4,1.5,0.5,3.1,0.5,4.7c0.1,1.6-0.3,3.3,0.1,4.7c1,3.6,0.5,7.3,0.7,10.9
		c0,0.6,0.2,1.3,0,1.9c-1.5,4.4-0.2,8.9,0,13.3c0.1,2,0.8,4.1,1.5,6c0.7,2.2,1,4.3,1,6.6c-0.1,4.8,0.2,9.6-0.9,14.3
		c-0.4,1.8-0.4,3.9,0.1,5.7c0.6,2.1,0.6,4.1,0.4,6.2c-0.6,5.9-0.1,11.8-1.3,17.7c-0.4,1.7-0.7,3.5,0.7,5c0.4,0.4,0.4,1.2,0.4,1.8
		c0.1,4.8,0.3,9.6,0.3,14.4c0,2.5-0.4,5.1-0.6,7.6c-0.4,4.3-0.6,8.5-0.4,12.8c0.3,4.8-0.4,9.5-2.2,14.1c-0.5,1.3-0.8,2.7-0.9,4.2
		c-0.3,3.7,0.1,7.3,0.6,10.9c0.3,2.2,0.2,4.4,0.3,6.7c0.1,1.6,0.1,3.2,0.3,4.8c0.7,7.6,1.6,15.3,2.1,22.9c0.4,6.2,0.5,12.5,0.7,18.7
		c0.2,9.4-2.1,18.3-5.9,26.9c-0.7,1.6-1.1,3.4-1.2,5.1c-0.4,7.3-0.3,14.6,0.1,22c0.5,8,0,16-0.1,24c-0.1,4.6-0.5,9.3-0.3,13.9
		c0.2,3.5,1,7,2,10.3c1.5,4.7,2.6,9.6,3.5,14.4c0.5,2.9,0.2,5.3-0.9,8.4c-0.3-0.4-0.7-0.8-0.8-1.1c-0.9-4.5-1.7-9.1-2.7-13.6
		c-0.3-1.2-0.6-2.6-1.3-3.6c-2.1-3.2-2.5-6.9-2.9-10.5c-0.3-2.7-0.3-5.4-0.3-8.1c0-11.5,0.1-23,0.2-34.5c0-2.4,0-4.8-0.3-7.2
		c-0.8-7.4,0.1-14.7,1.2-22c0.1-0.9,0.4-1.9,0.8-2.7c2.8-5.8,4.1-12,4.3-18.5c0.2-5.4,0.3-10.9,0.1-16.3c-0.1-4.1,0.3-8.2-0.2-12.4
		c-0.8-6.3-1.5-12.7-1-19.1c-1-3.4-1-6.9-1.2-10.4c-0.5-6.1,0.3-12.1,1.2-18.1c1-5.8,1.5-11.7,2.1-17.6c0.1-1.3-0.1-2.5-0.2-3.8
		c-0.4-3.8-0.7-7.6-0.2-11.5c0.2-1.4,0.1-2.9,0-4.3c-0.5-4.9-0.8-9.8-0.1-14.8c0.1-0.5,0.1-1,0-1.4c-1.5-6.8-0.4-13.7-0.6-20.5
		c-0.1-4.8,0.3-9.6,0.5-14.4c0.2-5-0.2-9.9-1.1-14.8c-1.1-5.8-1.2-11.7,0.1-17.6c0.2-1.1,0.4-2.3,0.1-3.3
		c-2.9-10.5-3.7-21.4-4.6-32.2c-0.6-8.3-0.8-16.6-0.9-24.9c0-10.5-0.2-21.1-0.2-31.6c0-5.7,0.3-11.5,0.4-17.2c0-2.2-0.1-4.5-0.1-6.7
		c0-4.3,0-8.6,0-13.2c-1-0.5-1.9-1.2-2.8-1.6c-2.8-1.2-5.6-2.4-8.4-3.6c-2.3-1.1-4.5-2.3-6.8-3.4c0,0,0.1,0.1,0.1,0.1
		c0.8-1.8,0.7-3.7,0.6-5.6c-0.8-8.1-1.5-16.2-2.3-24.3c-0.8-8.4-1.6-16.9-2.5-25.3c-0.3-3.2-0.1-6.6-1.2-9.5
		c-1.1-2.8-3.6-5.2-5.6-7.7c-4.3-5.6-8.4-11.3-13-16.6c-5-5.8-9-12.4-14.3-17.9c-0.6-0.7-1.1-1.5-1.7-2.3c-1-1.4-2.1-2.7-3.2-4.2
		c-17.7,5.9-35.1,11.6-52.5,17.4c-1,2.5-0.3,4.8,0.2,7.1c0.4,2.3,0.9,4.7,1.4,7c1,4.8,2.4,9.6,4.2,14.1c1.6,3.9,2.3,7.8,3.1,11.9
		l0.1-0.1c-2.2-0.8-3.1-3-5-4.3c0.4-1.6,0.8-3.1-0.5-4.5c-1.8-2.1-2.4-4.6-2.6-7.5c-0.2-3.1-1.5-6-2.3-9c0.6-0.4,1-0.8,1.6-1.2
		c-0.2-0.4-0.2-0.9-0.5-1.2c-0.7-0.6-1.4-0.9-1.7-2.1c-0.9-4.7-2.3-9.3-2.2-14.1c0-2.4-0.5-4.8-0.7-7.1c-0.2-1.5-1.3-3.1,0.5-4.4
		c0.2-0.1,0-0.9,0-1.3c-0.3-1.4-0.5-2.9-0.8-4.2c-0.8-2.7-0.8-5.4-0.1-8.1c0.7-2.7,0.5-5.3,0.1-8c-0.2-1.4-0.4-2.9-0.2-4.3
		c1.2-6,0.3-12,0.8-18c0.2-3.1,0.4-6.3,1.2-9.3c0.3-1.3,0.7-2.4,0.3-3.7c-0.2-0.7,0.1-1.5,0.4-2.2c1-2.3,1.7-4.7,2.4-7.2
		c1.3-4.9,2.7-9.8,3.8-14.8c0.3-1.4,0.9-2.8,1.6-4c1.7-2.7,2.9-5.6,3.7-8.6c0.3-1.1,1-2,1.5-3c2.1-3.9,4.2-7.9,6.4-11.8
		c0.5-1,1.2-1.9,1.8-2.8c1.9-2.5,4.5-4.5,5.5-7.7c2.8-2.1,4.1-5.5,6.7-7.9c1.6-1.5,3-3.3,4.1-5.2c1.6-2.8,3.6-5.2,6.4-6.9
		c0.7-0.4,1.5-0.9,1.8-1.6c0.7-2,2.3-3,3.8-4.1c1.4-1,2.8-2.2,4.3-2.9c1.6-0.8,1.3-2.9,2.8-3.6c0.3-0.1,0.5-0.4,0.7-0.6
		c2.1-2,4.6-3.3,7.1-4.8c2.2-1.3,3.6-4.2,5.9-5.4c3.3-1.7,6.1-3.7,8.7-6.3c1.2-1.2,3-1.7,4.5-2.6c6-3.4,11.4-7.6,17.4-10.9
		c4.5-2.5,9.1-4.4,13.7-6.5c1-0.5,2.1-0.8,3-1.4c4-2.5,8.4-3.8,12.9-4.9c3.3-0.8,6.5-1.7,9.5-3.1c1.9-0.8,3.9-1.3,5.9-1.8
		c3.7-1,7.5-1.7,11.1-2.8c2-0.6,4.1-0.7,6.1-0.7c3.2,0,6.3-0.3,9.5-0.5c2-0.2,4.1,0.1,6.2,0.3c2.4,0.3,4.7,0.8,7,1.4
		c1.1,0.3,2,0.3,3.1-0.5c0.6-0.5,1.8-0.4,2.7-0.3c6.7,1.5,13.4,2.5,20.3,3c2.3,0.2,4.6-0.6,7-0.2c1.2,0.2,2.4,0.2,3.6,0.8
		c2.6,1.3,5.1,2.6,8.2,1.7c1.1-0.3,2.4,0.5,3.6,0.9c4.1,1.4,8.1,2.9,12.3,4.1c2.9,0.8,5.9,1.3,8.8,1.9c2.9,0.6,5.5,2.3,8.6,2.5
		c0.8,0,1.6,0.9,2.5,1.4c1.8,1.1,3.5,2.2,5.3,3.2c2.2,1.2,4.9,1.5,6.3,4.1c0.2,0.3,0.9,0.2,1.3,0.4c0.6,0.3,1.2,0.6,1.6,1
		c0.9,0.9-0.1,2.8,1.5,3.3c1.3,0.4,2.2,1.1,3,2.2c0.3,0.4,0.6,0.7,1,1.1l0,0c-0.4,0.1-0.9,0.2-1.3,0.3c0,0.4-0.1,0.8,0.1,1
		c1.1,1.3,2.3,2.6,3.7,4.1c0.9-1,1.5-1.8,2.1-2.4c1.8,1.4,3.7,2.8,5.5,4.4c1,0.9,2.1,2.1,2.6,3.3c1,2.4,2.5,3.7,5.2,4
		c2.4,0.3,3.1,2.2,3.8,4.4c-2.2,0-3.4-2.2-5.8-1.9c0.5,0.6,0.8,1.2,1.2,1.4c1.5,0.9,3,1.9,4.6,2.6c1.7,0.8,3.1,1.5,2.9,3.8
		c0,0.7,0.7,1.4,1.7,0.7l-0.1,0.1c0,0.3-0.1,0.8,0.1,0.9c3.8,2.8,6.1,6.7,8.8,10.5c1.7,2.4,3.7,4.6,5.5,6.9c-0.5,0.7-1,1.3-1.4,1.9
		c0,0,0.1-0.1,0.1-0.1c-1.6-0.2-2.5-1.3-3.2-2.6c-1.1-2.2-2.9-3.8-4.5-5.5c-1.4-1.5-2.7-3.1-4.1-4.7c-0.8-1-1.5-2.2-2.5-2.8
		c-1.1-0.6-1.5-1.6-2.1-2.5c-1.2-1.9-2.4-3.7-3.8-5.5c-1.6-2.2-3.7-3.9-6.2-5l0.2,0.2c-2.2-4.1-5.4-7.3-9.3-9.9
		c-5.4-3.6-10.8-7.4-16.2-11c-3-2.1-6-4.3-9.2-6c-4.9-2.5-9.9-5.1-15.1-6.9c-6.1-2.1-12.4-4.1-18.4-4.4c-0.3,0-0.7,0-0.9-0.2
		c-2.7-1.1-5.6-0.8-8.4-1c-3.4-0.3-6.6-0.7-9.8-1.9c-1.4-0.6-3.1-0.8-4.7-0.7c-1.6,0.2-3.1,0.1-4.7-0.4c-1.2-0.4-2.5-0.5-3.7-0.6
		c-2.8-0.2-5.7-0.4-8.5-1.1c-2.1-0.5-4.3-1-6.6-0.2c-0.8,0.3-1.9,0-2.8-0.2c-1.8-0.5-3.7-1.8-5.4-1.6c-2.5,0.4-5-1.3-7.4,0
		c-6-0.6-11.4,2.5-17.2,3c-0.1,0-0.4,0.1-0.4,0.2c-0.8,1.8-2.6,1.7-4.1,2c-3.4,0.8-6.8,1.6-10.3,2.1c-9.2,1.5-17.2,5.9-25.3,9.9
		c-3.4,1.7-6.6,3.7-9.9,5.6c-4.2,2.4-8.3,4.7-12.5,7c-1,0.5-1.9,1.2-3,1.5c-2.8,0.9-4.9,2.8-7.2,4.5c-1.4,1.1-2.7,2.3-4.2,3.2
		c-5.1,3.3-9.5,7.5-14,11.4c-5.4,4.7-10.3,9.9-15.4,14.9c-1.3,1.3-2.8,2.5-3.6,4.4c0.6,0.8,1,1.4,1.5,2
		c10.4,12.8,20.8,25.5,31.2,38.3c1.3,1.6,2.8,2.6,4.6,3.2l-0.1-0.1c-0.8,0.5-1.6,0.9-2.7,1.6c-6.4,27.1-12.9,54.4-19.3,81.4
		c13.4,15.7,25.3,32.1,37.8,48.1c1,0.3,1.7-0.4,2.5-0.9c6-3.7,12-7.4,18-11c1.7-1,2.8-2.4,3.7-4.2c2.1-4.1,3.8-8.5,5.1-12.9
		c1.4-5.2,4.3-9.6,6.8-14.2c1-1.8,2.5-3.3,3.6-5.1c3.1-4.8,7.5-8.2,12.7-10.6c0.3-0.1,0.6-0.1,1-0.1c0.2,0.2,0.5,0.4,0.7,0.5
		c0,0,0.2-0.1,0.3-0.2C597.3,470.2,596.9,470.1,596.5,470.1z M671.9,287.2c0.1,0.3,0.1,0.5,0.3,0.8c0,0,0.3,0,0.4,0
		c-0.3-0.2-0.5-0.4-0.8-0.7c-2.4-1.2-2.4-1.1-4.6-1C668.6,288,670.2,287.8,671.9,287.2z M724.4,303.8c-1.7,0.3-2.9-1.4-5.1-0.6
		c1.7,1.4,3.1,2.4,4.7,3.7C724.2,305.7,724.3,305,724.4,303.8z M665.9,749c-0.2-0.4-0.3-0.6-0.4-0.9c-0.1,0.3-0.3,0.5-0.3,0.8
		c0,0.3,0.1,0.6,0.2,0.9C665.6,749.5,665.7,749.2,665.9,749z M727.5,307l0.2,0.2l0.1-0.2L727.5,307z M669.2,763.4l0.3,0.1l-0.1-0.4
		L669.2,763.4z"/>
	<path class="st1" d="M745.6,332.5c-0.1,0.4-0.1,1.1-0.4,1.3c-1.8,1.2-3.7,2.5-5.6,3.6c-4.9,2.6-9.9,5.2-14.8,7.6
		c-3.4,1.7-6.9,3.2-10.3,4.8c-0.9,1.5-0.4,2.9-0.2,4.3c3.1,19.5,6.2,39.1,9.3,58.6c0.3,2.1,0.9,4,2.3,5.7c3.4,4.4,6.6,8.9,10.2,13.2
		c3.3,4,5.5,8.9,9.5,12.4c1.6,3.6,4.5,6.2,6.8,9.2c1.7,2.3,3.5,4.5,5.3,6.7l0.1-0.1c-0.7,0.3-1.5,0.7-2.2-0.1
		c-2.5-2.9-5.4-5.4-7.5-8.7c-2.6-4-5.6-7.7-8.8-11.3c-3-3.3-5.4-7.1-8-10.7c-2.2-3.1-4.3-6.3-6.5-9.4c-0.7-1-1.6-1.9-2.6-3.1
		c-26.9,5.8-53.7,11.6-80.8,17.4c-0.5,1.4-1.1,2.9-1.6,4.4c-1.8,6.3-4.1,12.4-5,18.8c0,0.3-0.1,0.6-0.2,0.9
		c-0.5,1.4-1.1,2.9-1.9,4.8c-0.3-0.8-0.5-1.1-0.5-1.5c0.4-4.8,1.5-9.4,2.9-14c1.3-4.4,2.2-9,3.4-13.9c-0.2-0.3-0.5-1-1-1.6
		c-13.5-15.4-27-30.8-40.5-46.2c-0.4-0.5-0.9-0.9-1.5-1.4c-3.5,0.5-7,0.6-10.3,1.7c-5.8,1.8-12,1.9-17.7,4.1
		c-6.2-0.3-11.8,2.7-17.8,3.3c-4.1,0.4-8.1,1.6-12.1,2.9c-3.2,1.1-6.5,1.4-9.9,1.6c0,0,0.1,0.1,0.1,0.1c0.6-0.5,1.1-1.3,1.8-1.5
		c3.9-1.2,7.9-2.3,11.9-3.2c6.4-1.4,12.8-2.6,19.2-4c5.4-1.2,10.8-2.7,16.3-3.8c5.3-1.1,10.6-2,15.5-2.9c1.7-2,3.1-3.8,4.6-5.4
		c14.2-16.2,28.5-32.5,42.7-48.7c1-1.2,2.5-2.1,2.5-3.9c-0.2-0.4-0.5-0.8-0.8-1.2c-3.5-3.9-7.2-7.7-10.4-11.8
		c-3.5-4.5-7.2-8.8-11.4-12.7c-1.3-1.2-2.2-2.7-3.2-4.1c-0.1-0.2,0-0.5,0.1-1.1c3,2.7,6.3,4.9,8.7,8.1c1.3,1.8,2.7,3.6,4.4,5.1
		c3.4,3.1,6.5,6.6,9.2,10.3c1.5,2.1,3.1,4,4.2,5.4c2.5,0.8,4.4,1.2,6.1,1.9c11.2,4.2,22.4,8.4,33.6,12.7c9.9,3.7,19.7,7.4,29.8,11.2
		c1.7-0.8,3.4-1.6,5.1-2.4c2.7-1.3,5.3-3,8.2-4c4.4-1.5,8.3-3.9,12.4-5.9c2.4-1.2,4.4-3.3,7.4-3.1L745.6,332.5z"/>
	<path class="st1" d="M799.9,409c-1.4-1-1.6-3.1-3.3-4c-0.6-0.3-1-1.3-1.2-2c-3.1-10.1-7.9-19.4-12.8-28.7
		c-2.2-4.2-4.2-8.6-7.4-12.2c-0.8-1-0.9-2-0.3-3.1c0,0-0.1,0.1-0.1,0.1c0.5,0.4,0.8,1.1,1.4,1.3c0.6,0.2,1.5-0.1,2,0.2
		c0.4,0.2,0.2,1.2,0.5,1.7c1,1.6,2.1,3.1,3.2,4.7c2.2,3.3,4.1,6.8,5.8,10.4c1.9,4,4.3,7.8,6.5,11.7c-0.3,0.5-0.5,1.1-0.9,1.8
		c1.4,2.2,2.8,4.6,4.4,6.7c1.9,2.5,3.2,5.4,3.4,8.3c0.3,3.3,1.7,6.1,3,8.9c1.6,3.2,2.6,6.5,3.2,10c0.4,2.2,0.9,4.3,2,6.3
		c1,1.9,1.3,4.3,1.9,6.4c0.7,2.3,1.7,4.5,2.1,6.8c0.4,2.2,0,4.4,1,6.5c0.2,0.3-0.2,0.9-0.2,1.4c0,1.3-0.3,2.7,0.2,3.8
		c1.8,3.9,0.5,7.8,0.3,11.7c-0.1,0.9,0,1.9,0,2.8c-0.1,2.9-0.3,5.7-0.5,8.6c-0.1,1.1-0.4,2.3-0.2,3.3c0.7,3.5-0.1,7-0.1,10.5
		c0,0.6,0.1,1.4-0.2,1.9c-1.7,3-1,6.6-2.5,9.6c-0.8,1.6,0.2,3.3-0.4,5.1c-1.9,5.9-3.5,11.9-5,17.9c-0.7,2.8-2.3,5.2-3.5,7.8
		c-0.5,1.2-1.4,2.2-1.7,3.4c-0.8,2.6-1.2,5.3-3.5,7.2c-0.4,0.3-0.3,1.2-0.5,1.8c-0.9,2.2-1.8,4.3-3.3,6.3c-1.5,2.1-2.7,4.6-3.7,7.1
		c-1.5,3.9-3.4,7.5-6.6,10.4c-0.6,0.5-1.2,1.2-1.4,1.9c-1.5,4.6-5.1,7.6-8.3,10.9c-0.5,0.6-1.4,1.1-1.5,1.7
		c-0.3,2.8-2.7,4.3-4.1,6.3c-1.2,1.6-2.8,3.1-4.5,4.2c-1.8,1.2-3.2,2.7-4.3,4.4c-1.9,2.8-3.8,5.4-7.2,6.7c-1.5,0.6-2.8,2.1-3.8,3.5
		c-1.5,1.9-3.3,3.3-5.5,4.5c-3.5,1.9-6.6,4.4-9.9,6.7c-3.3,2.2-6.5,4.6-9.9,6.7c-3.2,2.1-6.6,4-9.9,5.9c-0.5,0.3-1.1,0.7-1.7,0.9
		c-6.9,2.6-13.3,6.1-19.8,9.5c-4.8,2.5-10,4.1-15.1,6.1c-4.2,1.6-8.3,3.4-12.8,4c-2.6,0.3-2.6,0.5-6.2-0.7c2.1-1.3,4.2-1.8,6.3-2.4
		c1.5-0.5,3-1.1,4.5-1.6c1-0.4,2.1-0.9,3.1-1.2c5.2-1.5,10.3-3.5,15.2-5.9c5.7-2.8,11.6-5.5,17.1-8.6c3.3-1.8,6.7-3.5,9.8-5.7
		c1.3-0.9,2.8-1.5,4.2-2.3c5.5-2.9,11-5.8,16-9.6c1.1-0.9,2.4-1.6,3.7-2.2c3-1.2,5.4-3.3,7.7-5.4c4.5-4,9-8.2,13.5-12.3
		c0.2-0.2,0.6-0.4,0.7-0.7c2-3.7,5.3-6.3,7.8-9.6c0.2-0.3,0.3-0.6,0.5-0.8c4.5-4.8,7.7-10.5,11.5-15.8c3.8-5.3,7.1-11,10.7-16.5
		c0.9-1.3,1.9-2.5,3.1-4.2c0-0.9,0-2.2,0-4.2c-4,4.2-6.8,8.6-10.1,12.7c-3.2,4-6,8.2-9.5,12.1c-1.1-0.7-2-1.3-2.9-1.9
		c-6.7-4.7-13.3-9.5-20-14c-2.3-1.5-3-3-2.4-5.9c1.9-9.6,3.4-19.2,4.9-28.8c2.8-16.7,5.5-33.4,8.2-50.2c0.2-1.3,0.4-2.5,0.6-4
		c8-0.7,16.1-1.4,24.1-2.2c8.1-0.8,16.2-1.1,24.6-2.4c-0.2-1.6-0.4-3-0.5-4.4c0-1.4,0.8-2.8-0.2-4.1c-0.2-0.3-0.1-1,0-1.4
		c0.7-2.5,0.4-5,0-7.6c-0.4-2.2-0.2-4.5-1.6-6.4c-0.3-0.5-0.3-1.2-0.4-1.9c-1.3-6.8-3.7-13.2-6-19.6c-0.8-2.2-2.2-4.3-1.2-6.9
		c-0.1-0.2-0.1-0.4-0.1-0.6C799.8,408.5,799.8,408.8,799.9,409z"/>
	<path class="st1" d="M484.2,839.3c2.8,2.5,4.8,6.1,6.4,10c1.5,3.7,3.4,7.2,5.3,10.8c2.3,4.3,3.9,8.7,5,13.4c1,4.3,2.5,8.6,4.1,12.8
		c1.6,4.2,3.3,8.3,4,12.8c0.1,0.3,0.2,0.6,0.3,0.9c2.5,5.6,3,11.7,4.7,17.6c0.5,1.8,1,3.8,1.1,5.6c0.1,5.1,1.3,10.1,2,15.2
		c0.2,1.3,0.3,2.6,0.1,3.8c-0.2,1.1-0.3,2.1,0.1,3.2c0.2,0.6,0.2,1.3,0,1.9c-1.8,3.8-0.8,7.9-1.6,11.8c-0.2,0.8,0,1.6,0.1,2.4
		c0.1,1.4,0.5,2.9,0.3,4.3c-0.6,7.3,0.3,14.7,0.4,22c0,2.2-0.1,4.5-0.2,6.7c-0.1,2.2-0.4,4.4,0.9,6.5c0.5,0.8,0.5,1.9,0.5,2.8
		c-0.2,4.3-0.4,8.6-0.6,12.9c-0.2,4.9-0.2,9.9-0.4,14.8c-0.2,6.1-0.5,12.1-0.9,18.2c-0.2,2.3,0.3,4.7-0.6,7.7c-1-1.7-2.1-2.2-2.1-4
		c0.3-5.2,0.1-10.5,0.3-15.7c0.3-5.9,0.5-11.8-0.2-17.7c0-0.4,0-1.1,0.3-1.3c1.4-1.1,1-2.6,0.9-4c-0.2-2.1-0.4-4.2-0.9-6.2
		c-1.1-4.3-0.5-8.6,0.3-12.8c0.1-0.8,0.4-1.6,0.3-2.3c-1.1-6.3-1.8-12.6-0.7-19c0.1-0.8,0.2-1.6,0-2.4c-1.2-4.4-0.5-8.9-0.9-13.3
		c-0.2-1.9-0.7-3.8-0.4-5.6c0.4-2,0.1-3.8-0.2-5.6c-0.2-1.2,0.2-2.5,0.3-3.8c0.1-1.1,0.5-2.5,0-3.3c-1.4-2.3-0.7-4.6-0.6-6.9
		c0.3-4.7-0.8-9.2-1.3-13.8c-0.5-4.6-2.2-8.9-3.7-13.3c-0.9-2.7-2.1-5.3-2.2-8.3c0-1.2-0.7-2.4-1.2-3.6c-0.5-1.2-1.2-2.2-1-3.6
		c0.1-0.6-0.2-1.3-0.5-1.8c-2.4-3.3-3-7.3-4-11.1c-1.1-4.3-2.6-8.5-4.9-12.4c-1.5-2.6-2.4-5.5-3.6-8.3c-0.6-1.3-1-2.7-1.9-3.9
		c-1.4-2-2.7-3.9-2.7-6.5c0-0.7-0.5-1.5-0.9-2.1c-1.4-2.5-2.4-5.1-3.1-8c-0.7-2.7-1.7-5.5-3-7.9c-2.1-3.8-3.4-7.9-4.4-12.1
		c-0.3-1.2-0.6-2.5-1.4-3.5c-3.1-4.2-4.6-9-4.9-14.2c0-0.8,0.1-1.8-0.4-2.3c-1.7-2-1.2-4.2-0.9-6.4c0.4-3.1,1.6-5.9,3.8-8.1
		c2.2-2.1,3.9-4.6,5.6-7.1c1.9-2.8,4.2-5.1,8-5.5c2.3-0.3,4.5-1.6,6.8-2.2c1.4-0.4,2.9-1,4.2-0.7c4.8,0.8,9.8,0.9,14.5,2.9
		c4.1,1.8,8.5,2.8,12.8,3.8c4.5,0.9,8.5,2.7,12.4,4.9c1.9,1.1,3.4,2.7,4.8,4.5c3.1,4.1,6.4,7.9,9.9,11.6c3,3.1,5.8,6.4,8.1,10
		c2.6,4,5.3,8,8.1,11.9c2.9,3.9,4,8.4,4.9,12.9c0.3,1.4-0.4,3.1-1.3,4.7c-0.6-1.6-1.4-3.1-1.7-4.7c-1-5-3.7-9.1-6.4-13.3
		c-4.8-7.6-10-14.8-16.4-21.2c-1.2-1.2-2.5-2.5-3.4-4c-2.2-3.4-5.4-5.9-8.4-8.4c-2.5-2.1-5.9-3-9-4.2c-1.9-0.8-4-1-6-1.7
		c-2.1-0.7-4.1-1.6-6.2-2.3c-4.5-1.5-9-3.1-13.6-4.5c-1.1-0.3-2.5,0.1-3.8,0.2c-8,0.6-14.1,4.7-19.1,10.8c-0.6,0.7-1,1.6-1.4,2.5
		c-0.5,1.2-0.9,2.4-1.6,3.5c-3.1,4.8-2.4,9.8-0.4,14.6c4.5,10.6,9.1,21.1,12,32.3C483.4,835.1,483.7,837,484.2,839.3z"/>
	<path class="st1" d="M832.1,121.3c-0.9,0.3-1.7,0.6-2.7,0.9c0.3,1,0.6,2.2,0.9,3.5c-1.5,1.6-3.8,2.6-3.4,5.3c0,0.3-0.6,0.8-1,0.9
		c-1.3,0.5-2,1.5-2.4,2.8c-0.2,0.7-0.5,1.7-1.1,2.1c-2.1,1.5-2.6,3.8-3.3,6.4c-0.8-0.7-1.5-1.2-2.1-1.7c-1.3,1.9,0.4,3.5-0.1,5.5
		c-0.5,0.4-1.4,0.9-2,1.5c-0.6,0.7-1.6,1.5-1.5,2.2c0.2,1.9-0.6,3-2.1,3.9c-0.8,0.5-0.6,1.2-0.8,2c-0.6,3-1.2,6.1-3.8,8.3
		c-0.7,0.6-0.9,1.3-0.1,2c-0.3,0.2-0.7,0.4-0.9,0.7c-1,1.2-2.5,1.7-3.1,3.3c-0.6,1.4-1.6,2.5-1.5,4.3c0.1,1.5-0.2,3.3-2.4,3.5
		c-0.3,0-0.7,0.6-0.9,1c-0.6,1.2-1,2.5-1.6,3.7c-0.7,1.3-1.6,2.4-2.2,3.7c-1.4,3.1-1.3,3.1-4.2,4.6c-0.8,0.7,0.5,2.6-1.6,2.3
		c-0.1,0-0.4,0-0.4,0.1c0.1,2.8-3.9,3.8-3,6.9c0.1,0.3-0.1,0.6-0.2,0.9c-0.4,1.7-3,1.1-3,3.1c0,1.8-1.8,1.9-2.8,2.8
		c-0.3,0.3-1.2,0-2.1,0c0.4,0.8,0.7,1.5,1,2.1c-0.5,2.8-3.1,2.9-5,3.8c1.1,3.6,1.1,3.6-1.9,4.5c-0.3,2.1-0.7,2.5-2,4.8
		c-0.8,1.3-1.8,2.4-2.1,4.2c-0.2,1.8-1.8,3.4-2.3,5.2c-0.5,1.9-1.6,2.9-3,4c-0.6,0.5-1.4,1-1.6,1.7c-1.2,3.4-4,5.7-6,8.5
		c-2.9,4.2-3.1,4.3-8.3,2.5c0.4-2.3,1-4.4,2.7-6.3c1.2-1.3,2.3-2.7,3.1-4.2c1.7-3.2,3.8-6.2,5.2-9.6c0.8-2,2.4-3.7,3.7-5.5
		c1.1-1.5,1.6-3.6,3.7-4.2c1.7-3.2,3.4-6.3,5.1-9.5c-0.5-1.1,0.2-1.6,1-2.3c0.9-0.8,1.9-1.9,2.1-3.1c1-4.1,4.5-6.5,6.7-9.7
		c0.6-0.8,1.8-1.2,2.7-1.9c-0.4-1.2-0.9-2.4-1.4-3.8c2.3-2.6,4.5-5.1,6.7-7.6c0.4-0.5,0.6-1.1,0.9-1.6c1.3-2.3,2.2-4.8,4.2-6.8
		c1.5-1.6,3-3.7,3.1-6.2c2-1.9,2.5-4.3,2.4-7.1c1.2-0.4,2.2-0.9,3.2-1.1c1.9-0.3,2.8-1.5,3.6-3.2c1.4-2.7,2.8-5.3,3.8-8.1
		c0.3-1,1.3-1.7,2-2.5c-0.3-0.8-0.6-1.6-0.9-2.2c0.1-0.3,0.2-0.7,0.4-0.9c3.8-2.8,5.7-7.2,9.1-10.4c1-3,3.6-5,4.1-8.4
		c0.3-1.8,0.8-4,2.5-5.5c0.5-0.4,0.9-1,1-1.6c0.2-2.4,1.9-3.5,3.7-4.8c0-0.6,0.1-1.3,0.1-1.9c-0.1-3.4,1.1-6.1,3.9-8.3
		c2.9-2.3,5-5.3,6-8.9c0.4-1.5,1.1-2.4,2.8-2.9c2.1-0.6,2-0.8,1.3-4.1c0.7-0.7,1.6-1.5,2.7-2.5c0.6,1.1,1.1,1.9,1.5,2.7
		c-2.3,2.2-2.3,2.2-0.4,5c-0.2,0.4-0.3,0.8-0.6,1.2c-0.6,0.8-1.2,1.5-1.7,2.1c-0.8-0.8-1.5-1.5-2.5-2.5c-0.4,1-0.8,1.5-0.7,2
		c0.2,1.2,0,2-0.8,3c-1.2,1.6-0.8,2.5,1.6,4.1c-1.6,1.6-3.2,3.3-5,5c0.4,1.6,1.7,3.3,0.3,5.3c-0.5-0.2-1.3-0.4-1.8-0.8
		c-1.3-0.9-2.4-0.7-3.5,0.6c1.4,1,2.8,2,4.4,3.2c-0.5,1-1.1,1.9-1.6,2.9c-0.9,0.1-1.7,0.1-2.7,0.2c0,0.6,0,1.2,0.1,1.8
		c0.2,1.1,2.3,0.5,1.9,2.5C834.1,121.1,833.1,121.3,832.1,121.3c-0.7-2.9-0.7-2.9-2.8-5.3C828.9,118.4,829.1,118.8,832.1,121.3z
		 M824.4,131.1c0.3-0.1,0.5-0.2,0.8-0.4c-0.1-0.2-0.2-0.6-0.4-0.7c-0.3-0.2-0.8-0.1-1.2-0.2c0,0.3-0.1,0.6,0.1,0.8
		C823.8,130.8,824.1,130.9,824.4,131.1z"/>
	<path class="st1" d="M638.4,95.1c1.4,0.8,1.8,2.3,1.5,3.6c-0.7,2.5-0.9,4.8,0.9,7.3c-1.5,0-2.2,0-3.2,0c0.4,2.1,2.6,2.6,3.2,4.4
		c-0.5,1-1,2.1-1.7,3.5c0.5,1,1.1,2.1,1.7,3.4c-1.1,1.6-0.7,3.1,0,5.1c0.8,2.5,2.3,5.3,0.6,8.1c1.2,1.8,0.1,3.4-0.2,5.1
		c-0.3,1.7-0.6,3.7,0.8,5.5c0.9,1.2,1.6,2.8-0.1,4.3c-0.4,0.4-0.6,1.6-0.4,2.2c1.3,3-0.2,6.4,1.5,9.2c-0.7,2-2.4,3.5-1.2,5.9
		c0.4,0.8-0.3,2.1-0.5,3.2c-0.4,1.6-0.7,3.1,0.4,4.5c0.3,0.3,0.4,0.9,0.3,1.3c-0.3,1.1-0.8,2.2-1.2,3.4c1.6,1.1,0.3,2.4,0,3.4
		c-0.3,0.7-1.3,1.2-2.3,2c0.7,0.3,1.2,0.5,1.9,0.7c1.1,2.3,0,4-1.9,5.2c-0.4,1.6,1.1,1,1.4,1.6c0.5,1,1.1,1.9-0.1,3
		c-0.4,0.3-0.7,1.5-0.5,1.6c1.7,1.4,0.5,3.2,0.6,4.8c0.1,1.3,0.2,2.4,0.5,3.7c0.7,2.6,0.9,5.3,1.2,8c0,0.2-0.4,0.5-0.4,0.8
		c-0.4,1.3-1.3,2.9-1,4c1.1,3.7-0.8,7.2-0.4,10.9c0.2,2.1-1,3.6-3.1,4.3c-0.9,0.3-1.8,0.4-2.9,0.7c-0.5-2.6-1.1-4.9-0.7-7.5
		c0.7-4.1,0.4-8.2-0.1-12.4c-0.3-2-0.7-4,0-6.1c0.4-1.2,0.1-2.5,0.3-3.8c0.1-1.1,0.1-2.3,0.5-3.2c0.5-1.1,0.4-2.1,0.2-3.2
		c-0.2-1.4-0.4-2.8-0.5-4.2c-0.1-1.4,0.7-2.8-0.7-4c-0.2-0.2,0-0.9,0-1.3c0-0.9,0.3-1.9,0.1-2.8c-0.8-3.7,0.2-7.2,0.5-10.8
		c0.1-1.4,0.8-2.7,1.3-4.4c-0.7-0.6-1.6-1.4-2.6-2.4c0.2-2.3,0.1-4.7,0.7-7c0.8-2.6,0.4-5,0.3-7.6c0-0.3-0.3-0.7-0.2-0.9
		c1.1-4.1,0.2-8.1,0-12.2c0-1-0.4-2.2-0.9-3.1c-1-1.7-0.7-3.2,0.7-4.2c1.3-0.9,2.1-2.2,2.1-3.6c0-2.3-0.5-4.6-0.8-6.9
		c-0.2-1.8-0.4-3.7-0.6-5.8c-0.3-0.3-1-0.8-1.6-1.2c0-0.3-0.2-0.6-0.1-0.9c1.6-4.2,1.2-8.8,2.3-13.1c-1.1-2.8,0.9-6-1.2-8.7
		c0-2-1.5-3.8-0.5-5.9c0.2-0.4,0.2-1.1,0-1.4c-1.3-2.1-0.2-4,0.5-6c-0.4-0.7-0.9-1.4-1.3-2c-1.4-2.5-1.9-5-0.7-7.8
		c1.2-3,1.5-6.3,0.7-9.3c-0.7-2.7-0.3-4.7,2-6.5c-0.8-0.9-1.4-1.5-2.1-2.3c0.2-0.9,0.4-2,0.6-3.2c1.1,0.4,1.9,0.8,2.7,1.2
		c0.3,1.1-1.3,2-0.3,3c0.7,0.6,1.6,0.8,2.7,1.4c0,0.5,0,1.1,0,1.7c0,0.6-0.1,1.3-0.2,1.9c-1.2-0.1-2.4-1.2-3.6,0.4
		c0.6,1.4,2.1,2.7,1.3,4.6c1,1,2,1.9,3.2,3c-0.3,1.6-0.7,3.5-1,5.4c1.2,1.2,3.2,1.9,2.8,4.2c-1.2,0.9-4-0.7-4.3,2.5
		c1.9,0,3.6,0,5.4,0c0,1.2,0,2.3,0,3.6c-0.7,0.4-1.4,0.9-2.1,1.4c0.5,1.3,1.2,2,2.6,1.4c0.3-0.1,1,0.1,1.1,0.3
		c0.2,0.3,0.1,1-0.2,1.2c-0.5,0.6-1.3,1-1.9,1.4c-2.8-2.5-2.8-2.5-6.4-2.9c2.4,1.8,4.1,3.1,6.5,2.8c-0.4,0.8-0.9,1.7-1.4,2.8
		c0.2,0.2,1.3,0.8,2.2,1.4c-1,2.1-1.6,3.7-0.7,5.6C641.1,93.5,640.9,93.6,638.4,95.1c0.3-0.7,0.7-1.3,1-1.9c-0.9-1-1.7-0.7-2.5-0.1
		C637,94,639,93.7,638.4,95.1z M636.5,112.1l-0.4,0.1l0.4,0.2L636.5,112.1z"/>
	<path class="st1" d="M951.8,1106.2c0-0.5,0.3-1.1,0.1-1.4c-1.5-1.7-1.3-3.7-1.2-5.7c0.3-4.9,0.8-9.9,1-14.8
		c0.1-2.9-0.3-5.7-0.4-8.6c0-0.6-0.3-1.4,0-1.9c1.7-2.7,0.6-5.3-0.2-7.8c-1.2-3.7-1.5-7.5-1.1-11.3c0.1-0.7,0-1.5-0.3-2.3
		c-1.5-4.7-2.9-9.4-2.8-14.5c0-0.8-0.1-1.7-0.4-2.3c-1.5-2.7-1.7-5.8-2.3-8.7c-0.6-2.8-1.4-5.5-1.6-8.4c-0.2-2.3-0.9-4.7-0.9-7
		c0-0.3,0-0.7-0.2-0.9c-2.1-2.7-1.3-6.1-2-9.1c-0.4-1.5-0.9-3-1.3-4.5c-1.1-5-2.9-9.7-5-14.4c-1-2.1-1.9-4.4-1.5-6.9
		c0.1-0.7-0.3-1.5-0.5-2.3c-0.5-1.3-1.3-2.5-1-4.1c0.1-0.5-0.2-1.3-0.4-1.8c-1.7-3.2-2-6.7-2.1-10.1c-0.2-4.9,0-9.9-0.1-14.8
		c-0.1-2.7,0-5.4-1.5-7.9c-0.4-0.6-0.6-1.6-0.4-2.3c0.8-2.8,0.2-5.7,0.5-8.5c0.5-3.8-0.1-7.2-2-10.5c-0.3-0.5-0.4-1.2-0.7-1.8
		c-1.6-3.4-0.5-7.3-2-10.7c-1.4-3.3-1-6.9-1.3-10.4c-0.1-1.4,0.1-2.9-1.3-3.8c-1-3.4-2.3-6.7-2.9-10.1c-0.4-2.3-1.2-4.2-2.6-6
		c-1.7-2.1-3-4.4-3.4-7.3c-0.2-1.6-1.4-3.2-2.5-4.5c-1.2-1.5-2-3.1-2.7-5c-1.3-3.6-3-7-4.6-10.5c-1.2-2.8-2.5-5.5-3.7-8.3
		c-1.7-3.8-3.3-7.6-4.9-11.4c-1.3-3.1-2.4-6.2-3.7-9.2c-0.9-2.2-2-4.3-3.1-6.5c-1.3-2.4-2.6-4.8-4-7.1c-1.5-2.4-3.2-4.8-4.8-7.1
		c-1.7-2.4-4.2-3.9-6.9-5c-1.3-0.5-2.6-0.9-4.2-0.6c-1.3,0.3-2.8,0.1-4.2,0.1c1.8-2.4,3.7-3.4,6.4-3.2c3.7,0.4,7.2,1.2,9.7,4.5
		c1.3,1.8,2.9,3.4,4.2,5.2c3.4,4.7,6.2,9.7,8.7,14.9c1.7,3.4,2.7,7.2,5.3,10.1c0.4,2.7,2.4,4.8,3.2,7.4c2.3,7.1,4.9,14.2,7.5,21.2
		c1.1,3,2.6,5.8,4,8.6c2.5,4.8,4.8,9.7,7.2,14.6c0.6,1.1,1.2,2.2,1.8,3.4c0.6,1.3,1.3,2.5,1.8,3.9c0.6,1.6,1.1,3.3,1.5,5
		c1.1,4.5,2.4,8.9,3.1,13.5c0.7,4.6,1.6,9.1,2.7,13.6c0.7,2.8,1.1,5.6,1.6,8.5c0.1,0.3,0,0.7,0.1,1c0.6,1.9-1.4,3.4-0.3,5.5
		c0.8,1.6,0.9,3.7,1.3,5.6c0.4,1.9,0.5,3.8,1,5.7c1,4.6,1.5,9.1,0.8,13.8c-0.9,5.7,0.2,11.1,1.8,16.5c0.4,1.5,0.8,3.1,1.2,4.6
		c1.7,7.1,3.6,14.2,6.3,21c0.3,0.7,0.6,1.5,0.7,2.3c0.4,4,2.2,7.6,3.3,11.5c1.1,3.6,1.7,7.2,1.2,11.1c-0.5,3.1-0.1,6.3,0.9,9.4
		c0.3,1.1,0.6,2.1,0.8,3.2c0.7,5.9,2.1,11.6,3.5,17.3c0.3,1.1,0.5,2.2,0.5,3.3c0.2,3,0,6.1,2.1,8.6c0.4,0.4,0.4,1.2,0.4,1.8
		c0.1,11.2,0.6,22.4-0.8,33.5c-0.3,2.7-0.4,5.4-0.4,8.1c0,1.4-0.5,2.5-1.8,3.1C951.7,1106.1,951.8,1106.2,951.8,1106.2z"/>
	<path class="st1" d="M956.7,686.9c-1.1-1.6-2.2-3.1-3.3-4.6c-1.8-0.2-3.5,1.6-5.2-0.1c-0.5-1.6,3.4-2.8,0.4-4.8
		c-1,1.2-1.9,2.5-2.9,3.7c-2.8-1.3-2.8-1.3-2.9-3.8c-1-0.4-1.9-0.4-2.3,0.8c-0.3,1.2-1,1-1.8,0.7c-0.3-1.2-0.3-2.2,1.1-2.8
		c1.4-0.6,2.8-1.4,4.1-2c-0.3-1.3-1-1.1-1.5-0.8c-1.2,0.5-2.3,1.2-3.5,1.8c-0.2-0.4-0.4-0.8-0.8-1.4c-0.9,0.2-1.9,0.3-3.3,0.6
		c-1.3-1.5-2.3-3.7-5.8-3.2c1.2-1.3,1.8-1.9,2.4-2.5c-0.2-0.2-0.4-0.6-0.5-0.6c-2.3,1.1-4.3,0-5.5-1.4c-1.5-1.7-3.2-2.5-5.2-3.1
		c-0.3-0.1-0.4-0.5-0.7-0.8c0.5-0.4,1.1-0.8,1.7-1.3c-1.5-1.4-3.1,0.2-4.9-0.4c-0.3-0.4-0.8-1-1.2-1.7c-0.6-1.1-1.4-1.6-2.6-1.8
		c-0.6-0.1-1.6-0.2-1.7-0.5c-0.9-2.4-3.3-2-5-2.8c-1.9-0.8-3.9-1.4-5.1-3.2c-0.8-1.2-3-0.5-3.2-2.2c-0.2-1.7-2-1.4-2.7-2.5
		c-0.2-0.3-0.4-0.6-0.7-0.6c-2.3-0.5-4.8-0.3-6.2-3.2c-1-2-4.2-1.7-5.8-3.7c-0.4-0.5-1.4-0.6-2.1-1c-0.5-0.3-1-0.7-1.5-1.1
		c-0.9-0.7-0.4-2.6-1.7-2.6c-1.7,0-1.5-1.7-2.6-2.2c-1-0.4-1.7-1.5-2.6-2.1c-0.6-0.4-1.4-0.5-2.2-0.8c-0.6-0.2-1.1-0.5-1.7-0.8
		c-1-0.6-0.2-2.6-2.2-2.6c-0.8,0-1.5-1.5-2.3-2.1c-1-0.8-2.3-1.3-3.1-2.2c-0.9-1.2-1.4-2.7-2-4.2c-0.7,0.2-1.5,0.4-2.5,0.7
		c-0.3-0.4-0.7-0.9-0.9-1.4c-0.2-0.6-0.2-1.5-0.9-1.4c-1.9,0.2-2.7-1.2-4-2c-0.9-0.6-1.9-1.2-2.9-1.6c-2.3-1.1-4.6-2.1-6.9-3.2
		c-0.3-0.2-0.5-0.7-0.7-1.1c-0.9-1.1-1.7-2.7-2.9-3c-3.6-1.2-5.1-4.7-8.2-6.4c-1.3-0.7-1.8-2.2-1.4-3.8c0.3-1.2,0.8-2.4,1.2-3.8
		c2.6,1.1,4.7,2.2,6.6,4c2.9,2.6,6.2,5,9.8,6.6c1.4,0.6,2.8,1.6,3.8,2.7c2,2,5,2.9,6.1,5.9c0.1,0.3,0.8,0.4,1.2,0.7
		c1.4,0.8,2.8,1.5,4.1,2.3c1,0.6,1.7,1.9,3.3,1.5c0.4-0.1,0.9,0.7,1.4,1.1c0.9,0.7,1.6,1.7,2.6,2c3.9,1.5,6.2,4.8,9,7.6
		c0.3,0.3,0.6,0.7,1,1.3c1-0.2,2.1-0.4,3.4-0.6c1.6,1.4,3.5,2.6,4.8,4.4c1.4,1.9,3.4,2.9,5.2,4c1.3,0.9,2.8,1.4,3.7,2.9
		c0.3,0.5,1,0.7,1.5,1.1c1.4,1.1,3.2,1.5,4.5,2.5c1.5,1.1,2.9,1.7,4.7,1.9c1.3,0.1,2.1,1.2,2,2.3c-0.2,2.7,1.1,4.2,3.5,4.9
		c1.1,1.8,3.2,2,4.8,2.9c1.2,0.7,2.4,1.4,3.9,2.3c0.4-0.1,1.1-0.4,1.8-0.6c0.3,0.1,0.7,0.2,0.8,0.4c2.3,3.8,6.1,6,9,9.2
		c1.1,1.2,2.8,2,4.3,2.8c1.5,0.8,3.1,1.7,4.7,1.9c2.2,0.3,2.9,2.6,4.8,2.9c2,0.3,2.4,2.4,4,3.5c0.5,0,1.1,0,1.8,0
		c3,0,5.1,1.3,6.7,3.8c1.6,2.6,4,4.4,6.8,5.7c2.9,1.4,3,1.4,4,4.7c0.4,0.1,0.9,0.2,1.3,0.2c0.5,0,0.9-0.2,1.5-0.3
		c0.7,0.8,1.5,1.7,2.3,2.6c-0.9,0.5-1.7,0.9-2.5,1.2c-2-2.1-2-2.1-4.9-0.4c-0.9-0.7-1.8-1.5-2.8-2.3c0.9-0.8,1.6-1.4,2.7-2.3
		c-0.9-0.4-1.4-0.7-1.9-0.8c-0.6-0.1-1.5,0.2-1.8-0.2c-2.3-2.6-3.9-0.9-5.4,0.8L956.7,686.9z M863.8,621.7c-0.1-0.3-0.1-0.5-0.2-0.8
		c-0.3,0.1-0.7,0.2-0.7,0.2c0,0.4,0.2,0.7,0.3,1.1C863.4,622,863.6,621.9,863.8,621.7z"/>
	<path class="st1" d="M847.2,262.7c-0.2,0.2-0.4,0.5-0.6,0.7c-2.7,2.8-2.7,2.8-6.5,3.1c0.3,3.2,0.2,3.3-3.1,3.5
		c-0.4,1.4-0.8,2.8-2.5,3.6c-1.1,0.6-2,1.8-2.8,3.1c-1.7,2.8-3.7,5.5-6.9,6.8c-0.6,0.2-1.2,0.5-1.7,0.9c-1.1,1.1-2.1,2.3-3.3,3.3
		c-1.1,0.9-2.5,1.5-3.6,2.4c-3.7,3-4.3,3-8.2,0.2c-0.1-0.1-0.2-0.3-0.4-0.5c1.2-1.9,2.4-3.7,4.6-5.1c3.3-2.1,6.1-5,8.6-8.1
		c1-1.2,2.1-2.4,3.5-3.2c2.4-1.5,3.9-4.3,7-4.7c0.4-0.1,0.7-0.7,0.9-1c0.5-0.6,0.9-1.3,1.4-2c1.2-1.7,4.1-2.1,3.9-4.9
		c2.2-0.8,3.4-2.6,4.9-4.3c1.4-1.6,3.5-2.7,5.4-3.9c1.3-0.8,2.8-1.5,4.3-2.3c0-1.1,0-2.2,0-3.5c2.3-1.5,4.8-3,7.1-4.6
		c1.3-0.9,2.3-2.2,3.4-3.3c0.8-0.8,1.4-1.8,2.4-2.2c2-1.1,3.4-2.8,4.8-4.5c1.5-1.8,3.3-3.3,4-5.7c0.2-0.5,1.5-1.2,1.9-1.1
		c3,1.1,4.6-0.6,6.3-2.6c0.8-0.9,1.7-1.7,2.5-2.7c1.1-1.5,2.4-2.8,3.8-4.3c-0.1-0.5-0.2-1.3-0.3-1.8c3.4-2.3,6.5-4.4,9.6-6.6
		c2.8-2,5.3-4.1,7.1-7.3c1.4-2.5,3.8-4.6,5.8-6.7c0.6-0.6,1.7-0.8,2.8-1.2c0.2-0.6,0.4-1.4,0.6-2.1c0.7-2.8,2.4-4.7,5.2-5.7
		c2.9-1.1,5.2-3,6.9-5.5c1-1.6,2-2.7,4.2-2.3c1.3,0.2,1.5-0.5,1.3-2.8c1-0.5,1.9-1,3-1.6c0.3,0.9,0.6,1.8,0.8,2.7
		c-2.5,1.2-2.5,1.2-1.4,4.4c-0.6,0.5-1.3,1.1-2.1,1.7c-0.9-0.7-1.7-1.4-2.7-2.2c-1.3,1.2-0.9,3.3-2.6,3.8c-0.1,1.4-0.3,2.8-0.4,4.5
		c-1.1,0.7-2.5,1.5-3.9,2.3c-0.5,1.5,0.9,3.6-1.3,4.8c-1.5-0.2-1.8-3.1-4.3-2c-0.1,2.2,2.5,2.7,3.1,4.5c-0.7,0.7-1.5,1.4-2.2,2.1
		c-0.8-0.3-1.5-0.5-2.4-0.8c-0.1,0.5-0.3,0.9-0.3,1.4c-0.1,1,0.8,1.2,1.4,1.6c0.2,0.1,0.1,0.8,0,1.3c0,0.1-0.6,0.3-0.8,0.2
		c-0.6-0.4-1.5-0.7-1.8-1.3c-0.5-1.1-0.7-2.5-1.1-3.7c-0.1-0.4-0.6-0.6-1.1-1.2c-0.9,2.1,0.7,3.6,0.6,5.2c-1.9,0.5-1.2,2.3-1.7,3.8
		c-1.3,0.8-3.6,0.8-3.8,3.2c0,0.3-0.4,0.7-0.6,0.7c-2.9,0.1-3.7,3.3-6.1,4.3c-1.3,0.5-2.1,2.2-3.1,3.4c-0.5-0.4-1-0.9-1.6-1.5
		c-1.5,1.3-0.2,3.2-1.2,4.8c-0.6,0.2-1.5,0.5-2.3,0.9c-0.5,0.3-1.2,0.6-1.4,1.1c-0.6,1.5-1.1,2.9-3.1,3.2c-0.3,0-0.6,0.7-0.8,1.1
		c-1.2,2.8-2.5,5.4-5.4,6.9c-0.6,0.3-0.6,1.5-1.2,2c-0.6,0.5-1.6,0.3-2.2,0.8c-1.5,1.3-3.4,2.2-3.8,4.6c-0.2,1.4-1,2.7-2.9,2.4
		c-0.3,0-0.8,0.5-1.2,0.8c-0.3,0.2-0.7,0.3-0.8,0.5c-0.7,3-4.6,3.5-5.1,6.5c-1.7,1-3.8,0.6-4.8,2.7c-0.5,1-2.1,1.4-3.1,2.1
		c-0.5,0.3-1.3,0.6-1.5,1.1c-0.8,2.1-1.9,3.9-4.5,4c-0.1,0-0.2,0.3-0.2,0.4c0,1.8-1.7,1-2.5,1.6c-0.6,0-1.2,0-1.9,0
		c0,0.2,0.1,0.4,0.1,0.6C846,263.2,846.6,263,847.2,262.7z M903.3,207.5c0.4,0.2,0.7,0.4,1.1,0.6c0.1-0.2,0.4-0.6,0.4-0.7
		c-0.3-0.3-0.7-0.5-1-0.8C903.6,206.9,903.5,207.2,903.3,207.5z"/>
	<path class="st1" d="M429.5,95.8c0.2,1.2,0.5,2.5,0.7,3.8c1.3,1.3,3.7,0,4.6,2.5c-0.4,0.3-1,0.6-1.5,1.1c-0.6,0.6-1.1,1.4-1.9,2.4
		c2.4,0.6,3.5-1.3,5.4-1.7c0.4,0.5,1,1.2,1.6,2c-0.4,0.8-0.7,1.7-1.1,2.5c1.4,1.4,2.6-0.1,3.9-0.2c0.5,1.4,0,2.2-1.3,2.4
		c-1.6,0.3-3.4-0.4-5,0.7c1.5,1.5,3.2,0.2,4.6,0.6c0.6,1.4,1.1,1.7,3.4,2.4c0.6,1.6,0.6,3.7,2.6,4.6c-0.1,2.6,2.2,4.1,2.9,6.3
		c0.5,1.8,1.5,3.1,2.9,4.2c0.4,0.3,0.4,1.1,0.6,1.7c-0.4-0.2-0.8-0.6-1.2-0.6c-0.4,0-0.7,0.4-1.1,0.6c0.3,0.3,0.6,0.7,1,0.8
		c0.4,0.1,0.8-0.2,1.3-0.2c1.2,1.1,3,1.8,2.4,4.1c-0.1,0.5,0.7,1.3,1.2,1.8c0.5,0.6,1.7,1,1.6,1.5c-0.1,2.4,2,3,3.2,4.3
		c1.3,1.4,2.8,2.6,3.2,4.7c0.2,1.4,1.3,1,2.2,1.2c-0.9,3.3,0.4,5.8,3.2,7.6c1.3,0.9,2.7,1.6,2.2,3.7c-0.2,0.7,0.8,1.7,1.3,2.4
		c1.4,1.9,2.9,3.7,4.3,5.6c0.2,0.2,0.3,0.6,0.4,0.9c0.4,1.4-1,3.3,1.3,4.1c-0.6,1.7,1.3,2.6,1.4,4.2c0,0.4,0.2,1,0.6,1.3
		c1.8,1.3,3.5,2.6,2.7,5.2c2.1,0.8,1.7,3.2,2.7,4.7c1.7,2.4,1.5,2.6,0.9,5.7c3.1,1,3.1,1,2.7,3.8c0.8,1,2.5,1.3,2.8,3.2
		c0.2,1.4,1.4,2.7,2.7,3.7c1.7,1.3,2.9,3.4,4.2,5.2c0.2,0.3,0,0.9,0.1,1.3c0.3,1.1,0.2,2.4,0.9,3.1c2.2,2.3,2.6,5.4,4,8
		c1.9,3.8,1.8,4.5-1.2,7.4c-0.2,0.2-0.6,0.3-1,0.5c-1.6-1.2-3-2.6-3.7-4.6c-1.5-4.3-4-7.9-6.7-11.4c-0.6-0.7-1.3-1.5-1.5-2.4
		c-0.8-2.9-3.2-5.2-3.3-8.4c0-0.5-0.6-1.1-1-1.6c-0.5-0.6-1.1-1.2-1.5-1.8c-0.7-1.2-1.4-2.5-2-3.8c-2-0.1-1.8-1.9-2.4-3
		c-0.7-1.3-1.9-2.2-2.4-3.4c-1.5-3.3-2.8-6.7-4.2-10.4c-0.7-0.2-1.8-0.5-2.9-0.8c-1-2.7-1.5-5.7-3-8c-2.4-3.5-4.1-7.4-6.2-11.1
		c-2.3-1.4-2.5-4.8-5.4-5.8c-0.5-0.2-0.8-1.7-0.6-2.5c0.3-1.2,1-2.3,0.6-3.7l-3.3-5c-1.5-1.6-3.1-3.1-3.5-5.3c-0.9,0-1.5,0-2.1,0
		c-0.2-0.3-0.5-0.5-0.6-0.7c-1.3-3.7-2.5-7.5-4-11.2c-1.3-3.2-3.6-5.9-6.1-8.2c-0.8-0.8-1.7-1.2-1.9-2.5c-0.1-0.6-0.4-1.4-0.9-1.7
		c-1.7-1.1-1.8-2.9-2-4.5c-0.4-0.3-0.6-0.6-0.8-0.8c-3.4-1.4-5.2-3.6-5.7-7.5c-0.5-3.4-2.4-6.5-5.4-8.7c0.2-1.4,0.3-2.6,0.5-4
		c-0.9-0.3-1.7-0.6-2.6-1c-0.3-0.8-0.6-1.7-1-2.8c1-0.1,1.8-0.2,2.8-0.3c0.2,0.7,0.5,1.4,0.8,2.4c1,0,2.1-0.1,3.4-0.2
		c0.4,0.9,1,2,1.4,2.9c-1.1,0.5-2.1,0.8-3.2,1.3c0.9,1.9,3.4,1.8,3.6,3.8C426.6,94.9,428.1,95.4,429.5,95.8L429.5,95.8z
		 M443.9,121.4c0.3-0.1,0.6-0.2,0.9-0.3c-0.1-0.2-0.2-0.7-0.3-0.7c-0.3,0-0.6,0.1-0.9,0.2C443.7,120.9,443.8,121.1,443.9,121.4z"/>
	<path class="st1" d="M358.7,320.4c-1.1,0.2-2.1,0.3-3.2,0.5c-1.7-1.9-3.5-4-5.2-6c-0.2-0.2-0.3-0.7-0.5-0.8
		c-4.5-1.7-6.7-6.7-11.4-8.2c-1-1.3-2.4-1.9-4-2.2c-1.7-0.3-2.3-0.9-2.1-2.6c0.2-2.3-0.7-3.3-2.5-4.5c-1.7-1.2-3.4-2.3-5.2-3.2
		c-0.5-0.3-1.2-0.6-1.5-1.1c-0.9-1.8-2.2-0.7-3.3-0.5c-2.1-2.4-4.3-4.6-6.2-7.1c-2.8-3.5-6.4-6.1-10.7-7.5c-1.7-0.6-2.2-2.2-3.6-2.9
		c-2.2-1.2-2.1-1.3-3.4-3.3c-0.6-0.1-1.4-0.3-2.2-0.4c-2.8-0.2-4.6-1.6-5.9-4.1c-1.6-3.3-4.5-5.3-8.1-6.5c-0.3-1.2-0.7-2.4-1.1-3.8
		c-0.8,0-1.7,0-2.7,0c-0.4-0.5-0.9-1.2-1.5-2.1c0.8-0.5,1.6-0.9,2.3-1.4c1.5,2.1,1.5,2.1,4.8,0.3c0.6,0.7,1.4,1.6,2.1,2.4
		c-0.9,0.8-1.7,1.5-2.6,2.3c1.4,1.3,3.6,0.2,4.4,2c1.5,0.2,2.8,0.1,3.6-1.5c1.1,1.5,2.2,3.1,3.3,4.6c1.7-0.1,3.2-1.2,4.8,0.1
		c-0.1,1.6-2.8,2.5-1.2,4.8c1.2-1.2,2.4-2.4,3.5-3.7c1.8,0.7,2.8,1.8,2,3.8c1.1,0.4,2,0.5,2.4-0.8c0.2-0.8,0.8-0.9,1.5-0.7
		c0.5,0.2,0.4,1.7-0.1,2.1c-0.6,0.5-1.3,0.8-2,1.2c-1,0.6-2.1,1.1-3.7,2c2.7,0.8,3.8-1.1,5.7-1.4c0.1,0.3,0.2,0.7,0.5,1.4
		c0.9-0.1,1.8-0.3,2.8-0.5c0.3,0.2,0.6,0.3,0.8,0.5c0.4,0.5,0.6,1.1,1,1.6c1.3,1.3,3.7,1.3,4,3.7c1.5,0.9,2.8,1.9,3.9,3.3
		c0.9,1.1,2.7,1.5,4.3,2.3c-0.7,0.6-1.2,0.9-2,1.6c1.6,0.9,3.1-0.2,4.7,0.5c0.5,0.8,1.1,1.9,1.8,3.2c1.4,0.5,3.4,0.1,4.1,2.4
		c0.1,0.3,0.7,0.6,1.1,0.7c3.1,0.6,5.7,1.8,7.6,4.4c0.1,0.2,0.8,0,1.4-0.1c0.3,0.5,0.6,1.3,1,2c1.1,1.7,2.2,3.3,4.6,3.4
		c1.3,0.1,3,0.2,2.9,2.3c0,0.4,0.9,0.8,1.3,1.2c0.2,0.2,0.3,0.8,0.5,0.8c2.9,0.2,3.9,3.8,6.8,3.6c0.6,1.3,0.8,3,1.6,3.4
		c1,0.5,1.4,1.3,2.2,1.9c1.6,1.4,2.7,3.7,5.4,3.5c0.1,0,0.2,0.2,0.4,0.3c1.2,0.4,0,2.5,2,2.8c0.8,0.1,1.5,1.5,2,2.4
		c0.3,0.6,0.1,1.4,0.1,2.2c2.6-0.7,3.1-0.5,3.5,1.1c0.2,0.9,0.3,1.8,0.4,3c0.8-0.2,1.3-0.6,1.9-0.5c0.5,0,1.5,0.4,1.5,0.7
		c0,1.7,0.9,2.3,2.4,2.2c0.2,0,0.4,0,0.4,0.1c1.6,2.6,4.5,3.3,6.9,4.7c2.1,1.3,4.4,2.4,5.4,4.9c0.2,0.4,0.5,1,0.9,1.1
		c2.9,1.1,4.2,3.9,6.2,5.8c2.8,2.6,3,3.3,1.5,6.5c-0.2,0.6-0.7,1-1.2,1.6c-2.2-1.2-4.1-2.2-5.8-4.1c-2.3-2.6-5.2-4.7-8.2-6.5
		c-1.3-0.8-2.7-1.7-3.7-2.9c-1.8-2-4.4-3.2-5.3-6c-2.2-1.5-4.3-3.3-6.7-4.5C366.8,329.7,362.6,326,358.7,320.4z M312.6,276.8
		c-0.2-0.3-0.3-0.4-0.4-0.5c-0.3,0.3-0.7,0.6-1,0.9c0.2,0.1,0.5,0.4,0.5,0.4C312,277.4,312.3,277.1,312.6,276.8z"/>
	<path class="st1" d="M972.4,320.1c-0.7,0.6-1.5,1.7-2.1,1.6c-2-0.1-3.8-0.3-4.9,1.8c-0.1,0.1-0.3,0.2-0.4,0.2c-2.8-0.5-4,2-5.9,3.2
		c-2.4,1.5-5.2,2.1-7.9,2.8c-2.3,0.6-4.5,0.9-5.8,3.2c-0.5,0.9-1.5,1.5-2.9,0.9c-0.6-0.3-1.8-0.2-2.2,0.3c-1.9,2.3-5.6,1.4-7,4.3
		c-1.4-0.3-2.5-0.5-3.5-0.7c-1,0.1-1.1,2.2-2.6,1.1c-1-0.7-1.3,0.9-2.2,0.6c-1.2-0.4-2.2,0.3-2.9,1.2c-1,1.4-2,1.7-3.7,1.1
		c-1-0.4-1.3,1.6-2.7,1.2c-0.8-0.2-2.1-0.2-2.7,0.3c-1.6,1.3-3.3,0.9-5,1c-0.1-0.3-0.2-0.7-0.3-0.7c-0.4,0-0.8,0.2-1.2,0.3
		c0.2,0.2,0.4,0.4,0.7,0.5c0.3,0.1,0.6-0.1,0.9-0.1c-1.4,0.8-2.5,2.8-4.5,1.3c-0.1-0.1-0.4,0-0.4,0.1c-1.9,2.8-6.1,1.7-7.9,4.6
		c-2.6,1.1-4.9,3-7.9,2.8c-0.5,0-1.1-0.1-1.4,0.1c-2.4,1.8-5.4,1.7-8.1,2.6c-4.4,1.3-4.8,1.2-7.3-2.8c-0.1-0.1-0.1-0.3-0.2-0.7
		c1.6-1.3,3.1-2.6,5.5-2.9c3.7-0.5,7-2.1,10.2-3.9c3.5-1.9,7.3-2.7,11.2-3.5c0.9-0.2,1.8-0.4,2.7-0.7c1.5-0.6,2.9-1.2,4.3-2
		c1.2-0.6,2.2-1.6,3.4-2.1c1.1-0.5,2.5-0.5,3.6-1c4.5-2,7.3-2.8,11.8-2.8c0.4-1,0.8-2,1.2-3.2c2.6-0.5,5.5-0.6,7.9-1.6
		c3.9-1.7,8.2-2.4,11.8-4.4c2.4-1.3,5.4-2,6.9-5c1.2,0.6,2.2,1,3.2,1.5c1.2,0.6,2.3,0.7,3.6-0.1c2-1.3,4-2.4,6.1-3.5
		c1-0.5,2.1-0.7,3.1-1c0.2-0.7,0.4-1.5,0.6-2.1c3.5-0.7,6.9-1.5,10.3-2.2c3.4-0.7,6.4-2,9.3-4.1c3-2.1,6.3-4.1,10.4-3.8
		c0.4-0.6,0.7-1.1,1.1-1.6c1.6-2.2,3.5-3.5,6.4-3.3c2.5,0.2,5-0.6,7.3-1.9c3.3-1.8,3.2-1.8,6.6-1c0.4-0.8,0.8-1.6,1.3-2.4
		c0.8-0.1,1.6-0.1,2.7-0.2c0,0.8,0.1,1.5,0.1,2.6c-0.7,0.2-1.5,0.3-2.5,0.5c-0.1,1-0.3,2-0.5,3.4c-0.8,0.1-1.7,0.1-2.6,0.2l0.1,0.1
		c-0.5-0.8-0.9-1.6-1.4-2.5c-1.8-0.4-1.5,2.2-3.1,2.4c-1.8,0.2-1.6,2.1-2,3.4c-0.2,0.4-0.5,0.8-0.7,1.2c0,0,0,0,0,0
		c-1.2-0.1-2.4-0.3-3.5-0.4c-1.5,1.3-0.7,3.9-3.1,4.2c-1.1-0.9-0.8-3.2-3-3.3c-1,1.8,1,3.2,0.8,5.1c-0.7,0.3-1.5,0.7-2.2,1.1
		c-0.8-0.5-1.5-0.9-2.2-1.4c-0.2,0.5-0.6,0.9-0.6,1.2c0.1,0.9,0.4,1.7,0.7,2.8c-0.6,0-1.3,0.2-1.4,0c-0.5-0.6-1.1-1.3-1.1-1.9
		c0-1.2,0.4-2.5,0.5-3.8c0-0.3-0.3-0.7-0.6-1.1c-0.4,0.3-0.7,0.4-0.8,0.6c-0.2,1.3-0.3,2.5-0.4,4c-0.3,0-0.7,0.1-1.4,0.2
		c-0.3,0.7-0.8,1.6-1.4,2.7c-1.8,0-3.7,0.2-5.1,1.7c-0.1,0.1-0.8-0.2-1.2-0.4c0.1-0.4,0.3-0.8,0.4-1.2c0-0.1-0.2-0.3-0.2-0.3
		c-0.2,0.1-0.5,0.3-0.5,0.4c0.1,0.4,0.3,0.8,0.5,1.2c-3.4,1.5-7.3,1.9-10.3,4.3c-0.2,0.2-0.6,0.1-0.9,0.1c0.2-0.3,0.4-0.5,0.5-0.8
		c0.1-0.4-0.1-0.8-0.1-1.1c-0.4,0.2-0.9,0.3-1,0.6C972.2,319.2,972.4,319.7,972.4,320.1z"/>
	<path class="st1" d="M908.6,482.9c-2.4,0.9-3-1.1-4.1-2.5c-1.3,0.2-2.6,2.5-4,0.2c-0.1-0.2-0.6-0.5-0.8-0.4c-2,1.2-3.6-0.3-5.4-0.6
		c-0.6-0.1-1.2,0-1.9,0.1c-3.2,0.4-6.2,0-9.1-1.4c-0.4-0.2-0.9-0.7-1.3-0.6c-3.2,0.4-5.8-1.7-8.7-2.3c-3.1-0.6-3.7-1.5-3.9-4.4
		c0-0.8,0.1-1.5,0.2-2.4c2.4-0.3,4.4-0.1,6.6,0.7c3.2,1.2,6.7,1.7,10.3,1.8c3.7,0.1,7.1,1.6,10.5,2.8c0.4,0.2,0.9,0.8,1.2,0.7
		c2.9-0.6,5.6,1.1,8.4,0.5c0.3-0.1,0.6-0.2,0.9-0.1c5.1,1.5,10.6,1.6,15.1,5c0.9-0.7,1.6-1.4,2.4-2c1.9,0.6,4,0.9,5.7,1.8
		c1.9,1.1,3.9,1.2,5.9,1.5c0.8,0.1,1.7,0,2.4,0.3c2.2,0.9,4.4,1.3,6.8,1.4c2.3,0.1,4.6,0.1,7.1-0.6c0.3,0.5,0.7,0.8,0.8,1.2
		c0.8,2.5,2.4,3.4,5,3.3c2.8,0,5.6,0.6,8.4,0.7c0.6,0,1.2-0.9,1.8-1.3c3.2,1.2,6.5,2.4,9.8,3.6c1.2,0.5,2.4,0.7,3.6,1
		c2,0.3,4,0.3,6.1,0.2c3.6-0.3,7.1,0.3,10.3,1.9c1.1-0.4,2-0.7,2.9-1c1.8-0.7,3.4-0.5,5,0.5c3.3,2.1,7,3.1,11,2.4
		c0.9,1,1.7,1.8,2.6,2.8c1.5-0.5,3.1-2,4.4,0.5c-0.3,0.6-0.7,1.3-1.1,2.1c-0.6-0.4-1.1-0.7-1.9-1.3c-0.7,0.8-1.5,1.7-2.5,2.7
		c-0.8-0.2-1.7-0.5-2.7-0.7c0.4-1.1,0.7-2,1.1-3.1c-1.7-0.7-3.2,1.5-4.7,0.1c-1.5,0.5-2.5,1.3-2.1,3.3c-1.7-0.9-3.4-1.8-4.9-2.6
		c-1.6,0.4-2.1,2.8-4.5,1.7c-0.6-1,1.7-3.3-1.1-4.2c-0.4,1.5-0.9,3-1.4,4.7c-0.9-0.1-1.8-0.2-2.6-0.2c-0.4-0.8-0.7-1.5-1-2.1
		c-2.3,0-1,2.3-2.3,3.2c-1.7-0.9-1.2-3.2-3-4.2c-0.6,0.3-1.3,0.8-2,1.2c-3.1-0.7-6.1-1.4-9.1-2.1c-0.8-0.2-1.6-0.2-2.3-0.6
		c-1.3-0.8-2.7-0.7-4.1-0.5c-1,0.1-2.1-0.4-3.1-0.6c1.3,0.6,2,0,2.5-1.2c0-0.1-0.1-0.3-0.2-0.4c-1.1-0.4-1.6,0.4-2.1,1.2
		c-0.1,0.1,0,0.3-0.1,0.5c-1.1,0-2.2,0.4-3.1-0.6c-1-1.1-2.1-1.3-3.4-0.6c-0.4,0.2-1.1,0.2-1.3,0c-1.5-1.8-3.2-0.4-4.8-0.4
		c-1.9,0.1-3.7,0.3-5.6-0.5c-1.5-0.6-3.2-0.5-4.7-1.5c-2.2-1.3-4.6-0.2-6.9,0.6c-1.4-1.7-3-2.4-5.3-2c-1.8,0.2-3.7-1-5.6-0.5
		c-0.2,0.1-0.7-0.2-0.8-0.4c-1.9-2.6-5.3-1.9-7.8-3.1c-0.6-0.3-1.6-0.1-2.3,0.1c-1.2,0.4-2.2,0.3-2.9-0.8c-0.6-1-1.4-0.1-2-0.3
		c-1.5-0.6-2.9-1.4-4.3-2c0.5,0.4,1.1,0.8,1.6,0.1c0.1-0.2-0.3-0.7-0.5-1.2C909.1,482.2,908.8,482.5,908.6,482.9z M992.3,496.9
		c2.2-1.2,2.2-1.2,2.2-3.2C993.5,495,992.9,496,992.3,496.9z M982.3,496.3c0.2-0.2,0.4-0.5,0.5-0.7c0-0.2-0.2-0.5-0.4-0.8
		c-0.2,0.2-0.4,0.5-0.5,0.8C981.9,495.7,982.1,496,982.3,496.3z"/>
	<path class="st1" d="M369.3,715.5c0.3-0.1,0.8-0.2,0.9-0.3c0.3-0.9,0.2-2.5,0.6-2.6c2-0.5,2.8-2.4,4.4-3.4c2.5-1.6,5-3.2,6.7-6
		c0.5,0.5,0.8,1,1.5,1.8c0.3-1.5,0.5-2.7,0.7-4.2c1.5-0.6,3.5-0.7,3.7-3c2.4-0.8,2.7-3.3,4-4.9c1.4-1.7,3.2-3,4.7-4.5
		c3.2-0.4,3.6-3.2,4.7-5.5c1.6-0.3,3-0.6,3.9-2.3c0.8-1.5,2.3-2.6,3.5-3.8c0.3-0.3,0.8-0.7,1.1-0.7c2.7-0.1,4-2.8,6.3-3.6
		c0.4-0.1,0.9-0.6,0.9-1c0.3-1.7,1.2-2.4,2.9-2.4c0.5,0,0.8-1.3,1.4-1.5c1-0.3,2.1-0.2,3.1-0.3c-0.1-2.5-0.1-2.5,3.5-2.9
		c0.4-0.9,0.6-2.3,1.1-2.4c1.4-0.2,2.4-0.6,2.7-2.1c2.1-1.2,3.3-3.2,4.7-5.1c1.2-1.8,2.7-3.6,5.1-3.9c0.3,0,0.7-0.2,0.8-0.5
		c1.4-2.6,4.5-2.9,6.4-4.8c1.4-1.4,2.8-1.4,4.3-0.4c0.9,0.6,1.7,1.3,2.7,2c-0.6,1.9-1.7,3.1-3.2,4c-3.1,1.8-5.5,4.3-7.8,7
		c-2,2.3-4.6,3.8-7.2,5.3c-0.8,0.5-1.8,0.6-2.3,1.6c-0.8,2-3.1,2.5-4.1,4.5c-0.8,1.6-2.4,2.9-3.9,4c-2.4,1.8-5.1,3.2-8,5
		c0,0.5-0.1,1.4-0.2,2.7c-0.7,0.4-1.5,0.8-2.2,1.4c-2.4,1.8-5,3.2-7.1,5.5c-1.7,1.9-4.5,2.9-5.8,5.5c-1.9,0.7-1.8,2.9-3.1,4.4
		c-1.2-0.2-2.4-0.3-3.6-0.5c-3.6,1.5-4.9,5.6-8,7.7c0.1,0.7,0.2,1.3,0.4,2c-0.3,0.2-0.7,0.6-1.1,0.7c-3.7,1.6-7.1,3.5-10,6.3
		c-1,1-1.9,2-2.7,3.2c-1.8,2.7-3.8,5.4-7.3,6.7c-0.2,0.9-0.5,2-0.8,3c-0.3,1.3-1,2.3-2.4,2.7c-3.7,1-6.5,3.3-8.3,6.5
		c-1.1,0.1-2,0.2-3.1,0.3c-0.2,0.7-0.3,1.5-0.7,2.1c-0.3,0.5-1,0.7-1.9,1.2c-0.4-0.9-0.8-1.7-1.2-2.6c0.7-0.3,1.2-0.6,2-1
		c-0.3-1-0.5-2-0.9-3.1c0.6-0.5,1.3-0.9,2-1.5c0.7,0.9,1.4,1.7,2.1,2.6c0.9-1.4,1.6-2.5,2.3-3.7c0.1-0.2,0.1-0.6,0.1-0.9
		c0-0.2-0.1-0.3-0.1-0.5c-0.2-0.6-0.4-1.2-0.7-1.9c1.2-0.6,2.4-1.2,3.8-1.8c0.1-0.3,0.3-0.8,0.2-1.2c-0.3-1.2-0.4-2.2,0.7-3
		c1.1,0.8,2.2,1.6,3.4,2.5c0.5-2.4-2.1-2.9-2.2-4.6c0.5-2.5,2.5-1.1,4.2-1.3c-0.5-0.8-0.8-1.3-1.1-1.7c-0.3-0.5-0.6-0.9-1.3-2.2
		c2,0.7,3.2,1.1,4.3,1.5c-0.3,0.3-0.9,0.7-0.8,0.9c0.2,1.2,0.7,2.4,1.2,4C371,718.3,369.1,717,369.3,715.5z M376,710.7
		c-0.1,0-0.2,0.1-0.4,0.1c0.1,0.2,0.3,0.5,0.5,0.6c0.1,0.1,0.4-0.2,0.6-0.3C376.4,711.1,376.2,710.9,376,710.7z"/>
	<path class="st1" d="M299.2,595.7c0.3-0.5,0.7-1.1,1-1.6c1.5,0.1,2,1,1.9,2.2c-0.1,1.4-0.5,2.7-0.8,4.5c2-0.8,1.2-2.4,1.8-3.3
		c0.6-1,1.5-2,2.4-3.2c0.6,0,1.5-0.1,2.4-0.2c0.9-0.1,1.3-1.5,2.5-1c0,0.4,0,0.8,0,1.2c0,0,0,0,0,0c0-0.4,0-0.8,0-1.2
		c2.9,0.1,5.6-0.6,8.2-2c0.3,0.5,0.6,1,0.8,1.5c0.3-0.1,0.7-0.2,0.7-0.3c0.5-1.4,0.9-2.8,2.9-2.3c1,0.3,1.8-0.1,2.5-0.9
		c0.4-0.4,1.1-0.4,1.7-0.6c0.5-0.2,1.3-0.1,1.6-0.5c2-2.7,5.2-2.6,7.9-3.7c2.9,0.8,4.8-0.8,6.4-3c3,1.7,5-1,7.5-1.4
		c1.3-0.2,2.5-1.4,3.9-0.5c2.3-1.1,5.3,0.3,7.5-2c1.1-1.1,3.2,0,4.9-0.6c0.7-0.3,1.8,0.2,2.3-0.2c1.9-1.4,3.2-0.1,4.6,0.9
		c0.4-0.9,0.6-1.7,1.1-2.1c0.3-0.3,1.1-0.1,1.7,0.2c1.3,0.6,1.4-1.1,2.3-1.1c0.9-0.1,2.1-0.1,2.8-0.6c3-2.2,6.2-3.8,10.1-3
		c1.9-1.5,4.3-0.9,6.5-1.3c3.1-0.6,3.6-0.4,5,2.2c0.4,0.7,0.5,1.5,0.9,2.4c-1.5,1-2.8,1.8-4.7,2c-2.6,0.3-5.5,0.8-7.7,2.2
		c-2.6,1.6-5.6,1.2-8.2,2.3c-3.1-0.8-5.6,1-8.2,2c-7.5,2.9-7.6,3-14.1,3.1c-0.1,0.1-0.4,0.1-0.4,0.2c-0.4,0.7-0.8,1.4-1.3,2.3
		c-0.7,0.1-1.7,0.2-2.6,0.2c-4.1,0.1-8,1.7-11.9,2.7c-2.7,0.7-5.3,1.8-7.3,4.1c-1.4-0.8-2.6-1.5-4-2.3c-2.8,1.1-5.8,2.1-8.6,3.4
		c-0.7,0.3-1,1.4-1.5,2.1c-2.8,0.2-5.5,0.3-8.1,0.6c-2.7,0.3-5.1,1.1-7.4,2.7c-2.4,1.6-5.1,3.2-8.5,2.6c-0.3,0.4-0.9,0.8-1.2,1.3
		c-1.3,1.9-2.8,2.8-5.2,2.2c-3.1-0.7-6,0.5-8.6,2.3c-0.9-0.5-1.7-1-2.6-1.4c-1.2,0.5-1.4,3.3-3.8,1.6c0.2-0.5,0.3-1.3,0.7-1.5
		c1.7-0.8,1.9-2.3,1.8-3.9c2.2-0.3,2.2-0.3,3.4,2.5c1.7-1.4,4.2-2.1,3.7-5.4c1.4-0.1,2.8-0.1,4.1-0.2c0.6-1.2,1.2-2.2,2-3.7
		c1,1.7,1.7,2.9,2.5,4.1c0.2-0.1,0.4-0.1,0.5-0.2c-0.2-1.5-0.5-3-0.7-4.7c1-0.4,2-0.9,2.9-1.4c0,0.3-0.2,0.6-0.1,0.9
		c0.2,0.3,0.5,0.6,0.8,0.9c0.1-0.4,0.4-0.9,0.3-1.2C300.2,595.9,299.6,595.8,299.2,595.7z"/>
	<path class="st1" d="M371.3,432.4c1.7,0.1,3.2,0.6,3.3,2.5c1.5,0.3,2.7-1.7,3.6,0.3c0.1,0.1,0.2,0.4,0.3,0.3c2-0.6,3.7,1,5.5,0.8
		c3.4-0.4,6.6-0.2,9.5,2c2.4-0.2,4.2,1.3,6.2,2.1c3.4,1.3,3.5,1.5,3.5,5.3c0,0.5-0.2,0.9-0.3,1.7c-1.6,0.4-3.1,0.4-4.9-0.3
		c-2.5-1-5.2-2.1-7.8-2.1c-3.2,0-5.8-1.7-8.7-2.2c-2.2-2.3-5.4-1.9-8-2.2c-6.4-0.9-7.5-0.9-12.4-3.7c-0.4-0.2-0.8-0.4-1.3-0.7
		c-0.8,0.5-1.6,1-2.5,1.6c-1.8-0.8-3.6-1.7-5.5-2.6c-0.7-0.3-1.5-0.5-2.3-0.6c-1.6-0.2-3-0.6-4.5-1.3c-3.1-1.3-6.4-1.2-9.7-0.6
		c-0.3-0.2-0.7-0.3-0.8-0.6c-0.6-2.4-2.1-3.7-4.7-3.8c-2.2-0.1-4.4-0.5-6.5-0.5c-0.6,0-1.3,0.8-1.7,1c-3-1.4-5.6-3-8.4-4
		c-2-0.7-4.1-1.4-6.4-1c-2.5,0.5-4.9-0.6-7.4-0.8c-1.4-1.7-2.9-0.8-4.3-0.2c-1.5,0.6-2.8,0.4-4-0.6c-2.3-1.7-4.8-3.1-7.9-2.6
		c-1.9,0.3-1.9-2.5-3.1-2.3c-1.5,0.3-2.6,1-3.8-0.6c0.5-0.7,0.9-1.4,1.4-2.1c1,0.2,2,1.6,2.8-0.2c0.7-1.6,1.8-1.5,3.1-0.5
		c-0.2,0.9-0.5,1.8-0.8,2.8c1.3,0,2.5,0.3,3.6-0.1c1.1-0.4,2-1.3,3.2-2.1c0.9,0.5,1.9,1,2.9,1.5c1.2-0.6,2.3-1.3,3.5-1.9
		c0.2,0.6,0.5,0.8,0.4,1.1c-0.1,1-1.1,2.1,0.3,3c1.6-0.7,0.7-2.7,1.8-3.7c0.9-0.4,1.9-0.6,2.5,0.5c0.2,0.5,0,1.4,0.9,1.2
		c0.3-0.1,0.6-0.6,0.8-1c0.2-0.5,0.3-1.1,0.7-2.3c0.9,1.9,1.4,3.1,2,4.3c1.4,0.2,2.6-1.7,3.9,0c0.3,0.4,1.5,0.2,2.3,0.3
		c0,0.7,0.1,1.4,0.1,2.1c0.1,0,0.1,0,0.2,0c-0.1-0.7-0.2-1.4-0.2-2c2.7,1.2,5.4,2.7,8.6,2.5c0.6,0,1.2,0.8,1.8,1.2
		c-0.3-0.1-0.6-0.3-0.8-0.2c-0.3,0.2-0.5,0.5-0.7,0.8c0.4,0,0.8,0.1,1.1,0c0.2,0,0.2-0.5,0.3-0.7c1.1-0.6,2.2-1.3,3.4,0.1
		c0.7,0.8,1.5,0.8,2.6,0.6c1.1-0.1,2.3,0.6,3.5,0.6c1.2,0,2.5-0.6,3.7-0.4c2,0.3,3.9,1,5.8,1.6c0.9,0.3,1.7,0.9,2.6,1
		c1.4,0.2,2.9-1.6,4-0.4c1.3,1.5,2.7,1.2,4.2,1.4c1.4,0.2,2.7,0.9,4.2,0.5c0.3-0.1,0.9,0.3,1.2,0.7c2.2,2.5,5.1,2.9,8.1,2.8
		c0.4,0,1,0,1.3,0.2c1.6,1.4,3.9,1.3,5.4,2.7c-0.1,0-0.4-0.1-0.4,0c-0.1,0.3-0.2,0.7-0.3,1c0,0,0.3,0.1,0.3,0.1
		c0.1-0.2,0.3-0.5,0.4-0.8C371.3,432.7,371.3,432.5,371.3,432.4z M301.2,419.4c1.5-0.7,1.5-0.7,1.2-1.8
		C302,418.2,301.6,418.8,301.2,419.4z"/>
	<path class="st1" d="M595.9,1239.2c-2.6,1.9-4.2,1.8-4.7-0.7c-0.3-1.4-0.8-1.9-1.8-2.2c-1.4-0.4-3.1-0.3-4.1-1.8
		c-0.3-0.5-1.4-0.5-2.2-0.6c-1.1-0.2-0.9-1.1-1.2-2c-2.5,1.8-3.4-1.1-5.2-1.7c-2.4-4.2-6.8-6.6-9.9-10.2c-0.1-0.1-0.2-0.2-0.4-0.3
		c-1.1-0.6-2.5-0.9-3.3-1.8c-0.8-0.8-0.8-2.3-1.5-3.3c-0.7-1-1.8-1.7-2.9-2.4c-0.4-0.2-1.2,0.2-2.1,0.4c-0.9-1.2-2-2.6-3-3.9
		c0.4-0.6,0.7-1.1,1.1-1.6c-1.3-2-3.4-3.2-4.8-5.1c-1.8-2.4-3.4-5-5.3-7.3c-3.8-4.7-6-10.4-9.4-15.3c-0.4-0.5-0.5-1.2-0.9-1.7
		c-3.4-3.3-5-7.7-7.1-11.8c-1.3-2.5-1.2-2.5,0.2-5.7c-0.1-0.3-0.1-0.7-0.3-0.9c-2.6-2.3-3.5-5.5-4.4-8.8c-0.6-2.5-1.5-4.9-2.1-7.4
		c-0.7-3-1.5-5.8-3.2-8.4c-1.3-2.1-1.7-4.8-2.4-7.2c-0.1-0.4-0.1-1,0.1-1.4c1.3-4.7,1.3-4.7,0.6-8.1c-0.9,0.1-1.8,0.2-2.7,0.4
		c-0.1-0.3-0.3-0.5-0.4-0.8c-0.3-2.2-0.7-4.4-0.8-6.6c-0.1-1.6-0.4-3.3,0.1-4.7c1-2.9,0.4-5.4-1.1-7.7c-1.3-1.9-1.1-3.4-0.1-5.2
		c1.9,1.7,1.1,4.5,3.4,6.1c0.2-4.3-2-7.5-3.3-11.4c1.1-1.5,1.6-3.3,0.8-5.5c-1.2-3.6-1.8-7.4-0.5-11.3c0.6-1.7,0.1-3.7,0.2-5.5
		c0.1-1.3,0.3-2.5,0.4-3.8c0-1.2-0.1-2.4-0.2-4c1,0.1,1.7,0.1,2.8,0.2c0.1,1.3,0.3,2.5,0.3,3.8c0,2.5-0.2,5.1-0.3,7.6
		c0,2.4,0,4.8,0.1,7.2c0,0.6-0.2,1.3,0,1.9c1.1,3.6,0.3,7.2,0.3,10.9c0,2.1,0.1,4.1,0.3,6.2c0.1,1.9,0.5,3.8,0.4,5.7
		c-0.4,8.3,1.7,16.1,3.9,23.9c1.8,6.3,3.1,12.7,4.6,19.1c0.2,0.9,0.3,1.9,0.7,2.8c2.7,6.1,4.2,12.7,7.4,18.6
		c2.8,5,5.2,10.3,8.4,15.1c2.1,3.2,4.4,6.2,6.2,9.6c0.8,1.5,2.8,1.9,3.6,3.6c0.8,1.7,2.3,3,3.4,4.6c1.9,2.6,3.8,5.1,6.5,6.9
		c0.5,0.3,0.9,1,0.9,1.6c-0.1,2.3,1.6,3.5,3,4.6c3.1,2.3,5.7,4.9,8,8c1.1,1.5,2.7,2.7,4.1,3.9c1.5,1.2,3.2,2.1,4.6,3.4
		c1.1,1,2,2,3.5,2.3c0.6,0.1,1.3,0.5,1.6,0.9C588.5,1234.2,592.7,1236.2,595.9,1239.2z"/>
	<path class="st1" d="M880,1245.6c0.8-1.3,1.4-2.7,2.9-3.6c2.7-1.9,5.3-4.1,7.7-6.4c1.2-1.1,1.8-2.9,3-4.1c1.2-1.2,2.7-2.1,4-3
		c-0.9-2.8-0.9-2.8,0.8-3.9l-0.1-0.1c0.7,0.4,1.4,0.7,2.3,1.2c0.5-0.8,0.8-1.5,1.2-2.1c2.1-3.5,4-7.2,7.2-9.9c1-0.9,1.5-2.4,2.4-3.6
		c2.3-2.9,4.6-5.7,6.9-8.5c2.2-2.6,4.2-5.1,5.3-8.4c0.5-1.4,1.6-2.7,2.5-4c2.7-3.9,5.5-7.8,8-11.8c2-3.1,3.9-6.1,4-10.1
		c0-1.7,0.9-3.4,1.5-5c0.2-0.5,0.7-1.2,1.2-1.3c2.7-0.7,2.5-3.3,3.8-5.1c-1.1-0.5-2-0.9-2.7-1.2c0.5-2.2,0.9-4.4,1.4-6.5
		c0.2-0.8,0.4-1.6,0.8-2.2c1.7-2.1,1.5-4.4,0.8-6.8c-0.2-0.6-0.5-1.2-0.5-1.8c0.1-0.9,0.5-1.7,0.8-2.8c1.7,1.6,0.8,4,2.7,5.3
		c0.9-3.3-0.8-6-1.5-9.2c1.5-1.5,2-3.4,1.3-5.8c-0.6-2-0.6-4.1,0.2-6.1c1.6-4,1.5-8.2,1.5-12.6c0.8,0,1.5,0,2.3,0
		c0,0-0.1-0.1-0.2-0.1c1,0.8,1.2,1.8,1.1,3c-0.2,2.7-0.5,5.4-0.7,8.1c-0.1,1.3-0.3,2.5-0.4,3.8c-0.1,0.6-0.4,1.3-0.3,1.9
		c0.8,4.1-1.1,7.8-1.5,11.7c-0.1,1-0.5,1.9-0.4,2.8c0.2,4.6-1.1,8.8-2.5,13.1c-0.5,1.7-0.8,3.4-0.3,5.1c1.1,0.1,2.2,0.1,3.7,0.2
		c-0.7,1.7-1,3.1-1.8,4.2c-2.4,3.4-4.2,7.1-6,10.9c-0.7,1.4-1.5,2.8-2.5,4.1c-3.4,4.8-5.8,10.2-9.1,15.1c-1.1,1.6-2.3,3.1-3.2,4.8
		c-1.1,2-3.5,3.4-2.8,6.2c-1.3,1.8-2.7,3.6-4,5.3c-2.9,3.8-6.7,6.8-9.1,11c-0.4,0.7-1,1.3-1.3,2c-0.7,1.7-1.5,3.1-3.5,3.6
		c-0.7,0.2-1.4,0.9-1.8,1.5c-2,3-4.9,5.4-6.5,8.7c-0.3,0.7-1.1,1.2-1.7,1.6c-2.4,1.9-4.9,3.6-7.2,5.5c-1.9,1.6-3.8,3.4-5.4,5.4
		c-1.6,2-3.5,3.7-5.6,5c-1.4,0.9-2.5,1.9-3.4,3.2c-0.5,0.8-1.2,1.5-1.8,2.2c-1.9,2.1-4,4.1-5.9,6.3c-1.1,1.2-1.9,2.6-3.6,3
		c-1.1,0.3-1.3,1.3-1.9,2c-0.4,0.4-1,0.6-1.9,1c0-0.7-0.1-1.4,0-1.5c1.3-0.5,1.1-1.8,1.5-2.8c0.6-1.3,1.8-1.6,3.2-0.8
		c0.7-1.7,2.8-2.7,2.1-5c0-0.1,0-0.4,0.1-0.5c2.6-1.4,1.9-4.9,4.3-6.7c0.7,0.2,1.6,0.3,2.7,0.6c-0.9-3.4,1.6-5,3.4-7
		c0,0,0.5,0.3,0.7,0.5c0,0,0.1,0,0.1,0c0.3,0.7,0.5,1.4,0.9,2.1C879.7,1246.8,879.9,1246.2,880,1245.6
		C880.1,1245.5,880,1245.6,880,1245.6z"/>
	<path class="st1" d="M869,863.2c-0.2-1.9-0.2-2.8-0.5-3.6c-0.2-0.7-0.8-1.4-1-2.1c-0.4-1.5,0.2-2.7,1.7-3.4
		c-0.2-1.2-0.5-2.5-0.6-3.7c-0.1-1.2-0.5-2.1-1.4-2.9c-0.2-0.2-0.2-0.9-0.1-1.3c0.8-2.9,0.3-5.6-1.5-8.2c0.9-0.9,1.6-1.6,2.7-2.7
		c-1.2-0.4-2-0.6-2.8-0.8c-1-1.4-0.8-3-0.2-4.6c-0.5-0.4-1.1-0.6-1.5-1.1c-0.2-0.3-0.2-0.8-0.3-1.2c0.4-0.1,0.8-0.2,1.2-0.2
		c0.4,0.1,0.8,0.3,1.6,0.6c-0.2-1.8-3-1.8-2.1-3.8c-1.7-1.3-1.7-3.3-1.9-5.2c-0.1-1.4,0-2.8-0.4-4.1c-0.4-1.5-1.3-2.9-1.8-4.4
		c-0.4-1.4-0.6-2.8-0.8-4.2c-0.1-0.9-0.2-1.9-0.3-2.8c0-0.1,0.2-0.3,0.1-0.4c-0.7-1.4-1.4-2.8-2-4.2c-0.5-1.3,0.5-2.9-0.6-4.1
		c-1-1.1-1.5-2.4-1.6-3.9c0-0.6-0.4-1.2-0.7-1.7c-2.3-4-4.5-8-5.6-12.6c-0.4-1.6-1.6-3.1-2.5-4.6c-0.7-1.2-1.7-2.2-2.1-3.7
		c-0.2-1-1.1-1.9-1.9-2.7c-3.2-3.1-5.9-6.5-8.7-10c-1.7-2.1-3.2-4.3-5.6-5.7c-1.1-0.7-1.9-2.1-2.7-3.2c-1.9-2.9-5.2-4.6-6.8-7.8
		c-0.5-1-2.5-1.3-2.8-2.3c-0.7-2.2-2.9-2.9-4.2-4.4c-2.1-2.5-5.2-2.9-8.3-2.7c-5.4,0.3-9.6,3-13.5,6.5c-0.9,0.8-2,1.6-3.1,2.2
		c-0.9,0.5-1.8,0.2-2.6-1c4.3-5.7,9.9-9.8,16.9-11.6c4.8-1.2,9.1,0.2,12.5,4c2.3,2.6,5,4.9,7.5,7.3c4.4,4,8.7,7.9,12.3,12.7
		c0.5,0.6,0.9,1.7,1.5,1.8c2.8,0.4,3.7,2.9,5.3,4.6c2.1,2.4,4.1,4.8,6.2,7.3c0.8,1,1.5,2,2.1,3.1c2.2,3.9,3.8,8,6.2,11.8
		c0.6,0.9,1,2.1,0.9,3.1c-0.3,1.9,0.4,3.4,1.1,5c1.3,3.1,1.9,6.5,3.6,9.3c2.8,4.6,2.2,9.8,3.4,14.6c0.8,3.2,1.4,6.5,2.7,9.6
		c1.5,3.7,2.4,7.5,2.7,11.5c0.1,1.2,0.5,2.5,1,3.7c0.8,2.1,1,4.3,0.8,6.6c-0.2,3.7-0.2,7.3-0.2,11c0,0.8,0.2,1.6,0,2.4
		c-0.5,2-0.9,4-0.2,6C870.3,861.2,869.8,861.8,869,863.2z"/>
	<path class="st1" d="M540.4,626.5c-3,0.1-5.4-1.4-7.7-2.9c-5-3-10.1-5.6-15.5-7.9c-0.4-0.2-0.9-0.4-1.3-0.7c-2-1.8-4.4-3-6.6-4.5
		c-5.2-3.6-9.7-8-13.5-13.2c-1.3-1.8-2.8-3.6-4.6-4.8c-3.4-2.3-5.3-5.8-7.7-9c-1.1-1.5-1-1.5,0.6-3.6c0.4,0.2,0.9,0.3,1.2,0.7
		c3,3.5,6,7,8.9,10.5c0.5,0.6,1,1.2,1.6,1.7c2.7,2.5,5.7,4.6,7.7,7.8c4.1,2,6.8,6,10.9,8.1c1.8,0.9,4.1,1.3,4.5,3.8
		c1.7,0.9,3.2,2.2,5,2.6c1.3,0.3,2.3,0.8,3.3,1.6c4.2,3.4,9.3,4.6,14.4,5.9c0.9,0.2,2,0.4,2.6,1c2.1,2.4,4.9,3.3,7.9,3.9
		c0.2,0,0.4,0.4,0.6,0.7c-0.6,1.4-2.1,1-3.1,1.5c-1.3-0.7-2-2.7-4-1.4c-0.2,0.1-0.8,0-0.9-0.1c-1-1.9-3.2-0.7-4.6-1.7
		c0.2-0.2,1-0.2,0.2-0.7C540.4,625.9,540.4,626.2,540.4,626.5z"/>
	<path class="st1" d="M460.5,539.9c1.6,1,2.2,2.8,2.5,4.4c0.8,4.5,3,8.4,5.4,12.1c3,4.6,4.7,9.7,6.5,14.8c2.3,6.5,5.5,12.5,9.9,17.8
		c0.7,0.8,1.1,1.8,1.6,2.8c0,0,0.1-0.1,0.1-0.1c-2.3-0.6-3.8-2.3-4.9-4.3c-1.1-2-2.5-3.6-4.3-4.9c-1.2-0.9-2.2-2.1-2.6-3.8
		c-0.5-1.8-1.3-3.6-2.1-5.4c-1-2.5-1.5-5.1-3.9-7c-1.3-1-1.8-3-2.6-4.5c-0.1-0.3-0.2-0.8-0.1-0.9c2.1-1.9,0.4-3.7,0.1-5.8
		c-1.1,0.2-2,0.4-2.9,0.5c-0.8-1.5-1.7-3.1-2.3-4.6c-0.4-1-0.9-2.2-0.7-3.2c0.4-2.2-0.5-3.7-2.3-4.7c-1.6-0.9-1.9-2.3-1.8-4.2
		c2.2,0.2,2.4,2.6,4.2,3.2C460.4,541.3,460.5,540.6,460.5,539.9C460.6,539.8,460.5,539.9,460.5,539.9z"/>
	<path class="st1" d="M486.4,591.8c1.8,0.3,2.4,2,3.1,3.3c1.5,2.6,3,5,5.8,6.5c1.7,0.9,2.8,2.9,4.1,4.3c-0.6,1.3-1.4,0.9-1.9,0.4
		c-0.8-0.8-1.3-1.8-2-2.6c-0.9-0.9-1.8-2.1-2.9-2.3c-3.1-0.7-4-3.4-5.7-5.3c-0.2-0.2-0.2-1,0-1.3
		C487.8,593.6,486.1,592.8,486.4,591.8C486.5,591.7,486.4,591.8,486.4,591.8z"/>
	<path class="st1" d="M536.2,602.7c0.4-0.8,0.4-1.8,1.4-2.4c3.1-2,6.2-3.9,9.9-4.5c0,0-0.1-0.1-0.1,0c-3.2,1.9-6.5,3.8-9.8,5.8
		C537,601.9,536.6,602.3,536.2,602.7C536.2,602.7,536.2,602.7,536.2,602.7z"/>
	<path class="st1" d="M636.3,38.9c0.2,0.9,0.3,1.5,0.4,2c-0.4,0.1-0.7,0.4-0.9,0.3c-1-0.6-1.9-1.3-2.9-2.1
		C633.9,39.1,634.9,39,636.3,38.9z"/>
	<path class="st1" d="M655.9,281.1c-0.5,0.6-0.8,1.6-1.8,1.1c-0.5-0.3-0.7-1.2-1-1.9C654.6,279.6,655.5,279.7,655.9,281.1
		L655.9,281.1z"/>
	<path class="st1" d="M670,794.1c-0.3-1.8-0.6-3.7-0.9-5.5C670.9,791.4,670.9,791.4,670,794.1C670,794.1,670,794.1,670,794.1z"/>
	<path class="st1" d="M851.7,83.6c-0.3-0.3-0.5-0.4-0.6-0.5c-0.6-1-0.5-2.1,0.3-2.4c0.2-0.1,0.6,0.1,0.8,0.2c0.7,0.7,0,1.4-0.1,2.1
		C852.1,83.2,851.9,83.3,851.7,83.6z"/>
	<path class="st1" d="M676.8,813.8c-0.3-1-0.6-1.9-0.9-2.9c0.9-0.7,1.3-0.2,1.4,0.4c0.2,0.8,0,1.6,0,2.4
		C677.1,813.8,677,813.8,676.8,813.8z"/>
	<path class="st1" d="M419.8,80.4c-1.8,0.7-2.5,0.5-2.7-0.7c0-0.2,0.4-0.6,0.5-0.6C418.2,79.3,418.7,79.7,419.8,80.4z"/>
	<path class="st1" d="M868.2,866.2c0.4,0.6,0.7,1.1,1,1.5c-0.2,0.1-0.5,0.4-0.7,0.3C867.3,867.7,867.6,867.1,868.2,866.2z"/>
	<path class="st1" d="M647.1,280.8c-0.4,0.2-0.8,0.5-1.1,0.4c-0.3-0.1-0.5-0.6-0.7-0.9c0.4-0.1,0.8-0.2,1.3-0.2
		C646.7,280.1,646.8,280.4,647.1,280.8z"/>
	<path class="st1" d="M938.7,173.6c0-0.7,0-1.4,0.1-2.1c0-0.1,0.5-0.3,0.8-0.2c0.2,0.1,0.6,0.4,0.6,0.6c-0.2,0.7-0.6,1.3-0.9,1.9
		C939,173.7,938.9,173.7,938.7,173.6z"/>
	<path class="st1" d="M655.9,281.2c1.2-0.2,2.4-0.3,4-0.6c-1.5,1.7-2.7,0.8-3.9,0.5C655.9,281.1,655.9,281.2,655.9,281.2z"/>
	<path class="st1" d="M531.9,604.4c1.1-1.3,2.6-1.7,4.3-1.6c0,0,0,0,0,0c-1.5,0.5-2.9,1-4.4,1.5L531.9,604.4z"/>
	<path class="st1" d="M275.5,249.6c-0.6,0.2-1,0.4-1.4,0.4c-0.4,0-0.7-0.4-1-0.7c-0.1-0.1,0.1-0.7,0.2-0.8c0.4-0.1,0.9-0.1,1.2,0.1
		C274.9,248.8,275.2,249.2,275.5,249.6z"/>
	<path class="st1" d="M1029.6,291.5c-0.1,0.2-0.2,0.4-0.3,0.6c-0.1-0.1-0.2-0.3-0.2-0.4c0.1-0.2,0.2-0.4,0.3-0.6
		C1029.4,291.2,1029.5,291.4,1029.6,291.5z"/>
	<path class="st1" d="M597.4,1243c-0.2,0.1-0.5,0.3-0.7,0.4c-0.1-0.3-0.3-0.7-0.4-1c0.3-0.1,0.6-0.2,0.8-0.1
		C597.3,1242.3,597.3,1242.7,597.4,1243z"/>
	<path class="st1" d="M898.3,1224.5c0.3-0.8,0.7-1.5,1.4-3c-0.2,2-0.2,2-1.5,2.9C898.2,1224.4,898.3,1224.5,898.3,1224.5z"/>
	<path class="st1" d="M505.8,613.7c0.9-0.3,1.8-0.7,2,0.7c0,0.3-0.1,0.8-0.1,0.8c-0.4,0-1,0.1-1.1-0.1c-0.3-0.4-0.4-1-0.6-1.6
		L505.8,613.7z"/>
	<path class="st1" d="M275.7,607.5c-0.3,0.2-0.7,0.4-1,0.6c-0.1-0.2-0.4-0.6-0.3-0.7c0.2-0.3,0.6-0.5,0.9-0.7
		C275.4,606.9,275.5,607.1,275.7,607.5z"/>
	<path class="st1" d="M748.5,330.5c-0.6,2-0.8,2.2-2.9,2c0,0,0.1,0.1,0.1,0.1c1-0.6,1.9-1.3,2.9-1.9
		C748.6,330.7,748.5,330.5,748.5,330.5z"/>
	<path class="st1" d="M975.6,696.5c-1.6-0.1-2.3-0.2-3.7-0.3c1-0.8,1.4-1.4,1.8-1.3C974.1,694.9,974.5,695.5,975.6,696.5z"/>
	<path class="st1" d="M757.6,459.8c0.5,0.9,1,1.8,1.6,2.8C757.6,462,757.6,462,757.6,459.8C757.6,459.7,757.6,459.8,757.6,459.8z"/>
	<path class="st1" d="M878.7,1245.5c0,0-0.1,0-0.1,0c0.3-0.4,0.5-0.8,0.8-1.3c0.2,0.5,0.5,0.9,0.7,1.4c0,0,0.1-0.1,0.1-0.1
		C879.6,1245.5,879.2,1245.5,878.7,1245.5z"/>
	<path class="st1" d="M741.2,550.7c0,1.2-0.5,2-1.9,1.7c-0.7-0.2-1.4-0.5-2.1-0.8c0,0,0,0,0,0C738.7,551.8,740.1,552,741.2,550.7
		L741.2,550.7z"/>
	<path class="st1" d="M1026.1,296.9c0.2-0.9,0.2-1.5,0.4-1.9c0.1-0.2,0.7-0.2,1.1-0.2c0,0.4,0.2,0.9,0,1.2
		C1027.4,296.3,1026.9,296.4,1026.1,296.9z"/>
	<path class="st1" d="M1028,500.8c-0.2,0.5-0.3,1.1-0.6,1.6c-0.1,0.1-0.8-0.2-1.2-0.3c0.1-0.3,0.2-0.7,0.4-0.8
		c0.4-0.2,0.9-0.3,1.3-0.4L1028,500.8z"/>
	<path class="st1" d="M633.3,36.5c-0.3,0-0.5,0-0.8,0c0,0,0-0.2,0-0.3c0.3,0,0.5,0,0.8,0C633.3,36.2,633.3,36.4,633.3,36.5z"/>
	<path class="st1" d="M851.6,77.5c-0.2-0.2-0.5-0.4-0.7-0.6c0.2-0.1,0.3-0.2,0.5-0.4c0.2,0.2,0.3,0.5,0.5,0.7
		C851.9,77.3,851.7,77.4,851.6,77.5z"/>
	<path class="st1" d="M648.1,571c0.1,0,0.2,0,0.2,0c0,0.1,0,0.2,0,0.4c-0.1,0-0.2,0-0.2,0C648.1,571.2,648.1,571.1,648.1,571z"/>
	<path class="st1" d="M429.6,95.9c-0.4-0.5-0.8-1-1.2-1.5c0.2-0.1,0.3-0.2,0.5-0.3c0.2,0.6,0.4,1.2,0.6,1.7
		C429.5,95.8,429.6,95.9,429.6,95.9z"/>
	<path class="st1" d="M531.8,604.3c-0.4,0.2-0.7,0.3-0.6,0.3c-0.1,0,0.3-0.1,0.7-0.2C531.9,604.4,531.8,604.3,531.8,604.3z"/>
	<path class="st1" d="M798.5,867.2c-0.6,0.5-1.3,0.5-1.3-0.2c-0.1-0.6,0.7-0.9,1.3-0.6c0,0-0.1-0.1-0.1-0.1c0,0.4,0,0.7,0,1.1
		L798.5,867.2z"/>
	<path class="st1" d="M348.1,738.1c-0.1,0.5-0.2,1-0.4,1.5c-0.4-0.1-0.7-0.3-1.1-0.4c0.3-0.4,0.7-0.8,1-1.3
		C347.8,738,347.9,738.1,348.1,738.1z"/>
	<path class="st1" d="M1010.1,304.4c0.6-0.3,1.2-0.7,1.8-1c0.1,0.1,0.1,0.2,0.2,0.4C1011.4,304,1010.7,304.2,1010.1,304.4
		C1010.1,304.4,1010.1,304.4,1010.1,304.4z"/>
	<path class="st1" d="M978.5,695.3c0,0.2,0.1,0.3,0,0.4c0,0.1-0.2,0.2-0.3,0.3c0-0.2-0.1-0.4-0.1-0.6
		C978.2,695.4,978.4,695.3,978.5,695.3z"/>
	<path class="st1" d="M512.7,617.4c0.3,0.1,0.6,0.2,0.8,0.4c0.1,0.1-0.2,0.6-0.3,0.6c-0.3,0-0.6-0.2-0.8-0.3
		C512.5,618,512.6,617.7,512.7,617.4z"/>
	<polygon class="st1" points="1031.1,499.3 1031.4,499.3 1031.3,499.7 	"/>
	<path class="st1" d="M956.6,687.1c0.3-0.1,0.5-0.2,0.8-0.2c0.1,0,0.2,0.3,0.3,0.5c-0.1,0-0.3,0.1-0.4,0.1c-0.2-0.2-0.4-0.4-0.6-0.5
		C956.7,686.9,956.6,687.1,956.6,687.1z"/>
	<path class="st1" d="M761.9,338.8c0,0.3,0,0.5,0.1,0.8c0,0,0.2,0,0.4,0c0-0.3,0-0.5-0.1-0.7c0-0.1-0.2-0.1-0.4-0.2
		c0,0.1-0.1,0.2-0.1,0.3C761.8,338.9,761.9,338.8,761.9,338.8z"/>
	<path class="st1" d="M735.7,313.1c-0.1-0.4-0.2-0.7-0.3-1.1c0,0,0,0,0.1,0C735.5,312.4,735.6,312.7,735.7,313.1
		C735.7,313.1,735.7,313.1,735.7,313.1z"/>
	<path class="st1" d="M273.8,412.6c0.3-0.1,0.5-0.4,0.8-0.3c0.2,0,0.3,0.4,0.4,0.6c-0.3,0.1-0.5,0.3-0.8,0.3
		C274.1,413.1,274,412.8,273.8,412.6z"/>
	<path class="st1" d="M505.9,613.6c-0.5,0.3-1,0.5-1.3-0.3c0,0,0.2-0.3,0.2-0.3c0.3,0.2,0.7,0.4,1,0.6
		C505.8,613.7,505.9,613.6,505.9,613.6z"/>
	<path class="st1" d="M1017.3,299.9c-0.2,0.2-0.3,0.6-0.5,0.7c-0.1,0.1-0.4-0.2-0.7-0.4c0.1-0.1,0.2-0.3,0.4-0.3
		c0.3,0,0.6,0.1,0.9,0.1C1017.4,300,1017.3,299.9,1017.3,299.9z"/>
	<polygon class="st1" points="1026.3,292.4 1026.6,292.3 1026.5,292.7 	"/>
	<polygon class="st1" points="270.8,415.1 271.1,415.1 271,415.5 	"/>
	<path class="st1" d="M801.3,891.9c0-0.1,0.1-0.3,0.1-0.3c0.1,0,0.2,0.1,0.3,0.1c0,0.1-0.1,0.3-0.1,0.3
		C801.5,892,801.4,891.9,801.3,891.9z"/>
	<polygon class="st1" points="413.9,81 414.2,81 414,81.4 	"/>
	<path class="st1" d="M741.2,550.7c0.3,0.1,0.5,0.2,0.8,0.2c0.1,0,0.3,0,0.5,0c-0.2,0.1-0.4,0.3-0.5,0.3
		C741.6,551.1,741.4,550.9,741.2,550.7C741.2,550.7,741.2,550.7,741.2,550.7z"/>
	<path class="st1" d="M1028,500.9c0-0.2,0-0.5,0-0.7c-0.1,0.1-0.2,0.1-0.2,0.2c0,0.1,0.1,0.2,0.2,0.3
		C1028,500.8,1028,500.9,1028,500.9z"/>
</g>
</svg>
