<?xml version="1.0" encoding="utf-8"?>
<!-- Generator: Adobe Illustrator 27.3.0, SVG Export Plug-In . SVG Version: 6.00 Build 0)  -->
<svg version="1.1" id="Layer_1" xmlns="http://www.w3.org/2000/svg" xmlns:xlink="http://www.w3.org/1999/xlink" x="0px" y="0px"
	 viewBox="0 0 1300 1300" style="enable-background:new 0 0 1300 1300;" xml:space="preserve">
<style type="text/css">
	.st0{opacity:0.5;fill:#01031C;enable-background:new    ;}
	.st1{fill:#02021D;}
</style>
<g id="Relleno">
	<path class="st0" d="M413.4,987.1c0,0,5.7-43.9,5.1-58.6c-0.6-14.7-38.6-165-38.6-165s-33.6-78.6-33.6-93.9s6.5-31.5,22.9-20
		c6.9,4.8,16.5,11.7,23,19.9c9.1,11.3,14.1,23.7,14.1,23.7l-17.8-77.4L375.3,540c0,0,0-44.4,6.9-54.1s18-10.1,18-10.1
		s-9.5-34.2,11.2-48.7c24.9-17.3,50.6,16,50.6,16s11.5-15.6,25.1-8.7c26.6,13.3,48.2,74.1,48.2,74.1s30.2,8.7,39.9,32.7
		c3.2,7.9,5.3,25.2,10.5,44.9c10.6,40,25,89.6,25,89.6s-7-61.1,0.2-95.2c13.1-62.2,37.2-92.9,43.8-97.2c6.6-4.3,16.7,7,18,12
		c0.4,1.6-0.7-2.3,0.2-9.9c1-9.4,4-23.9,6.6-35c1.7-7.4,5.8-13.2,7.8-16.5c7.4-11.8,17.9-29.5,34.6-26.1
		c7.4,1.5,14.9,10.1,14.9,10.1s3-9.1,9.2-17.5c7-9.6,17.8-18.6,26.3-17.8c2.7,0.2,6.3-0.8,9.1,0.3c13.9,5.5,24.1,30.4,24.4,35.1
		c0.4,5.9-2.8,20.3-2.8,20.3s14-11.4,22.5-8.9c13.6,4,16.2,18.7,16.2,18.7s2.4,26.2,1.2,44.5c-1.2,18.2-14.1,104.9-14.1,117.2
		s4.2,81.1,4.2,81.1s14.4-22,38.5-37c10.1-6.3,22.9-8.3,35.4-11.8c28.7-8.1,50.5,3.5,52.8,27.1c0.5,5.6-2.1,13.8-8.5,22.2
		c-10.6,14-29.4,29.7-45,44.4c-11.5,10.7-25.6,24.5-34,38.3c-1,1.6,0.6,0.8-0.3,2.5c-1.1,2.1-4.5,6.6-5.2,8.7
		c-6.5,18.8-4.5,45.3-17.9,79.5c-3.5,9-10.6,21.5-15.9,27.7c-20.7,23.8-15.2,17.4-15.2,17.4l0.4,20.9l9.2,44c0,0-98.8-60-170.3-51.8
		l-27.2-13.2c0,0-2.8,7.3-8.1,21.8c-5.2,14.5-23.3,75.8-83.8,87.7C477.3,1031.3,413.3,987.1,413.4,987.1L413.4,987.1z"/>
</g>
<g>
	<g>
		<path class="st1" d="M412.9,894.3c-1-3.4-1-6.9-1.4-10.4c-0.2-1.5-0.5-2.7-1.2-4c-0.8-1.3-1.2-2.9-1.7-4.4
			c-0.3-0.8-0.1-1.5,0.4-2.2c1-1.6,0.9-1.6,0.8-4.6c-0.9,0-1.8,0-2.5,0c-0.3-0.2-0.5-0.2-0.5-0.3c-0.4-2.2-0.8-4.4-1.2-6.6
			c0-0.1,0-0.3,0.1-0.5c0.9-2.2,0-3.7-1.7-4.9c-1.2-0.9-1.2-2-0.8-3.3c2,0,1.9,2.6,3.7,2.7c-0.6-2.3-0.6-2.3-2.3-4.3
			c-0.8-1-1.8-1.7-1.1-3.3c0.3-0.5-0.2-1.5-0.5-2.2c-1.2-2.3-2.1-4.4-1.9-7.2c0.2-2.5-1-5.2-1.6-7.9c0.3-0.3,0.9-0.7,1.8-1.5
			c-2.1-1.3-2.6-3.1-3.5-4.9c-2.8-5.9-3.6-12.5-6.3-18.4c0.5-0.4,0.8-0.8,1.4-1.3c-0.7-1.6-1.4-3.4-2.3-5c-1.3-2.2-1.9-4.5-1.7-6.9
			c0.2-2.4-0.8-4.3-1.7-6.3c-0.5-1.2-1.4-2.3-1.6-3.5c-0.9-5.9-4-11-6-16.5c-0.7-1.9-1.4-3.9-1.8-5.8c-0.4-1.6-0.6-3.1-1.6-4.4
			c-0.4-0.6-0.5-1.4-0.7-2.2c-0.9-5.4-2.6-10.4-4.8-15.4c-1.2-2.7-2.8-5.4-2.7-8.6c0-1.7-0.5-3.5-1.4-5c-2.8-4.7-4-10.1-6.9-14.7
			c-0.5-0.8-0.8-1.7-1.1-2.6c-0.9-2.7-1.1-5.7-3.1-7.9c0-3-2.2-5.2-2.8-8c-0.6-2.7-1.5-5.1-2.9-7.5c-0.4-0.7-0.7-1.5-0.8-2.2
			c-0.8-5.8-3.1-11.4-1.4-17.3c0.1-0.4,0.2-1.1-0.1-1.4c-1.4-1.8-0.6-3.7-0.5-5.6c0.1-2,1-3.7,2.5-5c1.1-1,2.2-1.9,3.3-2.8
			c1.5-1.3,3.3-2.2,5.2-2c2.3,0.2,4.4-0.4,6.5-1.1c1.7-0.6,3.1-0.4,4.5,0.7c1.9,1.4,3.9,2.8,5.9,4.1c0.9,0.6,1.9,1.3,2.9,1.7
			c5.1,2.2,9.1,5.9,13.2,9.4c1.6,1.4,2.8,3.4,4.1,5.2c1.9,2.6,3.7,5.2,5.4,7.9c1,1.6,1.9,3.3,2.8,5.1c1.2-0.4,0.5-1.3,0.5-1.9
			c-0.2-1.6-0.7-3.1-0.9-4.7c-0.3-1.9-0.5-3.8-0.8-6c-1.9-1.1-2.6-3.3-3-5.8c-1.1-8.2-2.7-16.3-5.1-24.3c-1.1-3.8-2.5-7.5-3.9-11.2
			c-0.8-2-1.3-3.8-0.9-6c0.3-1.2,0.2-2.6,0-3.8c-0.6-3.8-1.4-7.5-2.1-11.2c-0.2-1.2-0.4-2.5-0.6-3.8c-0.1-0.5,0.1-1.2-0.1-1.4
			c-2.4-2.3-1.7-5.3-2.1-8.1c-0.7-5-2-10-2.4-15.1c-0.4-5.6-1.8-10.9-2.2-16.5c-0.3-4.5-0.2-9.2-2-13.6c-0.7-1.9-0.9-4.1-0.8-6.1
			c0.3-5.4,0-10.8-0.3-16.2c-0.1-1.3-0.2-2.6,0.1-3.8c0.6-1.9,0.7-3.6-0.1-5.6c-0.4-0.9,0-2.2,0.1-3.3c1.2-0.3,1.7,0.3,1.5,1.2
			c-0.2,1.3-0.6,2.4,0.1,3.7c1.3,2.5,1.2,2.6-0.5,5.7c-0.2,0.4-0.5,1-0.3,1.3c1.4,2.7-0.1,6.1,2.3,8.6c0.4,0.4,0.2,1.5,0.1,2.3
			c-0.2,2.8-0.6,5.7,1.3,8.2c0.3,0.5,0.3,1.2,0.4,1.9c-0.7,1.1-2.3,1.8-2,3.5c0.6,1.2,1.7,0.2,2.5,0.6c0.5,2,1.3,3.9,0.2,6
			c-0.4,0.7,0.3,1.4,1.1,1.9c0.9,0.6,1.2,1.5,0.2,2.7c-0.9-0.7-1.8-1.5-2.8-2.3c-0.1,0.4-0.3,0.8-0.1,1c0.4,0.7,0.9,1.3,1.5,1.9
			c0.7,0.7,1.3,1.4,0.7,2.5c-0.1,0.2-0.2,0.7-0.1,0.9c2.6,3.1,0.4,6.9,1.5,10.2c0.1,0.3-0.7,0.9-1.2,1.4c1.9,2.1,2,4.9,2.7,7.5
			c0.6,2.3,0.7,4.7,1.5,7c0.4,1.2-0.6,1.7-0.8,2.5c1.7,2.6,3.2,5.2,2.4,8.5c-0.2,0.7,0.1,1.6,0.5,2.3c0.8,1.9,1.4,3.9,1,6
			c-0.1,0.7,0.3,1.5,0.5,2.3c1.7,5.5,3.1,11,4.2,16.6c0.5,2.8,1.7,5.5,2.7,8.1c0.8,1.9,1.4,3.8,1.7,5.9c0.7,4.2,1.9,8.3,2.9,12.5
			c0.2,0.8,0.7,1.5,0.6,2.3c-0.2,4.4,1.6,8.4,2.1,12.6c0.1,1.1,0.7,2.1,1.1,3.1c0.3,0.7,0.9,1.4,0.9,2.2c0,2.7,1.1,5.2,1.3,7.9
			c0.1,2.2,0,4.4,0.9,6.5c0.2,0.4,0.4,1,0.3,1.4c-0.6,2.6-0.3,4.9,1.1,7.3c0.5,0.8-0.4,2.4,0,3.2c2,3.7,1.8,8,3.4,11.9
			c1.7,3.9,2.7,8.1,3.3,12.4c0.3,2,0.9,4,1.2,6.1c0.7,4.7,1.3,9.5,1.9,14.2c0.2,1.4-0.1,2.8-2.1,3.5c-1.1-2.2-1.4-4.6-1.6-6.9
			c-0.5-6.1-2.2-11.9-3.8-17.8c-1.6-5.8-3.2-11.7-3.8-17.7c-0.2-2.3-1.1-4.7-2-6.9c-4.1-9.7-7.8-19.6-14.3-28.1
			c-2-2.7-4.3-5.1-6.8-7.3c-3.3-3-7-5.5-10.6-8.2c-2.8-2.1-5.5-4.3-8.8-6.8c-1,0.1-2.6,0-4.1,0.3c-2.7,0.5-5.3,1.2-7.9,1.9
			c-1.8,0.5-2.9,1.3-3.5,3.4c-1.2,3.9-1.4,7.7-0.9,11.7c0.8,6.4,1.8,12.7,3.8,18.8c0.6,1.8,0.7,3.7,1.1,6.1c2.5,1.7,3.8,4.7,5.1,7.9
			c2.4,5.9,4.6,11.9,7.1,17.7c1.9,4.2,3.7,8.4,4.6,13c0.7,3.7,2.6,7.2,3.7,10.8c1.7,5.8,4.7,11.1,6,17c0.2,0.7,0.6,1.5,0.5,2.2
			c-0.3,3.4,0.6,6.6,2.1,9.6c0.3,0.7,0.6,1.5,0.8,2.3c0.9,4.2,2.8,8.1,4.3,12.1c0.5,1.3,1,2.7,1.1,4.1c0.1,2,0.6,3.7,2.1,5.2
			c0.5,0.5,0.7,1.4,0.8,2.2c0.9,8.8,3.1,17.3,6,25.6c2.3,6.8,3.6,13.8,5.6,20.7c1.4,4.9,1.5,10.1,3.5,14.8c0.2,0.4,0.3,0.9,0.3,1.4
			c-0.2,3.8,1,7.3,2.3,10.7c1.8,4.5,2.4,9.2,2.8,14c0.6,5.7,1.5,11.4,2.3,17.1c0.2,1.6,0.4,3.2,0.6,4.8c0,0,0.1-0.1,0.1-0.1
			c-0.4-0.2-1-0.3-1.1-0.5c-0.4-1.5-0.9-3-1-4.5C414.9,898,414.4,896,412.9,894.3L412.9,894.3z"/>
		<path class="st1" d="M517.5,523.2c-0.5-1.6-1.3-2.8,1-3.4c1.6-0.5,0.3-3.1,2.2-3.8c0.3-2.2,2.1-3.5,3.1-5.2
			c1.2-0.3,2.3-0.5,3.4-0.9c3-1,6-0.9,9-0.4c0.9,0.1,1.9,0.5,2.8,0.5c1.7,0.1,3.8-0.6,5.1,0.1c3.3,1.8,7.2,2.6,10.1,5.3
			c3.3,3,6.8,5.8,10.1,8.9c3.7,3.5,6.7,7.7,9.1,12.3c1.3,2.4,2.5,4.8,3.8,7.1c3.1,5.4,3.7,11.5,5.4,17.3c1.2,4,2.7,7.9,2.6,12.1
			c0,0.6,0.5,1.2,0.6,1.8c1.7,6,3.4,12,5.1,18c0.3,1.1,0.7,2.1,1.1,3.1c0.5,1.7,1,3.3,1.5,5c0.3,1.1,0.6,2.1,0.8,3.2
			c2.8,10.6,5.6,21.3,8.3,31.9c0.5,2,0.6,4.1,0.9,6.5c2.3,2.3,3.5,5.5,4.1,9c0.8,4.1,1.9,8.1,2.8,12.1c0.2,0.8,0.3,1.5,0.4,2.3
			c0.2,2.7,0.9,5.3,1.7,7.9c1.6,5.5,2.6,11.1,3.9,16.7c0.3,1.2,0.6,2.5,0.9,3.7c0.9,3.6,1.8,7.1,2.5,10.7c0.3,1.5,0.5,3.2,0.3,4.8
			c-0.3,2.4,0.4,4.3,1.2,6.5c1.2,2.9,2.9,5.6,3,9c0,1,0.5,2,0.2,3.2c-1.1,3.6-0.5,7.2,0,10.9c0.1,0.9,0.4,1.9,0.4,2.8
			c0.1,5.8,1.2,11.4,2,17.1c0.3,1.7,0.1,3.5,0.1,5.3c0,1.6,0.1,3.1,1.1,4.5c0.6,0.8,0.7,2.1,0.8,3.1c0.2,1.4,0.1,2.9,0.1,4.3
			c0.1,7.2,1.1,14.3,1.5,21.5c0.3,5.3,1.3,10.4,1.5,15.7c0.1,2.8,1,5.6,1.5,8.4c0.2,0.9,0.5,1.9,0.5,2.8c-0.2,4,1,7.8,0.7,11.8
			c-0.2,2.2-0.1,4.5,0.3,6.7c0.6,3,0.7,6,0.2,9c-0.4,2.4,0,4.7,0.3,7.1c0.6,5.5,0.9,11.1,0.1,16.7c-1.3,10-2.2,20-2,30.1
			c0.1,2.6-0.6,5-1.6,7.4c-1,2.5-2,4.9-2.1,7.7c-0.1,2.2-1.5,4.4-2.3,6.5c-1.5-0.1-1.6-1-1.3-1.7c0.5-1.2,1.4-2.2,1.8-3.4
			c0.5-1.3,1-2.9,0.7-4.1c-0.7-3.1,1-5.6,1.3-8.4c0-0.2,0.4-0.5,0.6-0.6c1.9-0.8,2-2.5,1.6-4c-0.6-2.4-0.5-4.7-0.3-7.1
			c0.2-2.2,0-4.5-0.6-6.6c-0.5-1.6-0.4-3.1-0.2-4.7c0.5-3.3,0.9-6.6,1.3-10c0.1-0.5,0.1-1-0.1-1.4c-1.4-2.7-0.9-5.6-1.4-8.4
			c0.8-1,1.9-1.8,2.3-2.9c0.5-1.1,0.4-2.5,0.6-3.9c-1-0.3-1.8-0.6-2.9-1c0.6-3.2-0.8-6.5,0.8-9.8c0.6-1.3,0.3-3.1-0.9-4.4
			c-1.2-1.2-1.3-2.8-0.7-4.5c1.9,0.7,1.6,2.8,3,3.8c1.1-0.3,0.7-1.3,0.4-1.8c-0.7-1.6-1.7-3.1-2.4-4.7c-0.3-0.7-0.5-1.7-0.2-2.2
			c1-1.4,0.5-2.7,0.1-4.1c-0.8-2.6-1.1-5.1-0.8-8c0.3-3.2-0.7-6.5-1.1-9.9c0.4-0.3,1-0.8,1.5-1.3c-0.1-0.3,0-0.8-0.2-0.9
			c-1.3-0.9-1.7-2-1.9-3.5c-0.6-4.9-1.6-9.7-1.7-14.7c0-3.5-0.9-6.9-1.4-10.5c0.5-0.8,1.6-1.3,1.1-2.7c-0.6-1.6-0.9-3.4-1.5-5
			c-1.1-2.6-1.3-5.4-0.9-8c0.5-2.8,0.1-5.4-0.7-7.9c-0.9-3.1-1.2-6.3-1-9.5c0.1-1.6-0.2-3.1-0.6-4.7c-0.7-2.8-1-5.6-1.4-8.5
			c-0.4-2.8-0.8-5.6-1.1-8.4c-0.3-2.7-0.4-5.4-2.3-7.6c-0.5-0.6-0.2-1.8-0.3-2.8c-0.8-4.1-1.4-8.1-1.3-12.3c0.1-1.6-0.3-3.1-0.9-4.6
			c-1.5-3.8-3.3-7.6-3.1-11.9c-1.1-2.6-0.6-5.6-2.2-8.1c-1-1.5-0.9-3.7-1.4-5.5c-1-3.9-2.1-7.7-3-11.6c-0.3-1.2-0.5-2.5-0.7-3.7
			c-0.5-3-0.3-6.1-2-8.8c-0.4-0.6-0.3-1.5-0.4-2.3c-0.1-0.6,0.2-1.4,0-1.9c-1.9-3.9-1.9-8.4-3.3-12.4c-0.7-1.9-2.2-3.5-2.4-5.7
			c-0.1-1.7-0.6-3.4-0.8-5.2c-0.1-0.8,0-1.7-0.4-2.3c-2.2-3.5-2.2-7.6-2.6-11.5c-0.1-0.6,0-1.4-0.3-1.9c-2.6-3.9-3.2-8.2-3.2-12.7
			c0-1.2-0.6-2.5-1.1-3.6c-1.4-2.6-2.4-5.1-2.1-8.2c0.2-1.4-0.9-3-1.4-4.5c-0.4-1-1.2-2-1.3-3.1c-1.2-9.1-5.3-17.4-7.6-26.2
			c-0.8-3.2-3.3-5.9-3.6-9.3c-1.3-1.5-2.1-3.3-3.8-4.6c-2.4-1.9-4.1-4.8-6.2-7.2c-1-1.2-2.2-2.3-3.4-3.3c-1-1-2.5-1.7-3.2-2.9
			c-1.5-2.5-4.1-3.4-6.1-5.1c-1.1-0.9-2.4-1.6-3.6-2.2c-2.5-1.3-5.1-2.4-8.1-2.5c-1.4,0-2.8,0.2-4.2-0.5c-1.9-0.9-3.5-0.2-5.3,1
			c-2,1.4-3.4,3.2-5.1,4.8C521.2,519.9,519.6,521.4,517.5,523.2z"/>
		<path class="st1" d="M885.6,759.6c-0.1-2.8,1.6-5.1,2.3-7.7c0.1-0.5,0.9-1,1.4-1.1c1.9-0.2,2.6-1.7,3.4-3c1.9-3.2,4.4-5.6,7.7-7.6
			c3.5-2.1,6.4-5.4,9.6-8.3c0.6,0.3,1.3,0.6,2,0.9c0.4-0.4,0.8-0.7,1-1.1c0.9-2.8,2.7-5,4.9-7c3.8-3.5,7.5-7,11.1-10.6
			c2.7-2.7,5.2-5.6,7.8-8.4c0.3-0.3,0.8-0.8,1.1-0.8c2.1,0.6,2.7-1.1,3.6-2.3c1-1.3,2-2.5,2.8-3.9c2.4-4.3,6.2-7.3,9.9-10.4
			c1.4-3.9,2.8-7.9,4.3-11.9c1.4-3.7,2.1-7.3,0.2-11.1c-1.3-2.5-2-5.4-3-8.1c-1-3-2.9-5.2-5.9-6.5c-1.3-0.5-2.3-1.7-3.4-2.5
			c-0.8-0.6-1.5-1.5-2.3-1.6c-3.7-0.4-6.7-2.9-10.2-3.6c-5.4-1.1-10.8-2.3-16.5-0.4c-4.6,1.6-9.2,3.8-14.2,3.9
			c-3,1.9-6.8,1.1-9.8,3.2c-1.7,1.2-4.2,1.3-6.4,1.9c-4.5,1.3-8.4,3.7-12.3,6.3c-2.6,1.8-5.5,3.2-8.3,4.8c-1,0.6-2,1-2.8,1.8
			c-1.9,1.9-3.6,4.1-6.4,4.9c-0.5,0.2-0.8,0.9-1.3,1.3c-1.8,1.8-3.8,3.4-5.5,5.3c-2.3,2.5-5.2,4.6-6.7,7.9c-0.6,1.4-1.9,2.6-2.5,4
			c-1.2,3-4.3,4.6-5.1,8c-0.7,3-2.2,5.9-3.5,8.8c-0.5,1.2-1.3,2.2-2,3.3c-0.6,1.1-1.5,2-1.2,3.5c0.1,0.6-0.5,1.4-1.1,2
			c-3.2,3.2-6.7,5.8-11.3,6.9c-1.9,0.5-3.7,1.7-5.5,2.8c-1.5,0.9-2.8,2.1-4.2,3.2c-1.2,0.9-2.3,1.6-3.9,1.6c-0.9,0-1.8,0.5-2.7,0.9
			c-3.9,1.7-7.6,3.9-11.7,5.2c-1.2,0.4-2.3,1.2-3.5,1.4c-3.9,0.7-7.1,2.7-10.2,5.1c-2.2,1.6-4.5,3-6.8,4.5c-3,2.1-6,4.2-8.9,6.4
			c-1.5,1.1-3.3,2-4.8,3c-5.2,3.4-10.5,6.4-14.1,11.9c-3.2,4.9-7.3,9.3-10.2,14.5c-2.5,4.4-5.1,8.8-7.6,13.3
			c-0.9,1.8-2.2,3.1-4.1,4.3c-0.2-2.5,0.9-4.3,1.7-6.1c4.2-9.7,10.2-18.4,16.3-27c3.3-4.6,7.3-8.5,12.1-11.4
			c1.4-0.8,2.5-1.9,3.8-2.9c1-0.8,2-1.5,3-2.2c0.5-0.4,1.2-0.5,1.6-1c2.9-3.4,6.9-5.1,10.6-7.3c2.7-1.6,5.5-3.2,8.2-4.9
			c3.6-2.3,7.6-3.3,11.6-4.4c1.5-0.4,2.9-1,4.4-1.7c2.5-1.4,5.3-2.3,7.9-3.4c1.7-0.8,3.4-1.7,5.1-2.6c1.1-0.6,2.1-1.6,3.2-2
			c4.9-1.7,8.8-5.1,13.3-7.4c3.4-1.8,5.8-4.9,6.6-8.5c0.9-4.3,2.5-8.2,4.6-12c1.8-3.4,3.8-6.7,5.8-9.9c2.9-4.5,6.8-8,11.2-10.9
			c0.9-0.6,1.3-1.2,1.7-2.2c1-2.2,2.3-4.3,4.2-5.7c6-4.5,11.9-9.2,18.7-12.6c9.9-5,20.3-8.5,31.1-10.7c0.6-0.1,1.3-0.2,1.8-0.5
			c4.4-2.1,9.2-2.4,13.9-3.2c3.6-0.6,7.3-0.4,10.9,0.6c2.9,0.9,5.9,1.3,8.9,1.9c3,0.6,6,1.1,8,3.9c3.8,1.2,5.1,5.1,7.9,7.3
			c0.6,0.4,1,1.4,1.1,2.1c0.4,2.6,1.8,4.7,2.6,7.1c2.2,6.4,2.7,12.7,0.1,19.1c-1.7,4.3-3.4,8.6-6.6,12.1c-0.2,0.2-0.5,0.5-0.6,0.8
			c-1.4,5.4-6.2,7.9-9.7,11.5c-5.2,5.4-10.8,10.4-16.3,15.6c-0.5,0.4-0.8,1-1.3,1.4c-4.1,3.5-8.5,6.8-11.7,11.2
			c-2.1,0.9-3.5,2.7-5.1,4.2c-1.9,1.7-3.8,3.4-5.7,5.1c-1.5,1.4-3.1,2.8-4.6,4.2c-1.2,1.2-3,2-3.3,3.9c-0.1,0.4-0.6,0.8-0.9,1
			c-3.3,2.3-6,5.3-8.5,8.4C886.2,759.4,885.8,759.4,885.6,759.6L885.6,759.6z"/>
		<path class="st1" d="M1107.6,957.9c-0.1-0.3-0.2-0.7-0.4-0.8c-3.9-1.3-6.7-4.8-11-5.2c-0.1,0-0.2-0.2-0.4-0.5
			c0.5-0.5,1-1.1,1.6-1.9c-2.1-1-3.7,0.6-5.8,0.2c-0.7-0.8-1.4-2.1-2.6-2.8c-1.1-0.7-2.7-0.7-4.5-1.2c-0.3-0.3-0.9-1-1.6-1.7
			c-0.3-0.3-0.8-0.7-1.2-0.7c-4.3-0.1-7.9-1.8-11-4.5c-0.6,0.4-0.9,0.7-1.4,1c-0.5-1.1-0.8-2.7-1.6-3.1c-2-0.9-3.6-2.6-5.9-2.7
			c-0.6,0-1.3-0.1-1.9-0.1c-1.3-0.1-2.5-0.5-2.9-2c-0.1-0.4-3.2-2.2-3.7-2.3c-0.9-0.3-1.8-0.6-2.6-1c-2-1-3.9-2-6.4-3.2
			c-0.3-0.5-1-1.6-1.6-2.6c-0.9-0.7-2.5,0.3-2.9-1.2c-0.4-1.4-1.9-1-2.6-1.8c-1.2-1.4-2.6-2.2-4.6-2.2c-0.8,0-2.1-0.6-2.4-1.2
			c-0.7-1.3-1.2-2.5-3-1.9c-0.8-1.1-2.3-1.8-2.3-3.5c0-0.4-0.3-0.8-0.5-1.5c-0.6,0.5-1,0.9-1.4,1.3c-2.9-0.3-3.9-2.4-4.2-4.7
			c-1.6-1.1-2.1,1.2-3.7,0.5c-1.3-0.7-1-1.9-1.7-2.8c-0.5-0.1-1.2-0.3-1.7-0.2c-1,0.2-1.6,0.1-2.4-0.7c-1.6-1.5-3.5-2.4-5.8-2.8
			c-2.8-0.5-5.4-1.8-8-3.1c-0.8-0.4-1.4-1.5-2.2-2.2c-1.3-1-2.4-2-4.1-2.3c-0.7-0.1-1.5-0.5-2.1-1c-2-1.6-4-3.2-6.4-4.2
			c-0.9-0.4-1.6-1.5-2.3-2.4c-0.3-0.5-0.4-1.2-0.4-1.8c0-1.3-0.1-2.6,1.2-3.6c2.5,0.9,5.4,1.2,7.5,3.4c0.7,0.8,1.8,1.3,2.9,1.7
			c3.9,1.7,7.4,4.2,11.6,5.3c0.9,0.2,1.7,0.9,2.5,1.4c1.8,1.1,3.5,2.2,5.2,3.3c0.8,0.5,1.7,1,2.2,1.8c0.7,1,1.4,1.7,2.6,1.9
			c2.3,0.3,4.2,1.6,6,2.8c0.9,0.6,1.8,1.4,3,0.9c0.2-0.1,0.7,0,0.9,0.2c2,2.2,4.9,2.7,7.3,4.1c2.4,1.3,4.5,3,6.7,4.7
			c1.2,1,2.2,2.3,3.3,3.5c1-0.4,2.2-0.8,3.6-1.4c2.7,2.1,5.4,4.3,8.2,6.3c1.5,1.1,3.3,1.9,5,2.6c1.5,0.6,2.7,1.4,4,2.4
			c1.5,1.3,3.4,2.2,5.3,2.9c1.3,0.5,2.8,0.6,3.8,1.9c0.7,1,1.8,0.6,2.6,0.7c2.5,0.2,4.2,0.9,4.6,3.8c0.1,1.1,1.2,2.4,2.2,2.9
			c2.3,1.3,4.8,2.2,7.3,3.1c1.9,0.7,3.9,1.2,5.1,3c1.1-0.5,2-0.9,2.6-1.2c4.2,3.1,8.2,6.2,12.3,9.2c3.2,0.8,5.6,3.3,9.1,3.7
			c2.2,0.2,4.7,0.3,6.5,2.3c0.3,0.3,0.8,0.6,1.3,0.6c2.5,0,4.1,1.6,5.4,3.1c2,0,3.8-0.2,5.4,0.1c1.4,0.2,2.8,0.7,3.9,1.6
			c3.9,3.3,8.1,6,13.4,6.7c1.2,0.2,1.7,1.1,2.3,2.2c0.9,1.9,1.1,1.9,4,0.9c1,0.7,2.1,1.4,3.3,2.2c-0.8,0.7-1.5,1.2-2.3,1.8
			c-0.9-0.5-1.8-1.4-2.7-1.3c-0.9,0.1-1.8,1-2.8,1.7c-1.1-0.6-2.4-1.3-3.6-2c0.6-0.8,1.3-1.4,1.7-2.1c0.1-0.2-0.3-1.1-0.5-1.1
			c-2,0-3.9-0.1-5.7-1c-0.4-0.2-1.2,0.3-1.7,0.6c-0.6,0.3-1.1,0.7-1.8,1.2c-1.6-1.2-3.3-2.4-5.1-3.7c-1.7,0.4-3.4,2.5-5.8,0.5
			c0.5-1.4,2.5-3.1,0-4.9c-1.8,0.9-1.6,3.2-2.8,4.6c-0.8-0.2-1.5-0.6-2.3-0.7c-1.8-0.4-1.4-1.8-1.3-3.2c-1.3-0.3-2.6-0.1-2.9,1.4
			c-0.1,0.8-0.2,1.3-0.9,1.2c-0.5-0.1-1-0.6-1.2-1.1c-0.2-0.4,0-0.9,0-1.3c1.8-1.2,3.4-2.4,5.5-3.9c-3.2-1.3-4.1,2-6.3,2.1
			c-0.2-0.4-0.4-0.8-0.7-1.5c-0.8,0.2-1.6,0.5-2.5,0.8c-0.8,0.2-1.6,0.2-2.1-0.6c-0.9-1.7-2.5-2.1-4.3-2.3c-0.9-0.1-1.6-0.8-2.4-1.2
			c0.7-0.1,1.5-0.1,2.1-0.4c0.3-0.2,0.3-1,0.4-1.6c-0.2-0.1-0.4-0.2-0.6-0.3C1108.8,956.4,1108.2,957.2,1107.6,957.9z M1091.6,945
			c0-0.1,0.1-0.3,0.1-0.4c0,0-0.2-0.1-0.3-0.1c0,0.1-0.1,0.3-0.1,0.4C1091.3,944.9,1091.5,945,1091.6,945z"/>
		<path class="st1" d="M1194.1,817.7c-0.2-0.5-0.3-1.3-0.8-1.6c-1.3-0.9-2.8-1.6-4.2-2.3c-1.6,0.8-2.8,2.4-4.8,1.8
			c-1.2-0.8-0.2-1.7-0.1-2.5c0.1-1.2-0.1-2.2-1.8-2.5c-0.6,1.6-1.1,3.3-1.7,4.9c-0.8-0.2-1.6-0.3-2.4-0.6c-0.5-0.2-1.3-0.7-1.4-1.1
			c-0.1-0.9,0-1.7-1.1-1.5c-1.1,0.1-1.7,0.8-1.6,2c0,0.3-0.1,0.8-0.2,0.8c-0.4,0.1-1,0.2-1.3-0.1c-0.7-0.7-0.8-1.9-0.2-2.6
			c0.9-0.9,1.9-1.7,2.8-2.6c0.4-0.4,0.6-1,1.1-1.9c-2.9,0.4-3.6,2.8-5.3,3.7c-0.4-0.5-0.8-1-1.2-1.5c-0.9,0.5-1.9,1-2.9,1.6
			c-1.9-0.9-3.5-2.9-6.2-1.8c0.3-1.4,0.4-2.4,0.7-3.7c-3,1.9-5.7,1.8-8.6,0.1c-1.5-0.9-3.5-0.9-5.4-1.4c0.1-0.5,0.3-1.3,0.4-2
			c-2-1-3.2,1.3-5.4,1.2c-0.7-0.6-1.7-1.5-2.9-2.6c-0.1,0-0.4-0.1-0.7-0.1c-1.9,0.3-3.8,0.8-5.3-1.1c-0.6-0.7-1.4-0.2-2.2-0.2
			c-3.1-0.2-6.3,0.1-9.1-1.9c-0.3-0.2-0.9-0.3-1.3-0.3c-0.4,0-0.7,1.3-1.3,0.3c-1.4-2.3-3.9-2.6-6-3.5c-0.9-0.4-2.1,0.1-3.2,0.1
			c-1.4,0-3,0.4-3.5-1.6c-1.2-0.4-2.2-1.4-3.7-1.4c-0.7,0-1.6,0-2.2-0.3c-2-1.1-4.1-1.6-6.2-1.5c-1.9-1.2-2.5-3.9-5.3-3
			c-0.2-2.6-3.4-0.8-4.2-2.8c-0.1-0.4-1.2-0.6-1.8-0.5c-2.3,0.4-4.4,0.3-5.6-2.3c0-0.1-0.3-0.2-0.4-0.2c-3.3,0.7-3.8-1.9-4.8-4
			c-2.9,1.9-3.3,2.2-6.5-2.8c-0.6,0.4-1.2,0.8-1.9,1.1c-0.4,0.2-0.9,0-1.4,0c-1.4-0.2-1-3.2-3-2.1c-1.9,1-2.5-0.9-3.8-1.2
			c-1.5-0.4-2.9-1.1-4.5-1.2c-2.7-0.2-5.3-1.1-7.9-1.7c-0.4-0.1-0.6-0.7-1-0.9c-1.8-1.2-3.4-2.7-5.8-2.9c-1-0.1-2-0.8-3-1.3
			c-1.4-0.7-2.7-1.7-4.2-2.3c-4.5-2-4.8-2.7-3.7-7.8c2.3,0.1,4.5,0.4,6.6,1.7c1.6,1,3.4,1.9,5.1,2.5c3.4,1.2,6.8,2.6,10.3,3.4
			c2.1,0.5,4,1.8,6,2.8c1.7,0.8,3.7,1,4.9,2.8c0.3,0.4,1.1,0.7,1.7,0.7c2.4,0.2,4.7,1,6.8,2.1c0.7,0.4,1.4,0.6,2.2,0.3
			c0.5-0.2,1.2,0,1.7,0.3c1.7,0.8,3.2,2,5.3,1.8c4.1,2,8.7,3.2,11.8,7.1c1-0.6,2.2-1.3,3.5-2.1c2.8,1.5,5.6,3.1,8.4,4.4
			c1.5,0.7,3.2,1.3,4.9,1.7c1.7,0.4,3.3,0.8,4.8,1.9c1.2,0.9,2.8,1.4,4.4,1.7c1.8,0.4,3.8,0.1,5.5,1.3c0.6,0.4,1.9,0,2.8-0.1
			c1.9-0.3,3.3,0.4,3.9,2.1c0.8,2.2,2.3,2.9,4.5,3.5c2.6,0.7,5.2,1.2,7.9,1.5c1.2,0.1,2.3,0.9,3.5,1.4c0.6-0.4,1.2-0.9,1.9-1.4
			c0.3,0,0.7-0.1,0.9,0.1c3.9,2.9,8.6,4,12.7,6.5c3,0.2,5.6,2,8.8,1.7c2.1-0.2,4.4-0.1,6.4,1c0.5,0.3,1.2,0.7,1.8,0.6
			c2.3-0.4,3.9,1,5.7,2.2c0.6-0.2,1.2-0.3,1.8-0.5c3.3-0.9,6.2-0.6,9,1.6c2.8,2.1,6.3,3,9.8,3.1c2.2,0.1,3.6,0.6,4.7,2.5
			c0.7,1.2,1.2,1,3.2-0.5c1.1,0.5,2.2,1,3.5,1.7c-0.6,0.8-1.2,1.4-1.7,2.1c-1-0.4-2-1.2-2.8-0.9c-0.9,0.3-1.5,1.4-2.4,2.4
			c-0.5-0.2-1.1-0.3-1.7-0.6c-0.4-0.2-0.9-0.4-1.3-0.5c-0.1-0.2-0.2-0.3-0.2-0.4c0.2-0.9,0.5-1.8,0.9-3c-0.9-0.1-1.5-0.2-2-0.1
			c-0.6,0.1-1.4,0.7-1.8,0.5c-3.2-1.6-4.7,0.5-6.1,2.7L1194.1,817.7z"/>
		<path class="st1" d="M1058.6,486.7c-2.2,2-4.6,2.9-7.5,0.9c-0.1,0.9-0.1,1.6-0.3,2.1c-0.4,1.2-1.3,1.7-2.6,1.1
			c-1-0.4-1.6-0.4-1.9,0.4c-0.5,1.1-1.1,1.5-2.4,1.8c-1.6,0.4-3.1,1.3-4.5,2.5c-1.8,1.7-4.1,3-6.3,4.3c-0.3,0.2-0.9-0.2-1.4-0.1
			c-1.2,0.3-2.8,0.4-3.6,1.2c-2.6,2.7-6.4,2.6-9.3,4.6c-2.3,1.6-4,0.7-6.9-2.6c1.3-1.7,2.8-3.2,4.9-4c4.3-1.7,8.3-4,12-6.7
			c1.3-0.9,2.7-1.7,4.2-2.1c2.9-0.8,5.4-2.9,8.6-2.6c0.6,0,1.3-0.8,2-1.2c1.2-0.7,2.4-1.5,3.8-2c1.2-0.4,2.4-0.7,3-2.1
			c0.1-0.3,0.7-0.5,1.2-0.6c1.5-0.4,2.8-1.3,4.2-2c3.8-1.9,7.8-3.6,12.4-3.7c0.3-1.2,0.5-2.5,0.9-3.9c2.9-1,6-1.5,8.5-3.1
			c3.9-2.4,8-4.4,12.1-6.3c1.6-2.5,5.1-2.5,6.6-5.3c0.6-1.2,2.2-1.3,3.4-0.5c1.8,1.1,3.2,0.7,5.1-0.4c2.3-1.4,4.6-2.6,6.8-4.3
			c0.7-0.5,1.8-0.6,2.8-1c0.3-0.8,0.5-1.6,0.8-2.4c3.9-1.1,7.7-2.2,11.5-3.2c3.5-1,6.8-2.2,9.6-4.7c1.2-1,2.6-2.4,4.5-2.5
			c0.6,0,1.4-0.3,1.7-0.7c1.4-1.7,3.4-1.4,5.4-1.7c0.3-0.5,0.7-1,1.1-1.5c2.8-3.4,2.8-3.4,7.2-4c3.3-0.4,6.5-1.3,9.1-3.6
			c1.3-1.2,2.6-1.8,4.3-0.8c0.4,0.2,0.9,0,1.5,0c0.4-0.8,0.8-1.6,1.2-2.5c0.8-0.1,1.6-0.2,2.3-0.3c1.3,1.4,0.8,2.4-1.8,3.2
			c-0.1,0.9-0.2,1.9-0.4,3.4c-0.7,0.3-1.7,0.7-3,1.3c-0.2-0.8-0.3-1.4-0.5-1.9c-0.6-1.2-1.3-1.4-2.1-0.5c-0.6,0.7-1.1,1.5-1.9,2
			c-2.2,1.6-2.3,1.5-1.4,4.5c-2,0.3-4.1,0.6-6.1,0.9c-0.7,1.6-0.5,3.7-2.7,4.3c-1.3-0.8-1-3.6-3.7-3.2c-0.5,1.8,1.2,3.1,1.4,5
			c-0.9,0.5-1.8,1-2.6,1.5c-0.5-0.2-0.8-0.4-1-0.5c-0.4-0.2-0.9-0.7-1-0.7c-0.4,0.4-1,0.9-1,1.4c0,0.9,0.4,1.7,0.7,2.7
			c-1.6,0.5-2.5-0.1-2.5-1.5c-0.1-1.1,0.3-2.2,0.4-3.3c0.1-0.7,0-1.5-0.1-2.8c-2.3,1.8-1.1,4-1.8,5.6c-1,0-2.1,0-2.4,1.5
			c-0.2,1.2-0.8,1.9-2.3,1.6c-1.9-0.4-3,1.2-4.6,2.4c-0.1-1-0.3-2-0.5-3.3c-2.3,3.7-2.3,3.6-6.9,5.3c-1.4,0.5-2.6,1.6-4,2.4
			c-0.3-0.6-0.7-1.3-1.5-2.6c-0.8,1.9-1.4,3.4-2.1,4.9c-1.4,0-2.6,0-4,0c-1.3,1.3-2.2,3.5-4.8,3.1c-0.3-0.1-0.8,0.4-1.1,0.7
			c-2.1,2.5-4.4,4.5-7.7,5.1c-1,1.5-2.4,2-4.2,1.6c-1.6,1.4-4.3,1.2-5.1,3.9c-0.3,1.1-1.3,2-3,1.5c-1.1-0.3-2.3,0.5-3.3,1.3
			c-2.1,1.6-4.2,3.2-6.4,4.7c-0.5,0.3-1.2,0.3-1.8,0.2c-1.4-0.2-2.5,0.1-3.2,1.4c-0.1,0.2-1-0.3-1.5-0.1c-0.6,0.2-1,1-1.5,1.1
			c-1.9,0.4-3.6,1-4.5,3c-0.1,0.3-0.9,0.7-1.2,0.6c-2.8-0.6-4.7,2.3-7.4,1.7c-0.1-0.3-0.2-0.6-0.4-0.8c-0.2-0.2-0.5-0.3-0.8-0.3
			c-0.1,0-0.3,0.5-0.2,0.6c0.1,0.2,0.4,0.4,0.7,0.4C1058,486.9,1058.3,486.8,1058.6,486.7z"/>
		<path class="st1" d="M883.4,223.4c-1,1.2-2.2,2.2-2.9,3.5c-0.7,1.3-1.8,2.2-2.7,3.3c-0.9,1.1-1.4,2.7-2.1,4.2
			c-0.6-0.5-1.1-1-1.9-1.6c-1.4,1.7,0.6,3.4-0.1,5.3c-0.8,0.5-1.9,1.2-3.2,2c-0.6,1.6,0,4.1-2.6,5c-0.3,0.1-0.5,0.8-0.6,1.2
			c-0.7,3.2-1.8,6-4.4,8.2c-0.4,0.3,0.1,1.5-0.3,1.9c-0.5,0.5-1.4,0.6-2,1c-0.9,0.5-3.1,3.7-3.3,4.8c-0.2,0.8-0.2,1.6-0.5,2.3
			c-0.2,0.6-0.6,1.4-1,1.5c-2.3,0.4-2.7,2.1-3.5,3.9c-1,2.1-2.6,3.9-4.5,6.6c-0.7,0.5-2.9,0.6-3.2,3c0,0.2-0.6,0.3-0.8,0.5
			c-0.7,0.6-1.3,1.4-2.1,1.9c-1.5,1-1.8,2.3-1.9,4c-0.1,1.8-3,0.8-3.3,2.8c-0.3,1.7-1.7,2.1-3.2,2.2c-0.5,0-0.9,0-1.5,0
			c0.2,0.9,0.6,1.8,0.4,2.4c-0.3,1.1-1.2,1.9-2.5,2c-0.8,0-1.5,0.2-2.3,0.3c0.7,3.7,0.7,3.7-2.2,4.3c-0.7,1.3,0,3-1.8,4
			c-1.1,0.7-1.8,2.4-2.5,3.9c-1.3,3.2-2.6,6.5-5.8,8.4c-0.4,0.2-0.9,0.5-1.1,0.9c-1.3,3.2-4.2,5.2-6.2,7.8c-2.6,3.5-3.8,3.7-8,1.2
			c0.8-2.4,1.7-4.5,3.6-6.4c2.7-2.7,4.6-6.1,6.4-9.4c1-1.8,2-3.6,3.6-5c2-1.8,3.1-4.5,5.7-5.7c0.5-0.2,0.7-1.1,1-1.6
			c0.9-1.3,1.7-2.7,2.6-4c0.7-0.9,1.6-1.5,1.5-2.9c0-0.4,0.6-1,1-1.4c0.6-0.7,1.4-1.4,1.8-2.2c2.3-4.4,6-7.3,9.9-10.2
			c-0.1-1.2-0.2-2.4-0.4-3.7c2.3-2.1,4.6-4.1,6.8-6.2c0.4-0.4,0.6-1.1,1-1.6c1.5-1.8,2.2-4.2,4.4-5.5c1.1-0.7,2.1-2.1,2.5-3.4
			c0.8-2.6,3.3-4.3,3.3-7.2c0-1.3,1.3-2.2,2.8-2c2.1,0.2,3.1-0.9,4.1-2.6c1.3-2.2,2.6-4.2,3.4-6.7c0.3-1,1.3-1.8,2.1-2.8
			c-0.2-0.6-0.4-1.3-0.6-2c0.1-0.3,0.1-0.7,0.3-0.8c3.3-2.5,6.1-5.7,8.6-8.9c1.7-2.1,3.6-4.3,4.3-7.3c0.5-2.1,1.1-4.3,2.9-5.7
			c0.3-0.3,0.7-0.8,0.7-1.2c0.2-2,1.8-2.9,3.3-4c0-0.8,0.1-1.6,0.1-2.3c0.1-2.9,1.3-5.1,3.7-6.8c3.3-2.4,5.4-5.7,6.4-9.8
			c1.4-0.6,2.6-1.1,4.1-1.8c-0.2-0.9-0.4-1.6-0.7-2.6c0.7-0.6,1.5-1.4,2.3-2.1c0.6,0.7,1.1,1.3,1.8,2c-0.6,0.6-1.3,1.3-2.1,2.1
			c0.5,0.9,1,1.8,1.7,3c-0.5,0.7-1.2,1.6-1.8,2.4c-1.4,0.1-1.7-2.3-3.5-1c-0.3,1.2,0,2.7-1,4.1c-1,1.3,0.2,2.8,1.7,3.6
			c-1.5,1.3-3,2.7-4.6,4.1c0.2,1.6,1.7,3.2,0.1,5.1c-1.5,0.4-2.8-3.3-4.9-0.4c0.7,0.5,1.4,1.1,2.1,1.6c0.6,0.5,1.3,0.9,2,1.3
			c-0.6,1.1-1.2,2-1.7,2.9c-0.9-0.1-1.7-0.2-2.5-0.2c-0.4,1.8,0.3,2.5,1.8,2.8c0.2,0,0.3,0.8,0.3,1.2c0,0.2-0.5,0.4-0.7,0.4
			c-1.1,0.2-1.9-0.2-2.4-1.2c-0.7-1.4-1.5-2.8-2.8-4c0,0.6-0.2,1.3,0,1.8c0.6,1.5,2.3,2.7,0.5,4.5c-0.4,0.4,0.2,1.8,0.4,2.9
			C885.3,220.3,883.4,221.2,883.4,223.4c-1.2-0.3-1.2-0.3-2.2,0.2C882.1,223.5,882.8,223.5,883.4,223.4z"/>
		<path class="st1" d="M179.7,366.6c-0.6-2.1-2.5-3.1-3.8-4.7c-0.2-0.3-0.9-0.2-1.3-0.3c-1.7-0.4-3.5-0.6-3.5-3.1
			c0-0.5-0.7-1.2-1.2-1.4c-2.6-0.9-4-3.6-6.5-4.6c-0.5-0.2-1.1-0.7-1.4-1.2c-0.7-1.4-1-2.7-2.7-3.6c-1.3-0.6-1.9-2.4-3-3.6
			c-0.4-0.5-1-1-1.5-1.1c-1.8-0.2-2.9-1-3.2-2.9c0-0.3-0.6-0.6-1-0.9c-2.1-1.7-2.1-1.7-2-5c-0.8,0.4-1.4,0.6-2,0.9
			c-2.6-0.8-2.2-3.2-2.5-5.1c-3.5,0.6-3.4,1.2-4.2-2.4c-1.3-0.5-2.9-0.3-3.9-2.1c-0.6-1.1-2-1.8-3.4-2.4c-2.3-0.9-4.4-2.5-6.6-3.8
			c-0.2-0.1-0.3-0.5-0.4-0.8c-1.1-2-2.2-3.8-4.5-4.7c-0.7-0.3-1.1-1.1-1.6-1.7c-1.1-1.2-2-2.5-3.1-3.6c-2.4-2.3-2.7-3.3-1.4-6.3
			c0.2-0.6,0.7-1.1,1.1-1.8c2.1,0.9,4,1.6,5.4,3.5c1.7,2.3,6.9,6.4,9.7,8.3c1.3,0.8,2.6,1.9,3.6,3.1c1.8,2.2,4.6,3.4,5.7,6.3
			c0.2,0.5,1,0.7,1.5,1.1c1.3,0.9,2.6,1.8,3.8,2.8c0.8,0.7,1.3,1.9,2.8,1.4c0.2-0.1,0.7,0.2,0.8,0.4c1.2,2,3.3,2.7,4.9,4.2
			c2.8,2.6,5.7,5.2,7.1,8.9c1.1-0.2,2.2-0.4,3.5-0.6c1.6,1.7,3.4,3.3,4.7,5.2c1.2,1.9,2.7,3.3,4.4,4.2c2.5,1.4,3.3,4.3,5.7,5.6
			c2.5,1.5,4.3,4.1,7.3,4.9c1.7,0.5,2.4,1.7,2.1,3.2c-0.4,2.2,0.2,3.3,2,4.7c1.9,1.6,3.7,3.4,5.8,4.8c0.9,0.6,1.4,1.6,2.1,2.5
			c0.8-0.1,1.5-0.2,2.1-0.3c2.3,3.4,4.5,6.7,6.9,9.8c2.1,2.7,4.2,5.4,7.8,6.6c2,0.7,3.3,2.9,5.1,3.9c1.6,0.8,2.3,2.1,3.4,3.4
			c0.5,0,1.2,0.1,1.8,0.1c2.9-0.1,5.2,0.8,7,3.3c1.7,2.3,4.3,3.7,6.9,4.9c3.6,1.6,3.6,1.5,5,5.2c0.9,0,1.8,0,2.7,0
			c0.7,0.9,1.4,1.7,2,2.5c-0.4,1.1-2.4,1.8-2.8,1c-1.1-2.7-2.5-1.6-4-0.5c-0.1,0.1-0.3,0-0.7,0c-0.7-0.6-1.5-1.3-2.3-2.1
			c0.8-0.8,1.5-1.5,2.5-2.5c-0.8-0.4-1.3-0.7-1.8-0.8c-0.7-0.2-1.8,0.1-2.2-0.3c-2.1-2.1-3.3-0.5-4.8,1c-1.3-1.2-2.6-2.5-4.1-3.9
			c-1.6,0-3.1,1.9-5.1,0.3c-0.6-1.4,3.1-2.9,0.2-4.8c-1,1.3-1.9,2.7-2.9,4c-2.7-1.6-2.7-1.6-2.8-4.1c-2-1.3-2.4,1.7-4.2,1.5
			c0-0.7,0-1.5,0-2.1c1.7-1.4,4.2-1.1,5.5-3.1c-2.1-1-3.6,1.2-5.4,1.1c-0.2-0.4-0.4-0.9-0.7-1.3c-0.9,0-1.9,0-2.7,0
			c-1.4-1.6-2.7-3.1-4-4.7c0.2-0.2,0.5-0.7,1.1-1.5c-3.1-0.5-5.4-2-6.9-4.8c-0.6-1.1-2.2-1.7-3.9-2.9c0.8-0.5,1.4-0.8,2-1.3
			c-1.1-1.8-3-0.4-4.7-1.5c-0.3-0.7-0.8-1.9-1.5-3.4c-1.4-0.7-3.7-1-4.1-3.6c0-0.2-0.4-0.5-0.7-0.5c-3.3-1-5.8-3.1-7.7-5.9
			c-0.3-0.5-1-0.8-1.5-1.1L179.7,366.6z"/>
		<path class="st1" d="M788.7,468.7c0.7-1.6-1.2-2.9-0.3-4.5c0.7-1.4,1.3-2.9,1.9-4.4c1.4-3.6,3.1-7,5.3-10.2c2-2.9,3.5-6,5.2-9.1
			c0.7,0,1.3-0.1,1.9-0.1c1.7-2,3.3-4,4.9-5.9c1.4-1.7,3.3-2.4,5.2-3.2c2-0.8,4,0,6-0.9c1.7-0.7,3.7-1,5.6-1.2
			c1.4-0.1,2.9,0,4.2,0.4c7.5,2.4,13.2,7,16.2,14.4c1,2.6,1.1,5.6,1.5,8.4c0.3,1.6,0.5,3.1,0.6,4.7c0.1,2,0,4.1-0.2,6.1
			c-0.4,5.1-0.4,10.1,0.2,15.2c0.4,3.6,1.1,7.3,0,10.9c0.6,2.9-0.8,5.9,0.1,8.8c0.2,0.7-0.1,1.6-0.1,2.3c-0.5,5.4-0.9,10.8-1.5,16.2
			c-0.2,1.6-0.6,3.1-1,4.6c-0.6,2.3-1.6,4.5-1.1,7c0.1,0.3,0.1,0.7-0.1,0.9c-1.7,2.7-1.2,5.9-2,8.7c-1,3.4-1.2,6.7-1,10.2
			c0.2,2.5-0.6,5-0.9,7.5c-0.1,0.9-0.7,1.9-0.6,2.8c0.4,4.1-0.6,7.9-2.2,11.6c-0.2,0.6-0.4,1.3-0.3,1.8c1.2,3.9,0.2,7.6-1,11.2
			c-0.8,2.2-1,4.2-0.7,6.5c0.3,1.8,0.3,4-0.5,5.6c-1,2.2-1.1,4.3-0.9,6.5c0.1,1.6,0,3.1-0.2,4.7c-0.5,3.8-0.9,7.6-0.7,11.4
			c0.2,6.7,1.2,13.4,1.2,20.1c0,3.5,0.1,7,0.5,10.4c0.9,7.8,0.8,15.6,1.1,23.4c0.1,3.5,0.6,7,0.4,10.5c-0.1,1.6-0.3,3.1-1.6,4.2
			c-0.3-0.4-0.7-0.6-0.7-0.8c-0.6-4.9-1.4-9.7-1.5-14.7c0-6.1-0.6-12.1-0.9-18.2c0-0.6-0.2-1.3-0.2-1.9c-0.2-5.7-1.4-11.4-1.9-17
			c-0.4-4.8-0.1-9.6,0-14.4c0.1-3.2,0.1-6.4,0.8-9.5c0.6-3,0.7-6,0.9-9c0.1-2.2,0.6-4.4,0.7-6.7c0.2-4.5,1.5-8.8,1.1-13.3
			c-0.2-2.5,0.6-5,0.9-7.5c0.8-7,1.7-13.9,2.5-20.9c0.4-3.5,0.8-7,1.4-10.4c0.3-1.9,1-3.6,1.6-5.9c-1-2.8-0.8-6.1,0-9.4
			c0.9-3.7,1.4-7.5,2-11.3c0.2-1.1,0.2-2.2,0.5-3.3c1.4-5,1.1-10.1,1.5-15.2c0.3-3.3,0.3-6.7,0.4-10c0-2.9,0.2-5.8-0.1-8.6
			c-0.7-6.8,0.3-13.7-1-20.5c-0.6-3.1-0.6-6.2-0.4-9.4c0.2-3.2-0.6-6.3-2.9-8.8c-0.4-0.5-0.8-1-1.2-1.5c-3.8-4.9-9-6.3-14.9-5.7
			c-1.3,0.1-2.5,0.3-3.8,0.3c-1.8,0.1-3.4,0.6-4.5,2.2c-0.5,0.7-1.4,1.2-2.2,1.7c-3.8,2.1-7.2,4.6-9.6,8.4
			c-4.3,6.7-8.8,13.3-11.4,21c-0.4,1.2-0.9,2-2.1,2.3L788.7,468.7z"/>
		<path class="st1" d="M1194.4,613.1c-4,0.5-8.2,0.2-12.1,2.2c0.1-0.9,0.1-1.6,0.2-2.5c-2.1,0-2,2.3-3.8,3.1
			c-0.7-0.2-1.8-0.4-2.8-0.7c-1.5-0.5-2.3,1-3.4,1.3c-1.2,0.4-2.3-1-3.6-0.1c-2.7,1.8-5.6,2.8-8.9,2.2c-0.4-0.1-0.9,0.7-1.4,1.1
			c-1.4-0.3-2.7-1.3-4.4-1c-1.4,0.3-2.7,0.1-3.9,1.3c-0.9,0.9-2.3,1.9-3.7,0.2c-0.3-0.3-1.2-0.2-1.8-0.1c-1.4,0.2-2.7,0.6-4.1,0.9
			c-1.2,0.2-2.5,0.4-3.7,0.6c-0.7,0.1-1.8,0.3-2.2-0.1c-1.8-1.4-3.9-0.7-5.7-0.6c-1.9,0.1-4.1-0.9-5.9,1c-0.6,0.6-1.8,0.4-2.7-0.2
			c-0.2-0.2-0.7-0.6-0.8-0.5c-2.5,1.8-4-0.3-5.8-1.4c-1.9,2.8-2,2.8-6-0.1c-0.3,0.5-0.6,1.2-1,1.6c-0.4,0.4-1.4,0.8-1.6,0.7
			c-1.2-1.4-2.4-1.3-3.5,0c-0.1,0.1-0.3,0.3-0.4,0.3c-3.5-1-6.4,1.3-9.7,1.8c-2.2,0.3-4.3,1.1-6.5,0.2c-0.4-0.2-1-0.3-1.4-0.2
			c-3.1,1.3-6.3,0.3-9.4,0.8c-2.8,0.5-4.6-0.6-5.7-3.1c-0.2-0.6-0.4-1.2-0.7-2.1c2.3-0.8,4.2-1.7,6.6-1.6c4,0.1,7.9-0.6,11.7-1.7
			c3.9-1.1,7.8-1,11.8-0.6c1.1,0.1,2.1,0.4,3.2,0c1.2-0.4,2.5-0.5,3.7-0.7c1.4-0.2,2.9,0.3,4-1.1c0.2-0.3,1.2,0,1.8,0
			c1.1-0.1,2.3,0,3.3-0.3c3.7-1,7.3-0.2,10.9,0.1c0.6,0.1,1.2,0.4,1.9,0.7c0.6-0.9,1.3-1.8,2-2.7c2.1,0,4.4-0.3,6.5,0.1
			c2.1,0.4,4,0.1,6.1-0.1c1.4-0.2,2.8-0.3,4.3-0.2c2.1,0.1,4.1,0,6.1-0.7c2.1-0.7,4.4-0.3,6.3-1.9c0.5-0.4,2.2-0.2,2.6,0.3
			c2.7,3.8,6.1,1.4,9.1,1c2-0.2,3.8-1.6,6.1-0.9c0.4-0.7,0.7-1.3,1.1-2.1c0.4-0.1,0.9-0.3,1.3-0.2c3.5,0.9,7,0.7,10.5,0.5
			c3.3-0.2,6.5-0.4,9.5-2.2c1.7-1,3.8-1.2,5.8-1.6c1.9-0.4,3.6-0.9,5.6-0.4c0.8-0.6,1.6-1.2,2.2-1.8c1.9-1.8,4-2.2,6.6-1.7
			c3.4,0.7,7,0.5,10.2-1.1c1.3-0.6,2.5-0.6,3.5,0.5c0.8,0.9,1.5,0.8,2.4,0c1.3-1.2,1.3-1.2,3.9-0.8c-0.2,0.7-0.5,1.4-0.7,2.2
			c-0.7,0-1.8-0.3-2.1,0.1c-0.7,0.7-1.1,1.8-1.9,3.1c-0.6,0-1.7,0.1-3,0.1c0-1.1,0-2.1,0-2.9c-1.6-0.9-1.8,0.7-2.5,0.9
			c-0.9,0.3-2.1,0.2-2.6,0.7c-0.8,0.8-1.1,2.1-1.7,3.3c-1.6-0.1-3.4-0.2-4.8-0.3c-1.8,0.7-1.2,3.5-4.1,3.1c-1.1-0.5,0.5-4-2.9-3.4
			c0.2,1.5,0.5,3,0.7,4.5c-2.8,1.2-2.8,1.2-4.4-0.7c-1.5,0.6-1.6,1.6-0.9,2.9c0.1,0.2-0.4,1-0.6,1c-0.4,0.1-1-0.2-1.2-0.5
			c-0.3-0.5-0.6-1.2-0.5-1.7c0.3-1.2,0.8-2.4,1.1-3.6c0.1-0.3-0.1-0.8-0.3-1.7c-1.6,1.6-1.4,3.5-2.2,5c-0.4-0.1-0.9-0.2-1.4-0.4
			c-0.5,0.7-1.1,1.5-1.7,2.3c-1.2,0-2.5,0.1-3.7,0c-1.1-0.2-1.8,1.6-3,0.5c0.1-0.4,0.4-0.9,0.4-1.3c0-0.3-0.4-0.6-0.6-0.9
			c-0.1,0.2-0.4,0.5-0.3,0.7C1193.8,612.1,1194.1,612.6,1194.4,613.1z"/>
		<path class="st1" d="M513.2,459c-1.1-0.1-2.4,0.2-3.2-0.3c-1.3-0.8-2.3-2.1-3.2-3.3c-1.2-1.7-1.8-3.9-3.4-5.4
			c-1.6-1.5-2.9-3.4-4.4-5c-0.8-0.8-0.6-2.3-2.3-2.7c-1-0.2-1.7-1.8-2.7-2.5c-1-0.7-2.4-1-3.3-1.7c-1.2-0.9-2.6-1-4.1-1.3
			c-1.7-0.3-3.5-0.5-5.2-0.8c-2.3-0.4-4.4-0.1-6.2,1.6c-0.9,0.8-2.1,1.3-3.2,2c-2,1.2-4.2,2.1-5.5,4.3c-0.5,0.9-1.6,1.5-2.5,2
			c-2,1.2-3.4,2.9-3.8,5.3c-0.2,1.5-0.8,2.7-1.8,3.8c-0.6,0.7-1.1,1.6-1.3,2.5c-0.9,5.1-3.3,9.8-3.6,15c-0.1,1.9-0.1,3.8-0.4,5.7
			c-0.9,5.3-1.9,10.7-1.6,16.1c0,0.2,0,0.3,0,0.5c-2,4.4-0.1,8.7,0.5,13c0.7,5.5,2,11,3.1,16.9c1.9,1.1,2.5,3.4,3.2,5.7
			c1.5,5,2.8,10.1,5.2,14.8c0.9,1.8,1.2,4,2,5.9c1.9,4.4,3.4,8.9,5.8,13c0.9,1.5,1.3,3.1,1.1,5c-0.2,1.4,0.1,2.9,0.5,4.2
			c1,3,2.2,6,3.2,9c0.6,1.6,1,3.3,1.5,5c0.1,0.5,0.1,1.1,0.4,1.3c2.3,1.7,1.9,4.3,2.2,6.6c0.8,6.3,1.6,12.6,2.8,18.9
			c0.3,1.7,1,3.3,1.4,5c1.2,5.1,2.6,10.1,2.8,15.4c0.1,1.1,0.5,2.1,1,3.2c1.4,3.3,2,6.7,2.1,10.2c0.1,3.5,0.5,7,1.3,10.4
			c0.8,3.6,1.3,7.2,0.5,10.9l0.1-0.1c-0.9,0-1.7-0.3-1.9-1.2c-0.3-1.2-0.7-2.5,0.2-3.7c0.3-0.4,0.8-1,0.7-1.2
			c-1.2-2.4-0.5-5.5-2.4-7.6c-0.9-0.9-1.3-1.7-1.2-2.9c0-0.6-0.1-1.3-0.1-1.9c0-2.2-0.2-4.4-1.8-6.2c-0.5-0.5-0.5-1.5-0.7-2.1
			c0.7-1.2,1.3-2.2,2.2-3.6c-1.3-0.3-2.2-0.5-3.1-0.6c-0.1-0.2-0.3-0.4-0.4-0.7c-0.1-1.3-0.5-2.6-0.2-3.8c0.3-1.5,0-2.4-1.3-3.2
			c-0.4-0.3-0.4-1.3-0.8-2.7c1.6,1,2.5,1.6,3.6,2.3c0.1-0.4,0.2-0.6,0.2-0.7c-0.9-1.1-1.8-2.2-2.7-3.3c0.7-1.7-0.6-2.6-1.3-3.9
			c-0.3-0.5-0.4-1.2-0.5-1.8c-0.2-1.9-0.5-3.8-0.6-5.7c0-0.6,0.9-1.3,0.8-1.9c-0.1-0.7-1-1.2-1.3-1.9c-0.5-1.2-0.7-2.4-1-3.7
			c-0.6-2.8-1.1-5.6-1.5-8.5c-0.2-1,0.4-2.2,0.1-3.1c-0.3-1-1.1-1.9-1.6-2.9c-0.3-0.7-0.7-1.5-0.6-2.3c0.1-2.2-0.3-4.1-1.5-5.9
			c-0.3-0.4-0.6-0.9-0.6-1.3c-0.1-3.3-2.1-6-3.2-8.9c-1.5-3.8-3.1-7.6-4.1-11.6c-0.4-1.8-0.9-3.8-1.9-5.4c-2.1-3.2-3.2-6.8-4.3-10.4
			c-1.1-3.5-3-6.7-4.3-10.1c-1-2.6-1.3-5.5-2.2-8.2c-1.1-3.1-1.3-6.6-3.2-9.4c-0.3-0.4-0.4-0.9-0.4-1.4c0.1-3.3-1.7-6.5-1-9.9
			c0.1-0.6,0.1-1.3-0.2-1.8c-1-2-1.2-3.9-0.6-6c0.1-0.5,0.3-1,0.1-1.4c-1-2.4-0.8-4.9-0.6-7.5c0.1-1.1-0.5-2.2-0.5-3.2
			c0.3-5.7,0.7-11.4,1.2-17.1c0.1-1.2,0.8-2.4,1.1-3.6c1.7-5.7,3.7-11.2,6.6-16.4c1-1.8,2.6-3.3,2.5-5.6c0-0.6,0.8-1.3,1.4-1.8
			c1.6-1.4,3.2-2.7,4.8-4c4.8-3.8,10-6.7,15.9-8.3c1-0.3,2.6-0.3,3.2,0.2c1.8,2,4.2,2.2,6.4,3c2.8,1.1,5.5,2.3,8.1,3.9
			c0.8,0.5,1.5,1.2,2,1.9c2.4,3.2,4.8,6.4,7.2,9.5c1.2,1.5,2.3,3,3.6,4.4c1.3,1.4,2.4,2.9,2.5,4.9C513.1,459.1,513.2,459,513.2,459z
			"/>
		<path class="st1" d="M1008.3,336.7c-0.5-0.5-1-1.1-1.4-1.6c-0.3,0.2-0.7,0.4-0.8,0.6c-0.3,1.2-0.5,2.5-0.7,3.8
			c-0.7,0.2-1.3,0.4-1.9,0.5c-1.3,0.1-2.2,0.7-2.5,1.9c-0.3,1-0.9,1.7-2,1.8c-1.1,0.1-1.3,0.9-1.8,1.8c-1.3,2.1-2.5,4.3-5,5.6
			c-1.4,0.7-2.7,1.9-4,3c-1.3,1-2.8,2-2.8,4.1c0,1.3-0.9,2.2-2.5,2.3c-0.6,0-1.5,0.8-1.8,1.4c-0.6,1.5-1.8,2.6-2.8,3.8
			c-1.3,1.7-2,4-4.8,4c-0.3,1.8-2.2,2.2-3.2,3.4c-1.1,1.3-3,1.8-2.9,4c0,0.1-0.1,0.3-0.3,0.4c-0.3,0.3-0.7,0.9-1.1,0.9
			c-2.5-0.2-2.7,3.5-5.2,3.1c-0.6-0.1-1.2-0.3-1.8-0.5c0.1,1.3,0.8,2.9-1,3.5c-1.1,0.4-2.4,0.3-4,0.5c0.1,0.5,0.2,1,0.2,1.6
			c0,0.4-0.2,0.9-0.5,1.3c-0.8,1-3.1-0.4-3.1,2.1c0,1.6-2,1.3-2.7,2.4c-0.5,0.8-1.3,1.4-1.8,2.1c-1.9,2.9-4,5.7-7.3,7.1
			c-0.4,0.2-1.1,0.3-1.2,0.7c-1.5,2.7-4.3,3.7-6.5,5.5c-3.7,3-4,3-8.3-0.2c1.1-1.8,2.1-3.5,3.9-4.9c3-2.3,5.7-5,8.3-7.8
			c2-2.1,6.9-6.3,9.5-7.6c0.3-0.1,0.8-0.1,0.9-0.3c1.5-2.8,4.8-4.1,6.2-7c0.2-0.5,0.9-0.8,1.3-1.2c0.6-0.5,1.3-0.9,1.8-1.6
			c2.6-3.6,6.3-5.8,10.2-8.3c-0.1-0.9-0.2-2-0.3-3.2c2-1.6,4.1-3.3,6.2-5c0.2-0.2,0.7-0.3,0.8-0.5c2.2-4.5,7.4-6.4,9.5-11
			c1.9-0.9,2.6-2.7,3.2-4.4c0.4-1.1,1.4-1.4,2.3-1.4c1.2,0,2.5,0.8,3.7,0c0.3-0.2,0.7-0.2,0.9-0.4c1.3-1.3,2.5-2.7,3.9-4
			c1.3-1.2,1.9-3,3.8-3.5c0.6-0.2,0.5-0.4,1-2.8c3.2-1.6,6.2-3.3,9.4-4.8c3.2-1.5,5.8-3.6,8-6.4c1.7-2.2,4-4,6.1-5.8
			c0.7-0.6,1.8-0.6,2.7-1c0.5-1.3,0.9-2.8,1.6-4c0.5-0.9,1.3-1.9,2.2-2.3c4.2-1.6,7.5-4.1,9.4-8.3c1.4-0.2,2.6-0.4,3.8-0.6
			c0.5-2.8,0.5-2.8,3-4.2c0.5,1.1,1.4,2.3-0.3,3.1c-1.2,0.6-1,1.5-0.6,2.4c0.2,0.4,0.4,0.8,0.8,1.5c-0.8,0.7-1.6,1.4-2.3,2
			c-0.9-0.8-1.6-1.6-2.5-2.5c-1.1,1.6-1,3.2-2.3,4.4c-1.1,1.1-0.2,2.6,1.2,3.5c-1.8,1-3.6,1.9-5.4,2.9c0.2,1.7,0.8,3.3-0.8,4.5
			c-1.6-0.1-1.9-3.1-4.3-2.1c0.1,2,2.2,2.7,2.6,4.6c-1.2,1.1-2.2,2.9-4.1,0.9c-0.8,1.4-1,2.4,0.5,3c0.2,0.1,0.4,0.9,0.3,1.1
			c-0.3,0.3-0.8,0.5-1.2,0.5c-1-0.2-1.7-0.8-1.8-1.9c-0.2-1.5,0.2-3.2-1.4-4.5c-1.4,1.8,0.5,3.3,0.2,4.9c-0.6,0.4-1.4,0.7-1.6,1.2
			c-0.3,0.7-0.2,1.6-0.2,2.4c-1.5,1.1-3.8,0.9-4.5,3.1c-2.3,0.4-3.7,2.5-5.7,3.2C1010.6,333.8,1009.7,335.4,1008.3,336.7z
			 M1017,328.4c-0.3-0.2-0.7-0.5-1-0.7c-0.1,0.2-0.4,0.6-0.3,0.7c0.3,0.3,0.6,0.6,0.9,0.9C1016.7,329,1016.8,328.8,1017,328.4z"/>
		<path class="st1" d="M441.5,643c-0.6-0.1-1.5,0-1.7-0.4c-0.9-1.7-1.4-3.4-0.2-5.3c0.4-0.6,0.8-1.6,0.5-2.2
			c-0.7-1.8-1.2-3.6-1.3-5.5c0-0.6-0.2-1.4-0.6-1.8c-1.9-2.1-1.8-4.6-1.8-7.2c-0.1-2.2,0-4.4-1.6-6.3c-0.7-0.8-0.7-2.1-1-3.3
			c0.9-1.1,2.5-2,1.8-4.2c-0.6-0.1-1.5-0.2-2.4-0.4c-0.1-0.2-0.4-0.4-0.4-0.7c0-1.9-0.9-3.7-0.1-5.7c0.5-1,0-2-1.2-2.7
			c-1.1-0.6-1.3-1.7-0.3-3c0.9,0.8,1.8,1.6,2.8,2.5c0.2-0.5,0.4-0.9,0.3-1c-0.9-1.3-1.9-2.5-2.6-3.5c-0.1-1.3,0.1-2.5-0.3-3.4
			c-0.9-1.8-1.2-3.4-0.9-5.5c0.3-1.9-0.4-4-0.7-6c0.4-0.3,0.8-0.6,1.2-0.9c-2.4-2.6-2.7-6-3.5-9.2c-0.6-2.1-1-4.3-1.5-6.5
			c-0.3-1.2-1.2-2.3-0.2-3.6c0.2-0.3-0.2-1.2-0.5-1.7c-1.6-2.6-3.3-5.1-2.6-8.4c0.1-0.6-0.5-1.5-0.8-2.2c-0.5-1-1.4-1.9-1.6-3
			c-1-6-4.2-11.3-5.9-17c-1.3-4.4-1.9-9-3.3-13.3c-0.1-0.5-0.2-1-0.4-1.4c-2.3-4.2-3.5-8.8-5.4-13.1c-2.1-5-4-10-5.6-15.1
			c0-0.1-0.2-0.2-0.6-0.5c-3.2-0.3-5.8,1.7-8.3,3.5c-2.3,1.7-3.6,4.4-6,6c-0.3,2.4-2,4.3-2,6.7c0,1.3,0,2.5-0.1,3.8
			c-0.2,2.6-0.8,5-3.5,6.6c-0.4-0.6-0.7-1.2-1.1-1.7c-0.3-1,0.5-1.1,0.9-1.5c0.6-0.7,0.7-1.3,0.2-2.1c-1.2-1.8-1.6-4.1-1-5.5
			c0.9-2.2,2-4.4,2.6-6.6c1.3-4.6,4.3-7.6,8.4-9.7c2-1,4-2,6-2.8c1-0.4,2.1-0.4,3.4-0.6c0.2-1,0.6-1.9,0.5-2.8
			c-0.5-3.6-1.1-7.2-1.6-10.7c-0.1-0.6-0.1-1.3-0.1-1.9c0.2-2.6,0.8-5.2,0.9-7.9c0.1-1.5,1.3-2.9,1.6-4.4c0.4-1.5,0.3-3.1,0.5-4.6
			c0-0.3,0.1-0.6,0.2-0.9c1.5-2.9,3.6-5.6,4.2-9c0.1-0.5,0.8-0.9,1.3-1.4c0.5-0.6,1.3-1.1,1.6-1.7c2-5.2,6.7-7.7,11.1-10
			c4.2-2.2,8.9-2.1,13.4-0.1c2,0.9,4.1,1.8,6.3,2.3c5.8,1.4,10.2,5.3,14.9,8.4c1.2,0.8,2.1,2,2.8,3.2c0.4,0.7,0.2,1.8,0.3,3.3
			c-2.8-2-5.2-3.6-7.4-5.3c-7.4-5.6-15.6-8.5-24.9-8.9c-2.5-0.1-4.7,0.6-6.8,1.9c-0.1,0.1-0.2,0.2-0.4,0.3c-3.6,1.7-5.9,4.6-7.9,7.9
			c-3.5,5.7-5.4,11.7-6.3,18.3c-0.6,4.6-1.1,9.2-1.1,13.8c0,1.3-0.2,2.5-0.4,4c1.7,1.6,2.3,3.7,2.7,6.2c0.9,6.3,2.5,12.5,5.3,18.3
			c1.5,3.1,2.5,6.5,3.8,9.8c1.8,4.6,2.8,9.4,4.9,13.9c0.8,1.7,1,3.6,0.9,5.5c-0.2,1.7,0,3.5,0.5,5.2c1.1,3.6,2.6,7.2,3.8,10.8
			c0.6,1.8,1.1,3.6,1.6,5.5c0.2,0.6,0.3,1.4,0.7,1.7c1.9,1.3,1.8,3.3,2.2,5.1c1.4,7.2,3,14.4,4.4,21.6c1.1,5.9,2.9,11.7,2.8,17.8
			c0,1.2,0.4,2.5,0.7,3.8c0.2,0.8,0.6,1.6,0.5,2.3c-0.3,3.9,1.1,7.5,2.2,11.2c0.5,1.7,0.8,3.5,0.8,5.2c0.1,6.7,0.8,13.4,2.2,20
			c0.3,1.4,0.2,2.8,0.2,4.2c0,1.3-0.1,2.5-0.1,3.8L441.5,643z"/>
		<path class="st1" d="M490.9,304.6c-1.1-2.2-1.7-4.1-1.9-6.2c-0.4-3.4-1.4-6.8-2.6-10.1c-1.3-3.5-1.7-7.1-1.8-10.7
			c-0.1-1.3,0-2.5-0.7-3.6c-1.2-2-0.4-4.8-2.5-6.5c0.2-2.3-1.2-4.3-1.5-6.4c-0.5-3.1-0.4-6.3-0.5-9.9c-0.6-0.4-1.5-1-2.6-1.7
			c-0.1-2.4-0.2-4.9-0.4-7.4c0-0.6-0.1-1.3-0.3-1.8c-0.9-2.4-1.1-4.9-1.6-7.4c-0.8-3.6-1.4-7.5-4.2-10c0-0.6-0.1-1,0.1-1.2
			c3.1-3.2,1.9-6.5,0.3-9.8c-0.6-1.4-1.7-2.7-1.5-4.5c0.1-0.5-1.2-1.2-2-1.9c-0.2-3.4-0.4-7-0.8-10.6c-0.3-3.1-0.9-6-2.6-8.9
			c-1.8-3.1-2.8-6.6-2.4-10.5c-0.4-0.5-0.9-1.1-1.5-1.6c-2-1.8-2.6-3.8-2-6.5c0.7-3,0.1-6-1.5-8.7c-0.7-1.3-0.8-2.4,0.2-3.5
			c0.7-0.7,0.7-1.8-0.1-2c-2-0.7-1.5-2.1-1.3-3.5c2.6,0.3,2.6,0.3,2.8,2.6c0.9,0.2,1.9,0.5,3.2,0.8c0.1,0.8,0.2,1.7,0.3,2.7
			c-1.1,0.2-2.1,0.4-2.9,0.5c-0.5,1.6,0.9,1.7,1.3,2.4c0.3,0.7,0.4,1.5,0.7,2.2c0.4,0.7,1.3,0.8,3.5,0.7c-0.1,1.7-0.2,3.5-0.4,5.1
			c1.3,1,2.5,1.9,3.6,2.8c-0.7,2-3.5,0.7-3.6,3c1.5,1.1,3-0.2,4.8-0.2c0.4,1.3,1.6,2.5-0.5,3.8c-0.5,0.3,0.1,1,0.7,1.4
			c1,0.6,2-1.2,3.2,0.4c-0.5,0.5-1.1,1-1.5,1.4c-2.1-0.2-3.8-1.4-5.7-0.7c0.1,1.2,1.1,1,1.8,1.2c1.2,0.3,2.6,0.3,2.4,2.3
			c0,0.3,1.3,0.7,2.3,1.1c0.1,1.8-0.4,4,1.3,5.6c-0.8,2.1,0.7,4,0.6,6c-0.1,1.9,0.7,3.4,1.7,5c-0.7,0.2-1.4,0.4-2.2,0.6
			c0.1,2.1,2.6,1.6,3.3,3.3c0,0.4,0,1-0.2,1.6c-0.4,1-0.4,1.8,0.3,2.6c0.3,0.3,0.9,0.8,0.8,1.1c-0.4,2.8,1.6,4.7,2.6,6.9
			c0.7,1.5,1.1,2.9,0.9,4.6c0,0.2,0.7,0.5,1.3,0.9c-1,1.7-0.9,3.8-0.2,5.7c0.6,1.4,2.1,2.5,2.4,3.9c0.2,1.2-0.8,3,0,4
			c1.6,2,0.7,4.8,2.4,6.6c0.3,0.3,0.3,1,0.1,1.3c-1.4,2.8,0.9,5.5,0,8.3c-0.1,0.2,0.1,0.7,0.3,0.9c1.7,1.5,2.1,3.3,1.3,5.4
			c1.6,2-0.2,3.5-0.8,5.1c2.7,1,2.7,1.4,0.6,5.4c0.8,0.4,1.6,0.7,2.2,1.3c0.3,0.3-0.1,1.1-0.2,1.7c0,0.6-0.2,1.5,0.1,1.6
			c1.1,0.7,0.9,1.8,1.1,2.9c0.2,1.3,0.5,2.7,1.4,4c1.2,1.6,1.7,3.7,2.4,5.7c0.1,0.4,0,0.9-0.1,1.3c-0.2,1.9-0.5,3.8,0.7,5.5
			c0.4,0.6,0.2,1.5,0.3,2.3c0.1,1.3,0.1,2.6,0.4,3.8c0.3,1.3,0.5,2.6-0.2,3.7C494.5,303.4,493,304.3,490.9,304.6z M469.9,190.2
			c0.2-0.1,0.5-0.3,0.7-0.4c-0.2-0.2-0.4-0.5-0.6-0.4c-0.3,0.1-0.6,0.3-0.9,0.5C469.4,190,469.6,190.1,469.9,190.2z"/>
		<path class="st1" d="M922.1,1018.7c-2-1.6-2.3-3.7-1.5-5.8c-0.9-1.3-2.5,0.4-2.9-1.1c-0.2-0.7,0-1.5,0-2.6c-0.7-0.8-2.5-1-2.8-3
			c-0.2-1.1-1.3-2.1-2.2-3c-2.3-2.4-4.4-4.8-4.8-8.3c-0.1-0.5,0-1.1-0.3-1.4c-2.4-2.4-2.3-5.9-3.6-8.7c-1.1-2.6-0.9-3.6,1.1-5.4
			c0.6-0.5,1.3-0.9,2.1-1.4c1.7,1.6,2.9,3.1,3.4,5.5c0.7,3.4,2.6,6.5,4.7,9.3c2.3,3,3.4,6.4,4.7,9.8c0.5,1.2,0.8,2.3,1.7,3.2
			c0.5,0.4,0.8,1,1.2,1.5c1,1.2,1.2,2.8,2.8,3.7c1.2,0.7,1.7,2.5,2.7,3.6c2.8,3.2,4.5,6.9,5.7,11c1.1,0,2.1,0,3.3,0
			c1.3,2.3,2.5,4.5,3.8,6.7c0.1,0.1,0.1,0.3,0.2,0.4c3.1,2.7,5,6.5,8.2,9.1c2,1.6,3.8,3.8,6.4,4.1c0.3,0.6,0.6,0.9,0.5,1.2
			c-1.1,4.4,2.3,6,5,8c1.3,0.9,3,1.2,3.9,2.7c0.1,0.2,0.6,0.5,0.8,0.4c2.5-0.9,3.1,1.1,4.2,2.6c2.6,3.5,6,6.5,9.5,9.1
			c0.6,0.4,1.5,0.4,2.2,0.7c1.9,0.7,3.7,1.7,5.4,2.8c1.6,1,3.3,1.8,4.1,3.5c0.7,0,1.2,0.1,1.6,0.1c2.9-0.3,5.1,0.6,6.9,3.2
			c1.7,2.4,4.2,3.8,7.1,4.5c1.4,0.3,2.3,0.9,2.5,2.4c0.3,1.5,1.1,1.5,2.5,1c0.6-0.2,1.6,0.5,2.8,0.9c-0.7,1-1.2,1.7-1.8,2.5
			c-0.7-0.6-1.3-1.1-2-1.6c-0.9,0.6-1.7,1.3-2.8,2c-0.7-0.5-1.5-1-2.2-1.5c0.5-0.9,1-1.7,1.4-2.5c-4.5-1.9-4.5-1.9-8.1-0.2
			c-1.1-0.9-2.2-2-3.4-3c-1.5-0.3-2.7,2.2-4.8-0.2c-0.5-0.9,3-2,0.9-3.9c-1.8,0.7-1.9,2.9-3.3,3.8c-0.8-0.5-1.6-1-2.4-1.5
			c0-0.8,0-1.5,0-2.2c-2.2-0.7-1.9,1.8-3.2,2.2c-0.7-2.1-0.7-2.5,0.4-3.2c1.3-0.8,2.7-1.6,4.1-2.3c-0.7-1.2-1.4-0.7-2.1-0.4
			c-0.8,0.5-1.5,0.5-4,0.4c-0.8,0-1.6,0.3-2.5,0.5c-1.2-1-2-2.6-3.8-3.2c-1.8-0.6-2.5-3.1-4.6-3.8c-1-2.3-3.3-2.8-5.5-3.7
			c0.7-0.7,1.2-1.2,1.7-1.6c-0.3-0.6-0.3-0.6-4.3-0.5c-0.4-0.7-0.8-1.5-1.2-2.3c-0.1-0.3-0.2-0.7-0.5-0.8c-1.1-0.5-2.5-0.7-3.3-1.6
			c-0.8-0.9-1.4-1.8-2.7-2.3c-1.9-0.7-4.1-1.7-5.1-3.3c-1-1.6-2.8-2.2-3.5-4.2c-0.7-1.9-2.3-3.7-4.8-3.9c-1.1-0.1-1.9-0.9-1.8-2.4
			c0.1-0.6-0.6-1.4-1.2-1.9c-1.3-1.1-2.4-2.4-3.6-3.6c-1.5-1.6-3.5-2.7-3.4-5.3c0-0.5-1.4-1.2-1.3-1.7c0.1-1.1-0.8-1.2-1.1-1.8
			c-0.4-0.7-0.6-1.5-1.1-2.1c-0.5-0.6-1.3-0.8-1.9-1.3c-0.5-0.4-1.2-0.8-1.3-1.2c-0.3-1.1,0-2.2-1.4-3.1c-0.9-0.5-1-2.2-1.4-3.4
			c0.3,0,0.6,0.1,0.8,0c0.2-0.1,0.3-0.4,0.4-0.7c0-0.1-0.2-0.3-0.2-0.3c-0.2,0.1-0.6,0.1-0.7,0.3
			C922.1,1018.1,922.1,1018.4,922.1,1018.7z M976.1,1072.5c-0.1-0.3-0.1-0.5-0.2-0.7c-0.3,0.1-0.6,0.1-0.7,0.3
			c-0.1,0.2-0.1,0.5-0.1,0.7C975.5,1072.7,975.8,1072.6,976.1,1072.5z"/>
		<path class="st1" d="M669.6,203.7c1,1.9,0,3.3-1.3,4.4c0.2,1.8,1.6,3.5-0.1,5.1c-0.2,0.2,0.2,1.1,0.2,1.7c0.1,1.9,0.8,4,0.1,5.6
			c-0.7,1.8-0.1,3.6-1.2,5.3c-1.1,1.7-1.4,3.8-0.3,5.8c0.5,1,0.8,2-0.5,2.9c-0.5,0.4-0.9,1.4-0.9,2.1c0,1.7-0.2,3.4-0.5,5.2
			c-0.3,1.9,0.3,3.8-1.8,5c-0.1,1.5-0.2,2.9-0.9,4.3c-0.7,1.4-1.7,2.8-0.5,4.5c0.2,0.2,0.1,0.6,0.1,0.9c0.1,1.4-2.4,1.6-1.5,3.6
			c0.4,0.8-0.5,1.4-2.7,2.9c0.3,1.1,1.9,2,0.6,3.3c-0.7,0.8-1.7,1.4-2.5,2.1c1,1.3,2.4,2.6,0,3.8c-0.1,0.1-0.3,0.3-0.3,0.4
			c1.2,2.6-1,4.8-0.6,7.4c0.3,1.9-0.1,3.8-0.2,5.7c0,0.3,0.1,0.8,0,0.9c-2.2,2.5-2.2,5.8-3.3,8.7c-0.5,1.2-0.9,2.4-1.4,3.6
			c-1,2.9-1.7,3.4-4.9,3.6c-0.6,0-1.3-0.1-2.2-0.2c-0.1-2-0.5-3.9,0.6-5.9c1.7-3.3,2.1-7,2.5-10.6c0.4-3.7,1.8-7,3.1-10.4
			c0.3-0.7,0.7-1.4,0.9-2.1c0.4-1.9,1.1-3.8,0.8-5.6c-0.3-2.1,0.6-4,0.7-5.9c0.2-4.3,2-7.9,4.1-11.6c-0.6-0.7-1.4-1.6-2.2-2.6
			c1-2.5,2.5-4.9,2.9-7.5c0.6-3.9,1.4-7.7,2.3-11.5c-0.9-2.2,0.7-4.6-0.5-6.9c-0.5-1,0.2-2.2,1.5-2.6c1.9-0.6,2.5-1.9,2.5-4
			c0-1.8,0.5-3.7,0.3-5.6c-0.1-0.6-0.3-1.4,0-1.8c1.1-1.6-0.3-2.3-1.3-3.5c0.6-1.2,1.4-2.6,1.9-4c0.6-1.5,0.8-3.1,1.3-4.6
			c1.3-3.5,1.4-7,1.1-10.7c-0.3-3.4-0.3-6.9,1.5-10c-0.4-0.9-0.6-1.7-1-2.4c-1.1-2-0.8-3.9,0.4-5.8c1.5-2.5,2.3-5.2,2.1-8.2
			c-0.2-2.7-0.1-2.7,2.2-4.9c-0.8-1.4-2-2.9-0.2-4.6c0.6,0.3,1.2,0.7,1.9,1c-0.1,0.9-0.5,1.9-0.2,2.5c0.4,0.7,1.4,1.1,2.3,1.8
			c-0.1,0.7-0.2,1.4-0.4,2.3c-1.2,0-2.2,0-3.2,0c-0.1,0.4-0.3,0.7-0.3,0.9c0.2,0.6,0.8,1.3,0.7,1.7c-0.7,2.2,0.7,3.2,2.5,4.3
			c-0.5,1.4-1,2.9-1.5,4.2c0.4,1.6,2.8,2.1,1.9,4.1c-1.2,0.8-3.3-1.2-4.1,1.3c1.2,1.1,3,0.3,4.3,1.3c0.3,1.4,0.8,2.8-1.3,3.3
			c-0.6,0.1-0.5,1.2,0.1,1.4c0.9,0.3,1.7,0.4,2.8,0.6c-0.8,2-2.4,1.5-3.6,1.8c-1.5-2.5-1.7-2.6-3.9-2.4c1.1,1.3,2.4,2.1,4,2.3
			c-0.3,0.5-0.6,1-1,1.7c0.6,0.8,1.2,1.6,1.8,2.5c-0.8,1.6-1.7,3.1-1.1,4.8c-0.9-0.1-1.8-0.1-2.7-0.2c0.4,0.7,0.9,0.8,1.4,0.7
			c0.4-0.1,0.8-0.3,1.2-0.5c-0.3,1.3-0.7,2.5-1,3.8c-0.3,1.2-0.8,2.4-0.9,3.6c-0.1,0.9-0.1,1.9,0.2,2.8c0.4,1.3-0.5,2-0.9,3
			c0.5-1,0.3-1.8-0.9-2.1c-0.1,0-0.4,0.1-0.4,0.2C667.9,203,668.6,203.4,669.6,203.7z"/>
		<path class="st1" d="M316.6,291.3c0.1,0.1,0.3,0.1,0.4,0.3c2.7,2.8,2.7,2.8,2.4,6.6c0.7-0.1,1.5-0.3,2-0.1
			c0.4,0.2,0.7,0.9,0.9,1.5c0.1,0.4-0.1,1.3,0,1.3c2.6,0.8,2.5,4,4.5,5c2,1,2.8,3,4.5,4.3c0.7,0.5,1,1.1,1.1,2
			c0.3,1.8,1.3,3.1,2.4,4.5c1.7,2.1,2.7,4.7,3.8,7.1c0.5,1,0.4,2.2-0.4,3.2c-0.7,0.8-1.5,1.6-2.3,2.6c-1.9-1.1-3.3-2.3-4.2-4.4
			c-1.4-3.2-3.6-5.9-6-8.5c-2.5-2.5-4.1-5.7-5.5-8.8c-0.5-1.2-0.9-2.3-2-3.1c-0.5-0.4-0.9-0.9-1.3-1.4c-1.1-1.3-1.4-3.2-3.4-3.6
			c-0.6-1.7-2-2.8-3-4.2c-2.1-2.8-3.6-6-4.2-9.6c-1,0-1.9,0-3.1,0c-2.3-4-3.7-8.6-7.2-12c-1.6-4.7-5.4-7.5-9-10.6
			c0.2-0.7,0.2-1.4,0.5-1.9c0.7-1.6,0.5-2.9-0.7-4.3c-1.2-1.5-2.4-2.9-3.7-4.2c-0.8-0.9-1.5-2-2.3-3c-0.7-0.1-1.4-0.2-2.1-0.3
			c-1.3-3-2.5-5.9-3.7-8.9c-1.3-3.1-3.1-5.7-5.6-8c-2.5-2.3-4.7-5.1-5.2-8.7c-0.2-0.2-0.4-0.5-0.7-0.6c-3.1-1.2-4.9-3.1-5.2-6.7
			c-0.2-2.1-1.4-4.2-2.6-6c-1.8-2.8-1.9-2.7-1.8-5.9c-1.9-0.3-2.5-1.6-2.6-3.6c0.7-0.1,1.5-0.2,2.2-0.3c0.5,0.8,0.8,1.9,1.5,2.2
			c0.7,0.3,1.8,0,2.9-0.1c0.3,0.8,0.7,1.7,1.1,2.6c-1.1,0.5-2,0.9-3,1.4c1.3,1.3,2.3,2.4,3.3,3.4c1.1,1.1,2.4,0.1,3.7,0.2
			c0.3,1.6,0.6,3.1,1,4.6c2.1,0.5,2.8,0.8,4.3,1.9c-0.7,1.3-3.2,1.1-2.9,3.4c1.9,0.5,3-1.6,4.6-1.6c1,1,2.2,2,0.7,3.5
			c-0.4,0.4,0.4,1.3,1,1.1c0.3-0.1,0.7-0.1,0.9-0.3c0.5-0.5,0.7-1.7,1.7-0.7c0.2,0.2,0.2,0.6,0.2,0.9c-0.2,0.9-0.8,1.3-1.7,1.4
			c-1.1,0.1-2.2,0.1-3.3,0.3c-0.5,0.1-1,0.5-1.6,0.8c1.8,1.3,3.3-0.1,4.9,0.1c-0.1,2.3,2.1,1.3,3.1,2.2c0.5,1.2,0.6,2.5,1.6,3.7
			c1.4,1.6,2.6,3.6,3.2,5.6c0.6,2,1.8,3.2,3.7,4.4c-1.1,0.6-1.8,1-3.1,1.7c1.9,0.3,3.1,0.5,4.5,0.7c0.3,0.6,0.7,1.1,0.7,1.7
			c0.1,1.4,0.4,2.5,1.9,2.9c0.3,0.1,0.7,0.3,0.7,0.6c0.2,2.6,2.6,3.3,4.2,4.7c1.7,1.4,2,3.9,4.1,4.8c0.2,1.2,0.2,2.3,0.8,3.5
			c1.1,2.1,3.2,2.4,4.7,3.7c0.3,1.6,0.4,3.1,1.7,4.2c1.5,1.3,2.8,3,4.2,4.5c0.3,0.3,0.5,0.8,0.6,1.3c0.1,0.8,0,1.6,0.3,2.3
			c0.2,0.7,1.3,1.3,1.2,1.8c-0.2,1,0.7,0.9,0.9,1.5c0.3,0.7,0.6,1.5,1,2.2c0.2,0.4,0.6,0.8,1,0.9c1.4,0.5,2,1.3,2,2.8
			c0,0.5,0.6,1,1,1.4C317.2,289.9,317,290.6,316.6,291.3c0.1,0.5,0.2,1,0.3,1.5c0.1,0,0.1,0,0.2,0
			C316.9,292.3,316.8,291.8,316.6,291.3z"/>
		<path class="st1" d="M145.4,950.5c0.4-0.3,0.7-0.7,1.1-0.8c1.3-0.2,2.9,0.1,4-0.5c1.1-0.6,1.7-1.7,3.3-1.5
			c0.5,0.1,1.1-0.4,1.6-0.8c3.8-2.8,5.9-3.5,10.2-3.9c1.7-0.1,3.4-0.2,4.5-2c0.7-1.1,1.8-1.5,3.3-1c0.7,0.3,1.8-0.3,2.6-0.6
			c1.9-0.8,3.7-1.7,5.6-2.5c0.3-0.1,0.7-0.3,0.9-0.2c1.9,1.3,3.6-0.3,5.4-0.4c1.8-0.1,4,0.4,5-1.9c0.1-0.2,0.6-0.3,0.9-0.2
			c2.1,0.7,4.2-1.2,6.3-0.1c0.2,0.3,0.4,0.6,0.6,0.9c0.1-0.1,0.2-0.2,0.2-0.3c-0.3-0.2-0.6-0.3-0.9-0.5c3-1.6,3-1.6,6.2-0.2
			c0.2-0.7,0.3-1.4,0.7-1.9c0.6-0.7,1.3-0.6,2.1-0.1c0.4,0.2,1.1-0.2,1.6-0.4c0.2-0.1,0.4-0.7,0.6-0.7c3.6,0.3,5.9-3,9.2-3.6
			c0.6-0.1,1.1-0.8,1.7-0.8c2.2,0,4.3,0,6.5-1c1.8-0.9,4-0.8,6.1-1.1c1.7-0.3,3.2,0.2,4.1,1.8c0.5,0.8,0.9,1.7,1.4,2.7
			c-1.4,1.5-3,2.3-5,2.5c-3.5,0.3-6.8,1.5-9.9,3c-3.2,1.6-6.7,1.9-10.1,2.3c-1,0.1-1.8,0.2-2.7,0.6c-1.5,0.6-3,1-4.5,1.6
			c-1.4,0.6-2.6,1.5-4.1,1.9c-2.1,0.6-4.2,1.6-6.4,1.8c-2,0.2-4.1,0.3-6.3,0.5c-0.4,0.7-0.8,1.6-1.3,2.6c-2.2,0.3-4.7,0.3-6.9,1
			c-4,1.2-8.3,1.8-12.1,3.6c-2,0.9-4,1.6-5.3,3.2c-0.6,0-1,0.1-1.2,0c-3.3-2.7-6.4-1.4-9.5,0.4c-1.3,0.8-2.8,1.3-4.4,2.1
			c-0.2,0.5-0.5,1.2-0.7,1.6c-3.3,0.4-6.5,0.8-9.6,1.2c-3.2,0.4-5.9,1.5-8.7,3.2c-2.7,1.8-5.8,3-9.5,3c-0.7,0.8-1.6,1.7-2.5,2.6
			c-0.9,1-2.1,1.4-3.5,1.2c-4.1-0.8-7.9-0.1-11.5,1.9c-1-0.7-1.9-1.2-2.9-1.8c-1.2,0.9-2,2.9-4.2,1.4c0-0.5,0.1-1.2,0.2-1.9
			c0.9-0.2,1.9-0.2,2.5-0.7c0.5-0.4,0.4-1.4,0.7-2.5c0.7-0.1,1.6-0.2,2.5-0.3c0.3,1.1,0.5,2.1,0.8,3.2c1.7-0.1,2.1-2,3.9-1.9
			c1.3,0,1.2-2,1.2-3.3c1.6,0,3.1,0,4.8,0c0.7-1.1,1.4-2.3,2.3-3.8c1,1.6,1.7,2.8,2.7,4.3c1.3-2-0.4-3.4-0.1-4.9
			c0.6-1.1,1.6-1.5,2.7-0.7c0.5,0.3,0.9,1.1,1.5,0.5c0.3-0.3,0.3-1.1,0.3-1.7c0-0.4-0.3-0.9-0.4-1.3c1.6,0,2.3,0.5,2.2,1.5
			c-0.2,1.7-1,3.3-0.1,5.5c0.6-1.7,0.9-3,1.6-4.2c0.6-1,1.5-1.9,2.5-3c1.2,0,2.8,0.4,4.2-0.9c0.5-0.5,1.2-0.3,1.6,0.4
			c-0.2,0.2-0.4,0.4-0.5,0.7c0,0.2,0.2,0.4,0.2,0.6c0.1-0.2,0.3-0.4,0.3-0.6c0-0.3-0.1-0.6-0.2-0.8c2-0.3,3.6-1.8,5.8-1.7
			c1.4,0,2.8-1.2,4.2-1.9c-0.1,0.3-0.2,0.6-0.3,0.8c-0.3,0.6-0.4,1.2,0.4,1.3c0.2,0,0.7-0.5,0.8-0.8
			C145.6,951.4,145.4,951,145.4,950.5z"/>
		<path class="st1" d="M87.8,666.4c0.3-0.4,0.5-0.9,0.8-1.2c0.6-0.7,1.6-0.6,1.8,0.2c0.2,0.9,0.2,1.9,0.3,2.8c-1,1.4-1,1.4-1.1,3.6
			c1.5-1,1.4-2.3,1-3.7c1.2-0.5,2.8-0.1,3.5-1.7c0.1-0.3,0.8-0.7,1.1-0.7c3.3,0.7,6.5-0.2,9.8-0.3c1.7-0.1,3.4-0.3,5-0.5
			c0,0.4,0.1,1,0.1,1.6c0.3,0,0.7,0.2,0.8,0.1c0.8-0.9,1.6-1.9,2.4-3c1,0.4,1.9,0.8,2.9,1.2c1.3-0.6,2.6-2.3,4.6-1.2
			c0.3,0.2,1-0.6,1.6-0.8c2-1,3.9-1.9,6.3-1.6c1.4,0.2,2.8-0.6,4.4-0.2c1.6,0.4,3.4,0,4.7-1.5c0.6-0.7,1.6-1,2.6-0.4
			c1.2,0.7,2.3,0.4,3.5,0c1.8-0.7,3.6-0.9,5.5-1.4c0.3-0.1,0.7-0.1,0.9,0c2.4,1.2,4.9,0.1,7.3,0.6c0.6,0.1,1.3,0,1.8-0.2
			c0.7-0.3,1.5-1.2,2-1.1c1.5,0.5,3,0,4.5,0.4c0.4,0.1,0.8,0.5,1.2,0.7c0.2,0.2,0.4,0.4,0.7,0.5c0.2,0.1,0.4,0.1,0.7,0.2
			c-0.1-0.3-0.1-0.7-0.2-0.7c-0.4,0-0.8,0.1-1.2,0.1c3.3-1.5,3.3-1.5,6.9,0.5c0.9-2.1,1.1-2.3,2.5-1.6c1,0.5,1.7,0.7,2.4-0.3
			c0.1-0.1,0.3-0.3,0.4-0.3c3,0.9,5.4-1.4,8.1-1.9c2-0.4,4-0.9,6-0.3c0.4,0.1,1,0.4,1.4,0.2c2.5-1.3,5.1-0.1,7.5-0.5
			c2.8-0.5,4.2,0.9,5,3.3c0.2,0.6,0.3,1.2,0.6,2c-1.7,1.1-3.3,1.8-5.4,1.5c-3.4-0.5-6.6,0.6-9.9,1.3c-2.7,0.5-7.9,1-10.8,0.6
			c-0.8-0.1-1.6,0-2.3,0.1c-0.8,0.1-1.5,0.4-2.3,0.7c-1.3,0.4-2.8-0.4-4,1c-1.1,1.1-2.7-0.1-4.1,0.5c-3.8,1.5-7.5,0.2-11.6,0.3
			c-0.3,0.5-0.9,1.2-1.6,2.2c-1.3,0-2.7,0-4.1,0c-2.5-0.1-5.1-0.3-7.6,0.6c-0.7,0.3-1.6,0.3-2.4,0.2c-4.1-0.3-7.7,1-11.3,3
			c-0.4-0.1-0.9-0.1-1.3-0.4c-1-0.7-2-2-3.1-2.1c-1.7-0.2-3.4,0.2-5.1,0.7c-1.8,0.6-3.5,1.5-5.4,1.1c-0.5,0.7-1,1.4-1.4,2
			c-0.4,0-0.7,0.1-1,0c-4.5-0.9-9.1-1.1-13.7-0.5c-0.6,0.1-1.4,0-1.9,0.3c-2.5,2-5.7,1.5-8.5,2.4c-0.9,0.3-2.1-0.3-3.4-0.5
			c-0.4,0.3-0.8,0.7-1.3,1.1c-1.8,1.6-3.8,2.2-6.2,1.3c-2.7-1-5.6-1.2-8.4,0c-1.8,0.8-3-0.1-4.1-1.5c-1.4,0.6-2.3,2.7-4.4,1
			c0.1-0.6,0.3-1.4,0.4-2.3c0.9,0,1.7,0,2.5,0c0.4-0.9,0.7-1.7,1.2-2.7c0.9,0,1.9,0.1,2.7,0.1c0,1.2,0,2.2,0,3.4
			c2.6-1.3,5.4-1.8,6.3-4.7l-0.1,0.1c0.8,0.1,1.6,0.2,2.3,0.3c0.6,0.1,1.2,0.2,1.7,0.3c1.1-1,1.2-2.8,3-2.9c1.4,0.8-0.4,3.4,2.3,3.6
			c0.1-1.5,0.2-3,0.3-4.7c1.3-0.1,2.5-0.3,3.7-0.4c-0.6,0.6-1.1,1.2,0.1,1.7c0.1,0,0.6-0.3,0.6-0.5C89,666.8,88.7,666.3,87.8,666.4z
			 M100.2,667.4c-0.1-0.1-0.1-0.3-0.2-0.3c-0.1,0-0.2,0.1-0.3,0.2c0.1,0.2,0.2,0.3,0.4,0.5C100.1,667.6,100.2,667.5,100.2,667.4z"/>
		<path class="st1" d="M195.1,1065.2c0.4-0.8,0.8-1.7,1.3-2.6c1.1-0.2,1.7,0.3,2,1.4c0.3,1.5,0.7,3.1,1,4.8c1.6-1.7-0.2-3.2,0.3-4.6
			c1.7-0.1,1.3-1.5,1.6-2.4c3.6-2.4,8-3.4,11.5-6c1-0.7,1.4,0.4,2.1,0.5c0.1,0,0.4,0,0.4-0.1c0.2-0.9,0.4-1.8,0.7-2.8
			c1.6-0.5,3.3-0.4,4.6-2.1c0.8-1.1,2.7-1.1,3.6-2.7c1.4-2.3,4-3.2,6.4-3.9c2.1-0.6,3.8-1.3,4.6-3.4c0.2-0.4,0.7-1,1-1
			c3.5,0.3,5.2-2.6,7.6-4.2c0.3-0.2,0.6-0.4,0.9-0.3c2.2,0.4,3.8-1.1,5.6-1.8c0.6-0.2,1.5-0.4,1.7-0.8c1.2-2.5,3.7-2.4,5.8-3.2
			c0.8-0.3,2.1,0.4,2.2-1.3c0-0.3,1.1-0.6,1.7-0.6c0.7-0.1,1.5,0.1,2.3,0.2c0.1-0.9-0.4-1.8,0.6-2.3c3.1-1.4,4.6-2.7,6.7-5
			c1.6-1.8,3.1-4,5.9-4.3c0.6-0.1,1.3-0.5,1.6-1c1.5-2.3,4.5-2.3,6.3-4.2c0.4-0.4,1.9-0.3,2.7,0.1c1.1,0.5,2,1.5,3.2,2.4
			c-0.7,1.7-1.6,2.9-3.2,3.9c-2.4,1.5-4.9,3.1-6.8,5.2c-2.4,2.7-5.5,4.1-8.6,5.7c-2.1,1.1-4,2.6-5.6,4.3c-3.5,3.8-7.8,5.8-12.8,7
			c-0.3,0.9-0.6,2-0.9,2.9c-3.4,1.5-7,2.3-10,4.6c-1.8,1.4-4.2,1.8-6.1,3.4c-1.4,1.1-2.5,2.3-3.7,3.9c-1.4-0.5-2.9-1.1-4.4-1.6
			c-2.6,1.8-5.2,3.5-7.7,5.3c-0.5,0.4-0.5,1.4-0.7,2.1c-2.9,0.9-5.8,1.7-8.6,2.7c-2.2,0.8-4.3,1.9-5.7,4.1c-1.3,2.1-3.9,2.6-5.4,4.4
			c-2.1-0.1-2.6,1.4-3.1,2.9c-0.4,1.1-0.9,2.1-2.2,2.3c-3.6,0.6-6.7,1.9-8.2,5.5c-1.3-0.1-2.2-0.2-3-0.3c-1.2,0.5-0.3,1.5-0.7,2.3
			c-0.6,0.2-1.3,0.5-2.2,0.8c-0.3-0.9-0.5-1.6-0.8-2.3c1.8-1.4,1.8-1.4,1-3.9c0.3-0.3,0.6-0.7,0.9-1c0.4-0.3,0.9-0.4,1.3-0.6
			c0.5,0.8,0.9,1.6,1.4,2.4c2.9-3.4,2.9-3.4,1.9-6.3c1.3-0.5,2.6-1,3.9-1.5c0.7-1.3-0.6-3.1,1.2-3.9c1.3,0.3,1.2,2.7,3.5,2.3
			c-0.7-1.5-1.4-2.8-2.1-4.3c0.8-0.5,1.4-1,2.1-1.5c0.6,0.4,1.1,0.8,2.2,1.5c-0.2-1.2-0.4-1.8-0.6-2.8
			C196,1064.5,195.6,1064.9,195.1,1065.2z M206.4,1060.6c-0.1,0.1-0.2,0.2-0.2,0.3c0,0.1,0.1,0.3,0.1,0.4c0.1-0.1,0.2-0.2,0.2-0.3
			C206.6,1060.8,206.5,1060.7,206.4,1060.6z"/>
		<path class="st1" d="M715.6,517.6c0.5-1-1.1-2.1,0.3-3.1c0.2-0.1,0.4-0.6,0.4-0.8c-2.1-3.7,0.4-7.1,0.5-10.6
			c0-0.8,0.1-1.6,1.1-1.9c0.2-0.1,0.6-0.8,0.4-1.1c-1-1.9-0.4-3.8-0.2-5.6c0.4-3.5,1.6-6.8,1.6-10.4c0-0.4,0.3-1,0.6-1.2
			c0.7-0.6,1-1.2,0.7-2.1c-1-3-0.9-6,0.9-8.7c0.2-3.8,1.4-7.4,2.1-11.2c0.8-4.2,1.1-8.5,2.7-12.5c-0.4-3.3,2.2-5.7,2.8-8.8
			c0.5-2.6,1.5-5.2,1.6-7.9c0-0.6,0.1-1.3,0.3-1.9c2.3-5.9,4.6-11.8,7-17.7c0.2-0.6,0.6-1.1,1-1.6c3.8-5,7.7-10,10.9-15.4
			c0.3-0.5,0.7-1.1,1.2-1.4c1.9-1.4,3.4-3.2,5.2-4.7c2.2-1.8,4.8-3.1,7.1-4.7c1-0.7,2.3-1.1,3.6-1.2c2-0.1,3.8-0.1,5.4-1.4
			c0.3-0.3,0.9-0.3,1.4-0.3c0.3,0,0.7-0.1,0.9,0c2.7,1.7,5.9,0.2,8.8,1.5c4.8,2.2,9.2,4.6,12.9,8.7c5.5,5.9,8.5,13,11.3,20.3
			c0.9,2.6,1,5.3,0.3,8c-0.3,1.1-0.8,2.1-2.5,2.3c-0.3-2.5-0.7-4.9-0.8-7.4c-0.1-2-0.6-3.8-1.6-5.5c-0.5-0.8-1-1.7-1.4-2.5
			c-1.8-4.5-4.2-8.6-8-11.6c-0.7-0.6-1.2-1.5-1.8-2.2c-2.4-3.6-6.4-5.2-9.8-7.5c-0.5-0.3-1.2-0.3-1.8-0.3c-1.1-0.1-2.2-0.1-3.4-0.1
			c-6.4-0.6-11.8,1.8-16.3,6.1c-3.1,3-6.2,6-9.3,9c-0.9,0.9-1.9,1.7-3.1,2.9c0.1,2.6-1.4,4.9-3.1,7.3c-3.4,4.8-6.5,9.8-7.8,15.7
			c-0.7,2.9-2,5.7-2.8,8.6c-1.1,4-2,8-2.8,12.1c-0.4,2.2-1,4.3-2.4,6.1c-0.9,1.1-1.5,2.5-1.8,3.9c-1,3.8-1.7,7.7-2.5,11.6
			c-0.3,1.4-0.6,2.8-0.9,4.2c-0.1,0.6-0.5,1.4-0.3,1.8c1.1,2.3,0.1,4.4-0.3,6.5c-1.4,7.5-2.9,15-4.3,22.5c-0.2,1.2-0.2,2.5-0.2,3.8
			c-0.1,6.2-0.6,12.4-1.5,18.5c-0.2,1.1,0,2.2,0.2,3.3c1,4.8,0.9,9.5,0.1,14.3c-0.7,4.4-1.3,8.8-0.8,13.3c0.1,1.4-0.2,2.8-0.3,4.3
			c-0.1,1.6-0.3,3.2-0.4,4.7l0.1-0.1c-1.3-0.7-2.2-1.7-2.3-3.3c0-1.7,0.1-3.2,1.7-4c-0.2-2.2-0.3-4.2-0.5-6.2c-0.1-1.4,0-2.9-1.3-4
			l0.1,0.1c0-0.5-0.1-1,0.1-1.4c1-3.9,1.6-7.8-0.3-11.6c-0.2-0.4-0.1-0.9-0.2-1.5c0.5-0.3,1.2-0.5,1.6-1c1.4-1.7,0.9-2.8-1.8-3.4
			c0-2.3-0.7-4.7,1.6-6.6c-0.5-1-1-1.8-1.4-2.7c-0.7-1.5-0.5-1.7,1.7-2.4c-0.5,1.4,0.1,2.2,1.6,3.2C717.4,519,717,518,715.6,517.6z"
			/>
		<path class="st1" d="M817.8,1099c0.2-0.2,0.7-0.6,1.3-1.2c-1.2-0.3-2.2-0.5-3.3-0.8c-0.4-1.9-0.4-3.9-2.5-4.8
			c0.2-1.8-1.2-2.3-2.2-3.2c-2.1-1.8-3.1-4.3-3.8-6.9c-0.4-1.4-0.6-2.9-1.9-3.6c-1.6-0.9-1.9-1.9-2.1-3.7c-0.2-1.9-1.9-3.6-2.9-5.3
			c-0.3-0.5-1-1.2-0.9-1.6c0.7-2.1-0.7-3.8-1-5.7c-0.1-0.9-0.6-1.7-1.1-2.6c-0.4-0.7-1.2-1.2-1.3-1.9c-0.3-1.3-0.8-2.9-0.3-4
			c0.6-1.4,0-1.6-0.9-2.3c-0.4-0.3-0.3-1.5-0.2-2.2c0.1-0.6,0.5-1.1,0.6-1.5c-0.8-0.5-1.5-1-2.2-1.4c1.2-1.8-1.1-2.6-1.2-4
			c-0.1-1.7-1.4-2.7-2.2-4.1c-1.2-1.9-2.8-3.9-2.1-6.6c0.1-0.4,0-1.1-0.2-1.4c-2-2.1-0.7-5-1.9-7.3c-0.5-1.1,0.2-2.3,1.1-3
			c1-0.8,2.2-1.3,3.4-2c1.4,1.3,2.2,2.6,2.5,4.4c0.5,2.5,1,5.1,2.2,7.3c1.1,2,1.6,4.1,2.4,6.1c0.9,2.3,0.3,5,2,7.2
			c1.4,1.8,2,4.2,3.1,6.2c1.9,3.1,2.3,6.6,2.6,10.2c0.9,0.3,1.7,0.6,2.8,0.9c0.4,1.7,0.8,3.6,1.4,5.4c0.3,0.9,0.6,1.8,1,2.6
			c0.6,1.4,1.5,2.7,1.9,4.3c0.3,1.4,1.9,2.5,2.4,4c0.6,1.8,2.1,2.3,3.3,3.6c-0.5,1.3-0.9,2.6-1.5,4.2c1.6,2.4,3.3,5,5.1,7.5
			c0.1,0.2,0.6,0.4,0.8,0.4c1.6-0.2,1.8,0.9,2.1,2c0.7,2.5,1,5.1,2.1,7.3c0.9,1.9,1.9,3.8,3.9,5.2c2.3,1.7,4,4.4,4.8,7.4
			c0.8,0.4,1.7,0.8,2.6,1.1c1.3,0.5,2.1,1.4,2.2,2.8c0.2,3.4,1.9,6,4.6,8.1c-0.1,1-0.2,1.9-0.4,2.8c0.7,1,3.2,0.2,2.4,2.8
			c-0.6,0.2-1.3,0.4-2,0.7c-1.2-1.5-1.2-1.5-4.2-1.3c-0.3-0.6-0.7-1.3-1-2.1c0.9-0.4,1.7-0.8,2.9-1.3c-1.1-1-1.9-2-3-2.5
			c-0.9-0.4-2.2-0.2-3.4-0.2c-0.3-1-0.6-2-1-3.3c-1.1-0.3-2.4-0.6-4.1-0.9c1.2-1.3,2.1-2.3,3.5-3.7c-2.4,0.1-3.4,1.5-4.9,1.9
			c-2.4-0.7-0.5-2.7-1.2-4c-1,0.5-1.8,0.9-3.6,1.7c0.8-1.5,1.1-2.1,1.5-2.7c1.7-0.7,3.7,0.3,5.1-1.1c-0.5-1.2-1.3-0.5-1.9-0.3
			c-2.1,0.6-3.8-0.6-5.1-1.9c-1.1-1.1-1.5-3-2.2-4.5C820.2,1103.8,819,1101.5,817.8,1099z"/>
		<path class="st1" d="M117,815.7c4.2-0.3,8.2-0.6,12.3-1c0.2,0.4,0.6,1.9,1.2,0.7c1-1.8,1.8-2.5,3.7-1.5c0.2,0.1,0.8,0,0.9-0.2
			c1-1.8,3,0,4.3-1.3c2-2,4.9-1.9,7.5-2c0.9,0,1.9,0.2,2.8,0c1.7-0.5,2.9-2.8,5.1-1.2c1.8-0.5,3.7-1,5.5-1.4
			c0.7-0.1,1.5,0.1,2.2,0.2c2.9,0.6,3.4,0.6,7.2-0.6c0.4-0.1,0.9-0.2,1.4-0.1c4,0.9,8,0.2,12,0.5c1.9,0.1,3.8-0.8,5.7-1.6
			c2.4-0.9,4.6-1.8,7.3-1.1c1.9,0.5,4-0.5,6.1-0.3c4,0.4,4,0.2,5.4,4c0.1,0.3,0.1,0.6,0.1,1c-0.7,1.5-2.1,2.1-3.5,1.8
			c-2.7-0.6-5.2,0.2-7.5,0.9c-2.7,0.8-5.4,1.2-8,1c-3.1-0.2-5.9,0.5-8.7,1.4c-3.9,1.2-7.8,1.6-12,0.3c-0.5,0.7-1.1,1.4-1.9,2.4
			c-3.4-0.3-6.9,0-10.5,0.3c-3.6,0.2-6.7,1.4-10.4,3.2c-0.6-0.9-1.3-2-2-3.2c-3.1,0.8-5.8,1.6-8.5,2.3c-0.3,0.1-0.6,0.3-0.7,0.5
			c-0.6,1.7-1.8,1.3-3.1,1.1c-2.5-0.2-5.1-0.4-7.6-0.3c-1.7,0-3.3,0.8-4.9,1.6c-2.2,1.1-4.6,1.8-7.4,1.3c-1.2,1-2.5,2.1-3.8,3.2
			c-3.2-1-6.3-1.7-9.4,0c-0.5,0.3-1.7,0-2.1-0.4c-1-1-1.6-0.6-2.2,0.3c-0.2,0.2-0.6,0.4-0.8,0.4c-0.5,0-1-0.1-1.3-0.4
			c-0.2-0.2-0.1-0.8,0-1.3c0.1-0.3,0.3-0.8,0.5-0.8c2.2,0.1,1.4-2.2,2.5-3.2c0.5,0,1.2,0,1.9,0c0.1,1,0.2,2,0.3,3.2
			c1.9-1.4,4.6-1.7,4.1-4.9c1.3,0.2,2.5,0.4,3.7,0.5c0.7-1.1,1.3-2.1,2.1-3.4c0.6,1.5,1.1,2.6,1.6,3.7c0.2,0,0.4-0.1,0.7-0.1
			c0-1-0.1-2.1,0-3.1c0.1-0.5,0.4-1.2,0.9-1.5c0.6-0.4,1.2-0.1,1.6,0.5c0.2,0.2,0.5,0.3,0.7,0.5c1.3-0.7,0-1.7,0.3-2.5
			c0.7-0.5,1.2-0.2,1.4,0.5c0.2,0.9,0.1,1.9,0,2.8c-0.1,0.9-0.5,1.8-0.5,2.8C114.5,819.1,115.4,817,117,815.7z M121.7,817.3l0.3,0
			l-0.1-0.4L121.7,817.3z"/>
		<path class="st1" d="M106.1,533.9c0.5-0.6,0.9-1.2,1.7-2.2c0.3,1.3,0.4,2,0.6,2.7c0,1.1,0.1,2.1,0.1,3.2c-0.1,0-0.3-0.1-0.4-0.1
			c-0.2-0.1-0.5-0.1-0.7-0.2c0,0.2,0,0.4-0.1,0.6c0.2-0.1,0.5-0.2,0.7-0.2c0.1,0,0.3,0,0.4,0c-0.2-1.1,0.7-2.3-0.2-3.3
			c0.8,0.7,1.3,1.9,2.7,0.8c0.6-0.5,4,0.2,5.8,0.6c2.3,0.5,4.6,0.9,7.1,1.3c0,0.3-0.1,0.8-0.2,1.4c1.5,0.5,1.5-1.4,2.9-1.6
			c2.5,1.1,5.4,1.5,8.2,0.5c2.4-0.8,4.7-0.1,7,0.7c1.6,0.5,3,0.7,4.5-0.3c0.7-0.4,1.4-0.4,2.2,0.2c0.5,0.4,1.5,0.5,2.2,0.5
			c1.7,0,3.7-0.7,5.1-0.1c1.6,0.7,3.3,0.8,4.8,1.4c1.1,0.4,2.3,1.1,3.6,0c0.3-0.3,1.2,0,1.8,0.2c2.5,1,5.4,0.3,7.7,2.1
			c1.7-1.2,3.4,0.6,5.3,0.1c1.5-0.4,3.3,0.1,5-0.4c2.2-0.6,4.5-0.6,6.9,0.4c1.9,0.8,4.3,0.9,6.4,1.3c2.3,0.4,3.4,1.5,3.5,3.7
			c0.1,0.8,0,1.6,0,2.6c-1.6,0.7-3.1,0.8-4.9,0.3c-2.1-0.6-4.5-1.1-6.6-0.6c-2.8,0.6-5.6,0.2-8-0.6c-2.6-0.9-5.1-0.7-7.5-0.4
			c-4.5,0.7-8.8,0.2-13-1.5c-0.7,0.7-1.4,1.3-2.2,2c-3.4-1.1-7.1-1.3-10.6-2c-3.6-0.7-6.8-0.1-10.5,0.4c-0.6-0.9-1.2-2-1.8-3
			c-3.2-1.3-6.3-0.2-9.4-0.2c-0.3,0-0.6,0.6-1,1c-2.4-0.9-4.8-1.8-7.1-2.7c-2.3-0.9-4.5-1.1-6.9-0.4c-2.6,0.7-5.3,0.5-8.2-0.5
			c-1.1,0.5-2.4,1.3-4,2c-3.1-1.6-6.2-3.5-9.9-2c-0.8-0.7-1.4-1.3-2-1.8c-1.2,0.3-2.2,0.5-3.1,0.8c-0.8-1.1-0.3-2.1,0.2-2.2
			c1.8-0.2,2.4-1.7,3.3-3c0.7,0.2,1.3,0.3,1.9,0.5c-0.1,1-0.2,1.8-0.3,2.7c0.4,0.1,0.8,0.3,0.9,0.3c1.6-0.9,4.2-0.7,3.9-3.7
			c1.3,0.6,2.5,1.1,3.5,1.6c1-0.9,1.9-1.6,3.1-2.7c0.2,1.5,0.4,2.6,0.7,4.7c0.8-2.2,1.3-3.5,1.8-4.9c0.8,0,1.8,0,2.7,0
			c-0.1,0.5-0.1,1-0.2,1.5c0.1,0,0.3,0.1,0.4,0C107,534.7,107.4,534.1,106.1,533.9z M170,542.2l-0.1,0.3l0.2,0L170,542.2z"/>
		<path class="st1" d="M677,1134.2c-0.3-0.3-0.5-1-0.8-1c-1.5,0-1.4-1.8-2.6-2.2c-1.5-0.6-0.3-1.9-0.4-2.8c-0.1-0.9-1-1.6-0.3-2.6
			c0.1-0.1,0.3-0.1,0.4-0.2c0.1,0,0.2,0.1,0.3,0.1c-0.3,0-0.5,0-0.8,0c-0.1-1.9,0.1-3.8-0.3-5.6c-0.3-1.4,1-1.4,1.3-2.3
			c-0.7-0.5-1.5-1-2.3-1.6c-0.4-1.4,1.2-3.1-0.5-4.4c0.4-1.6-0.5-2.9-1.2-4.2c-1.2-2.3-1-4.9-0.7-7.4c0.1-1.3,0-2.5-1.2-3.4
			c-1-0.8-0.3-1.9-0.3-2.9c0-2.5-1.4-5-0.9-7.3c0.4-2.3,0.3-4.5,0.7-6.7c-1.2-1.3-1-2.6-0.7-4.2c0.3-1.5,0-3.1,0.1-4.7
			c0-0.4,0.2-1,0.5-1.3c0.8-0.9,1-1.5-0.2-2.1c-0.1-0.1-0.2-0.3-0.2-0.4c1-4.2-1.4-7.7-2.3-11.6c0-0.2-0.1-0.3-0.2-0.4
			c0.3-1.7,1.2-3.1,0.6-5c-0.5-1.7-0.2-3.8,0.1-5.6c0.1-0.8,0.9-1.7,1.7-2.1c1.1-0.6,2.4-0.8,3.5-1.2c1.4,1.1,2,2.5,1.6,3.9
			c-0.7,2.6,0,5.2,0.6,7.5c0.8,3.2,0.6,6.2,0.4,9.4c-0.2,2.1,0.4,4.4,1.1,6.4c1.4,4.1,1.5,8,0.1,12.3c0.7,0.5,1.4,1,2.4,1.7
			c-0.3,3.3-0.9,6.8,0.2,10.2c-0.8,3.6,0.8,6.7,2.5,10c-0.9,0.9-1.7,1.8-2.6,2.7c-0.4,2.8,1,5.2,1.6,7.8c0.1,0.4,0.4,0.9,0.7,1.1
			c1.3,0.7,1.1,1.6,0.9,2.8c-0.4,2.3-0.9,4.7-0.8,7.1c0.1,1.8,0.3,3.7,1.4,5.4c1.4,2.1,1.4,4.7,1.1,7.6c0.2,0.2,0.5,0.7,1,1.1
			c1.5,1.3,2,2.8,1.3,4.7c-0.8,2.1-1,4.3,0,6.5c0.3,0.6,0.3,1.8,0,2.2c-1,1.2-0.6,1.8,0.2,2.8c0.3,0.4,0,1.2,0,2.1
			c-1-0.3-2.3-0.6-2.3-0.8c0-2.2-1.7-2-3.1-2.3c0-0.7,0-1.5,0-2.2c1-0.1,1.9-0.1,3.3-0.2c-1.4-2.1-1.8-4.4-4.5-4.6
			c0.1-1.2,0.2-2.2,0.3-3.2c-0.9-0.7-1.8-1.4-3.1-2.5c1.5-0.5,2.5-0.8,3.4-1.1c0.1-0.7,0-0.8-4-1c-0.1-0.8-0.3-1.7-0.4-2.6
			c0.5-0.2,0.9-0.3,1.4-0.5c-0.1-0.1-0.2-0.2-0.3-0.3c-0.7-0.1-1.2,0-0.9,0.9c-0.6-0.4-1.2-0.9-1.9-1.3c1.8-1.8,3.7-0.4,5.5-0.5
			c0.2,0.2,0.5,0.4,0.7,0.5c0.1,0.1,0.3,0,0.4-0.1c-0.1-0.2-0.2-0.6-0.4-0.6C677.6,1133.9,677.3,1134.1,677,1134.2z M668.3,1071.9
			l0,0.3l0.3-0.1L668.3,1071.9z"/>
		<path class="st1" d="M369.1,1130.9c0.3,1.4,0.5,2.6,0.8,4.5c-0.3,0.2-0.9,0.5-1.4,0.8c-1.9,1.3-3.3,2.9-3.7,5.3
			c-0.1,1-0.5,1.9-1.7,2c-1.3,0.1-0.7,1-0.7,1.7c0,0.6-0.5,1.1-1,2.1c-0.7-1.2-2.5-1.2-1.4-3.1c0.2-0.3-0.8-1.2-1.1-1.8
			c-0.6-1.1,0-1.8,1-2.2c0.6,0.4,1.3,0.8,2,1.3c1-1,0.5-2.2,0.5-3.1c0-0.9-0.8-1.7-1.2-2.7c0.5-0.7,1.1-1.4,1.7-2.2
			c-0.4-1-0.8-1.9-1.4-3.3c1.6,0.3,2.7,0.6,3.8,0.8c0.1-0.2,0.1-0.3,0.2-0.5c-1-0.7-2-1.4-3-2.1c-0.1-0.4-0.3-0.7-0.3-0.9
			c0.1-1.2,0.3-2.4,0.4-3.7c0.9-0.1,2-0.1,3.1-0.2c-0.5-2.5,0.9-4.2,1.8-6c0.9-1.8,2.6-3.2,2.9-5.3c0-0.3,1.2-0.4,1.3-0.8
			c0.1-0.5-0.4-1.2-0.4-1.8c0-0.4,0.2-0.9,0.5-1.3c1.3-1.8,2.1-3.7,2-6c-0.1-2.2,0.7-4.1,2-5.7c1.2-1.5,2.1-2.8,1.3-4.7
			c-0.1-0.3,0.1-1.2,0.3-1.2c1.9-0.5,1.3-2.3,1.9-3.5c0.8-1.6,0.5-3.9,2.8-4.6c0.2-2,2.9-3.1,2.2-5.5c-0.1-0.3,0.4-0.8,0.7-1.1
			c0.6-0.9,1.1-2.2,2-2.5c1.3-0.6,0.1-1.8,1-2.3c0.7-0.4,1.4-0.7,2.1-1.1c-0.1-0.6-0.6-1.6-0.4-2c1.8-2,2.2-4.3,2.4-6.8
			c0.2-2,0.7-3.8,2.2-5.6c1.3-1.5,1.9-3.6,2.9-5.4c0.9-1.7,2-2.4,3.8-2.1c0.9,0.2,1.9,0.3,2.8,0.5c1,1.5,0.6,2.7-0.1,4.1
			c-1,2-2.3,4-2.6,6.1c-0.3,2.5-1.3,4.7-2.7,6.5c-1.6,2-1.7,4.4-2.9,6.4c0.1,4.5-2.6,7.6-5.2,10.9c0.3,0.7,0.6,1.4,1.1,2.4
			c-1.7,2.6-3.4,5.4-4.9,8.4c-1.5,2.9-2.2,5.8-2.1,9.1c-1.3,0.3-2.3,0.5-3.7,0.8c-1.6,2.9-2.6,6.1-1.9,9.5c-1.5,1.8-2.8,3.6-4.3,5.3
			c-1.4,1.6-2.1,3.5-2.2,5.6C372,1126.5,371,1128.9,369.1,1130.9z"/>
		<path class="st1" d="M548.4,1083.6c0.2-0.8,0.1-1.7,0.6-2.2c0.8-0.9,0.7-1.4,0.2-2.4c-0.3-0.6,0.6-1.7,0.5-2.4
			c-0.3-2-0.2-3.9-0.8-5.9c-0.5-1.5-0.7-3.2,0.2-5c0.9-1.7,0.5-4,0.7-6c0.3-2.1,1.1-3.2,3.1-3.6c0.9-0.2,1.8-0.3,2.7-0.5
			c1.2,1.2,1.4,2.5,1.2,4c-0.3,2.2-0.7,4.6-0.2,6.6c0.7,2.5,0.4,4.9-0.3,7c-1,2.6-0.7,5.1-0.3,7.4c0.7,4.1,0.2,7.8-1.6,11.6
			c0.6,0.7,1.1,1.4,1.8,2.1c-1.4,6.2-3.4,12.3-1.1,19c-1,0.6-2.1,1.2-3.3,2c-0.3,3.1-0.7,6.4,1.1,9.6c-0.7,1.8-1.5,3.8-2.3,5.8
			c-0.9,2.3-1.4,4.6-0.5,6.9c0.5,1.5-0.4,2.9-0.1,4.1c0.4,1.5-1.2,2.3-0.9,3.5c0.4,1.2,1.1,2.3,1.7,3.5c-0.6,0.9-1.2,1.6-1.6,2.5
			c-0.6,1.4-1.3,2.9-1.5,4.4c-0.2,1.4,0.2,2.9-1.6,3.6c-0.1,0.1,0,0.8,0.1,1.3c0.1,2.1-0.3,2.3-2.5,1.4c-0.1-0.1-0.2-0.2-0.4-0.4
			c0.8-1.8-0.3-2.5-1.9-2.9c0.3-0.8,0.5-1.4,0.7-2.1c1,0.2,1.8,0.3,2.7,0.4c0.6-2.6-0.9-4-2.5-5.2c0.5-1,0.9-1.9,1.2-2.7
			c-0.7-0.8-1.2-1.5-2-2.6c1.4-0.2,2.4-0.3,3.5-0.5c-0.1-0.2-0.1-0.6-0.3-0.6c-1.2-0.5-2.3-0.9-3.5-1.3c-0.2-0.9-0.3-1.8,0.9-1.8
			c1.5-0.1,0.4-1.2,0.8-1.7l-0.1,0.1c0.5,0.2,1,0.3,1.5,0.4c0.5,0,1,0.1,1.4,0.1c0-0.2,0-0.4-0.1-0.5c-0.5,0.2-1,0.3-1.5,0.5
			c-0.2-0.7-0.5-1.5-1.4-1.6l0.1,0.1c0.2-0.4,0.6-1.1,0.5-1.2c-1.6-1.6-0.1-3.3,0-4.8c0.2-0.1,0.4-0.1,0.6-0.2c0,0.2,0,0.4-0.1,0.6
			c-0.2-0.2-0.3-0.4-0.5-0.6c0.5-3.4,1.9-6.8,1.3-10.4c1.3-2.7,0.6-5.3,0.2-8c-0.3-1.8,0.3-3.7,0.5-5.6c0.1-0.8,0.7-1.7,0.4-2.3
			c-0.9-1.8-0.7-3.4,0-5.3c0.6-1.7-0.6-3.9,0-5.5c0.6-1.6,1-3.3,1.6-4.9c0.1-0.3,0.3-0.7,0.2-0.9c-1.3-2.6,0.6-4.8,0.8-7.3
			c0.1,0.1,0.3,0.1,0.4,0.2c0.1,0,0.3,0,0.4-0.1C548.9,1083.6,548.6,1083.6,548.4,1083.6z"/>
		<path class="st1" d="M678.6,625.6c-1.5-1.7-1.3-3.9-1.6-5.9c-0.9-6-1.7-12-2.3-18c-0.5-5.1-1.4-10.1-0.6-15.2
			c0.2-1.1-0.2-2.2-0.4-3.3c-0.8-5.7-1.6-11.3-2.3-17c-0.6-5.1-0.3-10.2,0.6-15.5c-1.1-1.5-1.4-3.4-1.3-5.6
			c0.4-5.2,1.1-10.5,0.4-15.7c-0.3-2.3,0.4-4.8,0.2-7.1c-0.2-3.5-0.1-7-0.7-10.4c-0.4-2.1-0.3-4.1,0.9-6c0.6-0.9,0.8-2.1,1-3.2
			c0.4-3.5,0.6-7,1-10.4c0.2-1.4,1.2-3,0.7-4.1c-1.1-3.1,0.5-5.5,1.2-8.2c1.4-5.2,2.9-10.4,3.6-15.8c0.1-0.9,0.3-1.9,0.2-2.9
			c-0.5-4.6,1.3-8.8,2.2-13.1c2.4-3.1,3.1-6.9,4.6-10.4c0.1-0.3,0.3-0.6,0.5-0.8c3.2-4.4,6.4-8.7,9.7-13c0.2-0.3,0.7-0.5,1.1-0.7
			c0.6,0.9,0.3,1.6-0.3,2.2c-1.3,1.3-2.1,2.6-2.1,4.6c0,1.1-1,2.3-1.8,3.3c-1.3,1.7-2.5,3.3-2.4,5.6c0,0.7-0.6,1.4-0.9,2.2
			c-1.3,0.1-2.7-0.2-3.5,1.5c0.5,0.4,1,1,1.6,1.5c0,0.3,0.1,0.6,0,0.9c-0.4,0.9-0.7,2-1.4,2.5c-1.5,1.1-1.6,2.2-0.8,3.7
			c0.1,0.3-0.2,0.8-0.3,1.3c-2,0.4-1.1-2.3-2.7-2.2c-0.1,0.1-0.4,0.4-0.3,0.7c0.3,1.2,1.3,2.6,0.9,3.5c-0.6,1.2-0.1,2.1-0.2,3.2
			c-0.1,1.2-0.4,2.5-0.7,3.7c-0.4,1.6,0.4,3.6-1.7,4.6c-0.1,0.1-0.2,0.7-0.1,0.8c1.6,1.8,0.4,3.7,0.2,5.5c-0.3,2.7-1,5.3-1.7,7.9
			c-0.2,0.7-0.9,1.2-1.6,1.9c0.8,2.6,1,5.2-0.7,7.7c-0.4,0.6-0.4,1.6-0.3,2.3c0.3,1.8-0.1,3.4-0.7,5.1c-0.4,1.1-0.1,2.5-0.1,3.7
			c0.1,3.5-0.3,6.9-0.1,10.5c0.1,2.3-0.7,4.7-0.5,7.1c0.1,1.1,0.1,2.2,0.3,3.3c0.4,2,0.6,4,0.2,6.1c-0.4,1.9,0,4.1,0.1,6.1
			c0.4,6.2-0.5,12.3-0.8,18.5c0,0.6-0.1,1.3,0,1.9c0.1,2.2,0.8,4.3,0.3,6.6c-0.4,2.1,0.4,4.4-0.2,6.6c-0.1,0.5,0.3,1.2,0.4,1.8
			c0.2,1.3,0.7,2.6,0.4,3.7c-0.5,1.8-0.3,3.4,0.5,5.1c0.1,0.3,0.3,0.6,0.2,0.9c-0.8,3.2,0.6,6.2,0.7,9.4c0.1,3.6,0.8,7.3,1.3,10.9
			c0.2,1.4,0.2,2.8,0.4,4.2c0.2,2.4,0.5,4.7,0.8,7.1c0.4,3.7,0.8,7.3,1,11C680.8,623.3,680.3,624.2,678.6,625.6z"/>
		<path class="st1" d="M612.5,644c-1.5,0-2.2-0.7-2.5-2.3c-0.2-1.6,1-2.1,1.8-3c-0.3-1.9-0.2-4-1.1-5.5c-1-1.7-1.4-3.2-0.8-4.8
			c0.9-2.6-1-4.6-1.3-7.4c0.2-0.1,0.6-0.2,1-0.5c0.4-0.4,0.7-0.9,1.1-1.4c-0.6-0.4-1.1-0.8-2.2-1.6c-0.4-0.8-0.6-2.2,0.1-3.5
			c1-1.6-0.6-2.2-1.1-3.5c0.5-0.6,1.2-1.3,1.5-2.1c0.3-0.9,0.8-1.8,0.2-3.1c-1-2.5-0.1-5.2,0.7-7.7c0.1-0.5,0.5-0.6,0.4-1.4
			c-0.3-1.7-0.4-3.5-0.2-5.2c0.3-2.7,1-5.3,1.5-7.9c0.1-0.6,0.3-1.3,0.1-1.9c-0.4-1.6-0.2-3.2,0.6-4.6c0.2-0.4,0.5-0.9,0.5-1.3
			c-0.5-3.2,1.1-6.2,1.2-9.4c0.2-4.2,1.1-8.4,3-12.3c0.9-1.9,1.1-4.3,1.5-6.5c0.3-1.6,0.7-3,1.4-4.5c1.5-3.1,2.4-6.6,3.5-9.9
			c0.3-0.7,0.3-1.7,0.8-2.2c2.3-2.6,2.8-6,4.8-8.7c0.4-0.5,0.7-1.1,0.8-1.7c0.6-3.6,3-6.1,4.7-9.1c0.8-1.4,1.6-2.7,2.3-4.1
			c1-1.7,3-2.6,3.3-5.1c0.2-1.9,3-2.9,2.9-5.2c3.1-3.2,4.5-7.7,8.1-10.6c1.3-1,2.4-2,4.1-2.3c1.3-0.2,2.5-0.6,3.7-0.9
			c2.2-0.5,4.4-0.8,6.5,0.6c2.5,1.8,4.8,3.8,5.8,6.8c0.4,1.3,0.5,2.5-1,3.5c-1.7-0.7-2.1-2.6-3.1-3.8c-3.4-4.4-6.9-5-11.4-1.9
			c-3.8,2.6-6.6,6.1-9.4,9.4c-1.9,2.3-3.1,5.2-4.4,7.9c-2.8,6.1-6.1,11.9-9.6,17.5c-0.3,0.5-1,1.1-1,1.6c0.7,3.9-2.1,6.6-3.3,9.8
			c-0.6,1.6-1.4,3.2-1.9,4.9c-0.6,2-1.6,3.8-2.1,5.8c-1.1,3.8-2.2,7.6-2.9,11.5c-0.4,2.1-0.5,4-2.2,5.6c-0.6,0.6-1,1.7-1.2,2.6
			c-0.8,4.1-1.5,8.1-2.2,12.2c1.3,3.3-0.7,6.2-1.2,9.3c-0.7,4.4-1.3,8.8-1.8,13.2c-0.1,0.8,0.1,1.6,0.2,2.3
			c0.4,4.4,0.4,8.8-0.2,13.3c-0.1,1.1,0.2,2.2,0.4,3.2c0.6,2.7,1.2,5.3,0.4,8c-0.3,0.9-0.3,1.9-0.3,2.9c0,2.6,0.1,5.1,0,7.7
			c-0.1,2.5-0.3,5-0.5,7.5C612.4,644,612.5,644,612.5,644z M611.1,610.7c-0.1-0.3-0.2-0.5-0.3-0.8c-0.3,0.1-0.5,0.2-0.8,0.3
			c0.1,0.3,0.2,0.6,0.4,0.8C610.5,611.1,610.8,610.8,611.1,610.7z"/>
		<path class="st1" d="M514.7,568.7c-0.2,1.2-0.8,2.7-0.4,3.6c0.9,1.7,0.7,3.4,0.8,5.1c0.1,1.1,0.4,2.1,0,3.2
			c-0.3,0.8,0.7,2,0.9,3.1c0.8,3.1,1.4,6.2,1.2,9.4c0,0.2-0.1,0.4-0.1,0.5c2.1,2.5,1.3,5.8,1.9,8.6c1.3,6,4.1,11.7,4.5,17.9
			c0.1,1.1,0.4,2.3,0.9,3.2c2.9,5.1,3,10.9,4.7,16.3c0.7,2.1,0.6,4.3,0.8,6.5c0.2,2.7,0.4,5.3,1.7,7.8c0.5,0.9,0,2.3,0.4,3.3
			c0.7,1.8,0.2,3.9,0.9,5.6c0.8,1.8,0.7,3.7,1.2,5.5c0.6,2.1,1.2,4.1,1.9,6.2c1.1,3.6,1.8,7.4,2.9,11c0.7,2.4,0.9,5,0.9,7.6
			c0,4,0.5,7.9,0.7,11.9c0.1,0.9,0,1.9-0.2,2.9c-0.2,1.2-1,2-2.6,2.1c-0.3-1.9-0.8-3.7-0.8-5.6c0-5.1-0.6-10.2-1.6-15.2
			c-0.6-3.1-1.2-6.3-1.3-9.5c-0.2-3.8-1.5-7.2-2.8-10.5c-2.1-5.5-3.6-11.2-4-17.1c-0.1-1.3,0-2.5-1.1-3.5c-0.9-0.8-0.9-2-1-3.1
			c-0.4-5.6-1.9-11-3.2-16.4c-0.7-3.2-2.1-6.3-3.3-9.4c-0.7-1.8-1.4-3.5-0.7-5.5c0.9-2.7-0.7-5.3-1.1-7.9c-0.3-1.9-0.7-3.8-1.3-5.6
			c-0.8-2.3-1.9-4.5-1.7-7.2c0.2-2.3-0.5-4.7-0.7-7.1c-0.3-3.7-1-7.2-2-10.7c-1-3.4-1-6.9-1.1-10.3c0-1.4,0-2.9-0.4-4.2
			c-0.8-2.5-0.8-5-0.4-7.6c0.3-2.2,0.8-4.4,0.6-6.6c-0.2-3.4,0.2-6.7,0.9-9.9l-0.1,0.1c2.8,1.8,2.9,2.7,0.2,5.3
			c0.9,2.1,0,4.6,1.7,6.6c0.3,0.4,0.2,1.2,0.1,1.8c-0.6,2.6-0.3,4.9,1.2,7.2c-0.4,0.4-0.7,0.8-1.1,1c-0.9,0.3-1.4,0.9-1,1.8
			c0.2,0.4,1,0.4,1.6,0.7c0.1,0.1,0.3,0.1,0.6,0.3c0,1,0.5,2.2,0.1,3.1c-0.8,1.6-0.4,2.3,1,3c0.4,0.2,0.3,0.3-0.7,1.1
			c-0.8-0.3-1.6-0.6-2.4-0.9C513.1,569.4,513.1,569.4,514.7,568.7z"/>
		<path class="st1" d="M788.6,468.6c0,0.8,0.2,1.7-0.1,2.4c-1.4,4.1-3.2,8-4.3,12.1c-0.8,2.9-1.9,5.6-2.9,8.4
			c-1.1,2.8-1.6,5.8-2.4,8.7c-0.1,0.5-0.2,0.9-0.4,1.4c-2.6,5.2-3.1,11-4.1,16.6c-0.5,2.8-1.2,5.6-2.2,8.3c-2.7,7.5-4,15.4-5.4,23.2
			c-0.6,3.1-0.7,6.3-1.1,9.5c-0.2,1.3-0.4,2.5-0.8,3.7c-1,2.9-1.6,5.7-1.2,8.9c0.3,2.1-0.5,4.4-0.8,6.5c-1.4,0.1-1.7-0.7-1.5-1.5
			c0.2-1.2,0.8-2.4,1.1-3.7c0.3-1.4,0.3-2.7-0.2-4.2c-1.1-3.3-0.9-6.5,1.7-9.2c0.6-0.6,0.9-1.7,0.9-2.5c-0.1-2.9-0.1-5.7,0.8-8.5
			c0.3-1,0.4-2.3,0.1-3.3c-1.1-5.1,0.9-9.7,2-14.5c0.5-2,0.9-3.9,0.8-6.1c-0.2-2,0.5-4.1,0.9-6.1c0.1-0.4,0.5-1,0.8-1
			c2.8-0.3,2.4-3,3.9-4.7c-1.1-0.6-1.9-1-2.8-1.4c0-0.1-0.2-0.5-0.1-0.7c0.4-1.4,0.8-2.8,1.2-4.1c0.4-1.2,0.5-2.7,1.3-3.5
			c1.8-1.9,1.9-3.9,1.2-6.1c-0.5-1.5-0.2-2.8,1.2-3.9c1.8,1.1,0.3,3.4,1.7,4.7c1.4-1.8,0.5-3.8,0.5-5.7c0-0.9-0.4-2.4,0.1-2.7
			c2.4-1.9,1.6-4.6,2.1-7c0.3-1.4,0.8-2.8,1.6-3.9c2.2-3.2,3.1-6.8,4.3-10.6c0.9,0.3,1.7,0.5,2.6,0.8
			C788.7,468.7,788.6,468.6,788.6,468.6z"/>
		<path class="st1" d="M885.6,759.5c0.3,1.8-1.1,2.9-1.9,4.2c-0.7,1.1-1.4,2.1-2.3,3c-4.4,4.4-6.5,10.1-8.9,15.7
			c-1.5,3.5-2.8,7.1-4.1,10.7c-1.8,5.1-3.9,10.1-4,15.7c0,1.4-0.6,2.8-0.8,4.2c-0.7,5.1-1.4,10.1-1.9,15.2
			c-0.5,4.5-1.3,8.8-3.3,12.9c-1,1.9-1.6,4.2-1.6,6.3c0,4-1.8,7.3-2.9,11c-1.5-0.4-1.4-1.4-1.1-2.3c0.8-2.2,1.8-4.4,2.6-6.7
			c0.3-0.7,0.6-1.7,0.3-2.3c-1.5-3.7,1-6.8,1.4-10.2c0.1-0.4,0.4-0.9,0.8-1.1c2.5-1.2,2.3-3.7,2.4-5.8c0.2-3,0.3-6,0.9-9
			c0.5-2.6,0.7-5.4-0.3-8c-0.3-0.8-0.3-1.9-0.1-2.8c1.1-4.7,2.3-9.3,3.4-13.9c0.2-0.9,0.6-1.9,0.5-2.8c-0.4-2.8,0.8-5.3,1.5-7.9
			c0.5-1.7,0.8-3.5,3.2-3.4c1.3-1.6,2.6-3.2,4.1-5c-1-0.7-1.8-1.3-2.6-2c1.3-2.3,2.7-4.8,4.3-7.2c0.6-0.9,1.3-2,2.2-2.5
			c2.8-1.5,3.9-3.8,4-6.9c0.1-2.1,1.8-3.1,4.1-4.8c-1,3.1-1.6,5.1-2.4,7.5C884.1,760.5,884.9,760,885.6,759.5
			C885.6,759.6,885.6,759.5,885.6,759.5z"/>
		<path class="st1" d="M827.5,972.3c-0.6-0.7-1.2-1.4-1.8-2.1c0.1-0.9,0.7-2.3,0.3-2.6c-1.1-0.9-1.5-1.9-1.5-3.2
			c-2.7-2.3-2.5-5.6-2.9-8.7c-0.6-4.7-0.9-9.5-3.2-13.9c-0.3-4.6-2.2-8.9-1.7-13.6c0.4-4.5,0.8-9.2,0.3-13.7
			c-0.4-3.3,0.2-6.3,0.4-9.4c0-0.9,0.6-1.4,1.3-1.8c1-0.4,2.2,0.1,2.1,1.1c-0.1,2.2-0.8,4.4,0.7,6.5c0.2,0.3,0,0.9-0.2,1.3
			c-1.2,2.6-1.2,5.2-0.5,7.9c0.2,0.9,0.3,1.9,0.2,2.9c-0.5,4.1,0.6,8.2,0.9,12.2c0.1,1.1,0.6,2.1,0.9,3.2c0.2,0.6,0.5,1.4,0.3,1.8
			c-1.4,2.2-0.2,4.1,0.7,5.9c0.6,1.2,0.8,2.3,0.8,3.6c0,1.9,0.2,3.9,0.8,5.6C827.8,963.1,827.9,963.1,827.5,972.3z"/>
		<path class="st1" d="M636.3,910.1c4,3.2,8,6,12.1,8.5c1.7,1.1,4.2,0.7,5.2,2.9c1.8,0.6,3.8,0.3,5.4,1.5c0.2,0.2,0.6,0.2,0.9,0.1
			c3.2-0.4,6.2,0.6,9.3,1c0.6,1.2-0.3,1.7-1.1,2.2c-0.2,0.1-0.6,0-0.9,0.1c-3.8,1.3-7.4,1-11.1-0.5c-1.9-0.8-4-0.9-6-1.4
			c-3.4-0.7-5.9-3-8.4-5.1c-1.3-1.1-2.8-2.1-4.1-3.2c-1-0.8-1.9-1.7-2.7-2.7C634.1,912.2,634.8,911.1,636.3,910.1z"/>
		<path class="st1" d="M513.1,459.1c0.3,0.1,0.8,0.1,0.8,0.2c1,2.4,2.9,4,4.7,5.7c0.7,0.7,1.2,1.8,1.5,2.9c1,3.5,1.8,7,3.9,10
			c0.7,1,0.5,2.7,0.7,4.1l0.1-0.1c-0.8,0.4-1.5,0.6-2.1-0.2c-0.9-1-0.7-2,0.2-3.1c-1.3-1.3-2.1-3-3.6-4.3c-1.1-0.9-1.3-2.8-2-4.7
			c-0.5-0.4-1.4-1-2.3-1.7c0.3-0.9,0.5-1.7,0.7-2.6c-0.5-0.2-0.9-0.4-1-0.3c-1.3,0.8-2.1,0.3-2.7-0.8c-0.4-0.8-0.5-1.8-1-2.5
			c-0.3-0.5-1.2-0.6-2-1c1.4-1.2,3.3-0.1,4.1-1.7C513.2,459,513.1,459.1,513.1,459.1z"/>
		<path class="st1" d="M417.3,905.3c1.2,1.7,0.9,3.7,0.8,5.5c-0.2,2.7-0.1,5.3,1.1,7.9c0.7,1.5,0.5,3.4,0.7,5.1
			c-1.1,0.7-1.6,0-1.7-0.8c-0.2-0.9,0.1-1.9-0.1-2.8c-0.2-1.2-0.4-2.7-1.1-3.6c-1.5-1.8-1.4-3.9-1.5-5.9c0-0.6,0.2-1.4,0.6-1.7
			C417.4,908.1,416.7,906.5,417.3,905.3C417.3,905.2,417.3,905.3,417.3,905.3z"/>
		<path class="st1" d="M705.9,414.2c-0.2,1.2-0.1,2-0.4,2.2c-1.4,0.9-2.5,1.8-2.4,3.7c0,0.5-0.7,1-1.1,1.5c-1.1,1.2-1.4,1.2-3.6-0.4
			c1.9-1.4,3.8-2.6,4.8-4.9C703.5,415.5,704.6,415.1,705.9,414.2z"/>
		<path class="st1" d="M441.3,643.1c1.9,1.7,1.4,3.9,1.3,6.5c-2.4-2.2-1.4-4.4-1.2-6.6C441.5,643,441.3,643.1,441.3,643.1z"/>
		<path class="st1" d="M492,669.2c1.5,1.4,1.5,1.4,1.4,4.4c-0.8,0.5-1.3-0.1-1.3-0.7c-0.1-1.3,0-2.5,0.1-3.8
			C492.1,669.1,492,669.2,492,669.2z"/>
		<path class="st1" d="M622.5,936.3c0.1,0.9,0.3,1.8,0.2,2.7c-0.1,1-0.9,1.1-2,0.7c0.4-1.3,0.8-2.5,1.2-3.8
			C622.1,936.1,622.3,936.2,622.5,936.3z"/>
		<path class="st1" d="M847.1,869.9c0.2,0.4,0.5,0.8,0.6,1.3c0.6,1.8,0.4,2-2.2,2.3c-0.2-1.6,0.9-2.4,1.7-3.5L847.1,869.9z"/>
		<path class="st1" d="M1217.1,818.3c0.3,2.3,0.3,2.3-2.3,2.2C1214.5,818.5,1216.6,819.3,1217.1,818.3z"/>
		<path class="st1" d="M441.5,657.4c-0.1-0.9-0.1-1.7-0.2-3.1c0.8,0.9,1.3,1.3,1.6,1.9C443.5,657.4,442.5,657.3,441.5,657.4z"/>
		<path class="st1" d="M760.3,587.2c0.5,1.3,1,2.2,1.2,3.1c0.1,0.2-0.8,0.7-1.2,1c-0.2-0.3-0.6-0.7-0.6-1
			C759.7,589.5,760,588.6,760.3,587.2z"/>
		<path class="st1" d="M717.8,577.4c-1.8,0.3-1.8,0.3-1.7-2.2c0.4,0.4,0.7,0.7,0.9,1.1C717.4,576.6,717.6,577,717.8,577.4z"/>
		<path class="st1" d="M612.4,644c0.9,1.2,0.6,2.4,0.2,3.7c-1.1,0.3-1.5-0.4-1.3-1.2c0.2-0.9,0.8-1.7,1.2-2.5
			C612.5,644,612.4,644,612.4,644z"/>
		<path class="st1" d="M1240.8,602.5c0.6-1,0.8-1.4,1.1-1.7c0.3-0.2,0.8-0.3,1.2-0.4c0.1,0,0.4,0.5,0.3,0.7c-0.1,0.4-0.4,0.8-0.7,1
			C1242.4,602.4,1241.9,602.3,1240.8,602.5z"/>
		<path class="st1" d="M459.3,147.4c-1.6-0.9-2.3-1.3-3.1-1.8c0.6-0.4,1-0.7,1.3-0.9C458.6,144.8,458.7,145.7,459.3,147.4z"/>
		<path class="st1" d="M716.7,565.6c1.8,1.1,0.7,2.6,0.8,4.1c-1.5-0.9-1.5-0.9-0.7-4.2C716.8,565.5,716.7,565.6,716.7,565.6z"/>
		<path class="st1" d="M524.7,482c1.5,0.3,2.1,1.1,1.5,2.9c-1.3-0.7-1.6-1.8-1.4-3C524.8,481.9,524.7,482,524.7,482z"/>
		<path class="st1" d="M1161.7,978.7c2-0.1,2.9-0.2,3.8-0.2c0,1.2-0.4,1.8-1.4,1.5C1163.6,979.8,1163.1,979.5,1161.7,978.7z"/>
		<path class="st1" d="M1051.3,293.5c0.2,0.6,0.5,1.1,0.5,1.7c0,0.4-0.3,0.8-0.5,1.2c-0.1,0.1-0.7,0-0.8-0.1
			c-0.2-0.4-0.3-0.9-0.2-1.2C1050.6,294.5,1051,294.1,1051.3,293.5L1051.3,293.5z"/>
		<path class="st1" d="M511,536.9c-1.3-0.8-0.8-1.8-0.4-2.8c0.1-0.2,0.5-0.3,0.7-0.2c0.2,0.1,0.6,0.5,0.5,0.6
			c-0.3,0.9-0.6,1.7-1,2.5C510.9,537,511,536.9,511,536.9z"/>
		<path class="st1" d="M842.4,882.3c0-0.7-0.1-1.2,0-1.6c0.1-0.3,0.6-0.4,0.9-0.6c0,0.4,0.2,0.9,0.1,1.2
			C843.4,881.6,842.9,881.8,842.4,882.3z"/>
		<path class="st1" d="M249.5,419.1c0.3,0.1,0.7,0,0.9,0.2c0.3,0.3,0.4,0.7,0.6,1.1c-0.4,0.2-0.8,0.5-1.1,0.4
			c-0.6-0.1-1.3-0.3-1.1-1.2C248.8,419.4,249.2,419.2,249.5,419.1z"/>
		<path class="st1" d="M845.8,1136.2c-0.5,0.3-0.9,0.5-1.2,0.6c-0.2,0-0.7-0.4-0.6-0.5c0.2-0.4,0.4-0.6,0.7-1
			C844.9,1135.5,845.3,1135.8,845.8,1136.2z"/>
		<path class="st1" d="M907.4,177.3c1,1.1,1.2,2.1-0.3,2.9C906.1,179.2,906.6,178.3,907.4,177.3L907.4,177.3z"/>
		<path class="st1" d="M675.3,146.9c-0.4,0.3-0.5,0.5-0.7,0.7c-0.4-0.4-0.7-0.8-1.1-1.3c0.3-0.2,0.6-0.5,0.9-0.7
			C674.8,146,675.1,146.5,675.3,146.9z"/>
		<path class="st1" d="M59.3,673.1c-0.5,0.2-1,0.4-1.5,0.6c-0.1,0-0.4-0.6-0.4-0.7c0.4-0.3,0.8-0.6,1.3-0.8
			C58.9,672.4,59,672.6,59.3,673.1z"/>
		<path class="st1" d="M494.6,680.4c-2.2,0.3-2.2,0.3-2.2-1.9C493.1,679.2,493.6,679.6,494.6,680.4z"/>
		<path class="st1" d="M760.5,596.9c0.4,0.2,0.9,0.3,0.9,0.4c0,0.4-0.2,0.7-0.3,1.1c-0.3-0.1-0.7-0.2-0.7-0.3
			C760.3,597.7,760.4,597.3,760.5,596.9z"/>
		<path class="st1" d="M254.3,197.1c-0.3,0.4-0.5,0.7-0.6,0.7c-0.5-0.2-1-0.4-1.5-0.6c0.2-0.3,0.5-0.9,0.6-0.9
			C253.3,196.4,253.7,196.8,254.3,197.1z"/>
		<path class="st1" d="M612.1,653.3c-1.5,0-1.5,0-1.7-1.9C611.1,652.2,611.5,652.7,612.1,653.3z"/>
		<path class="st1" d="M710.7,413.1c-0.2-0.4-0.4-0.8-0.3-0.9c0.2-0.3,0.6-0.5,0.9-0.8c0.1,0.3,0.4,0.6,0.4,0.8
			C711.4,412.6,711,412.8,710.7,413.1z"/>
		<path class="st1" d="M418.3,934.1c0.3-0.1,0.6-0.3,0.9-0.2c0.4,0,0.8,0.1,1.2,0.2c-0.1,0.3-0.1,0.7-0.2,0.8c-0.4,0-0.8,0-1.2-0.1
			C418.7,934.6,418.6,934.3,418.3,934.1L418.3,934.1z"/>
		<path class="st1" d="M512.2,528.3c0.3,0.3,0.6,0.5,0.9,0.7c-0.2,0.2-0.3,0.4-0.5,0.6c-0.2-0.2-0.5-0.3-0.6-0.6
			C512,528.9,512.1,528.6,512.2,528.3z"/>
		<path class="st1" d="M527.4,488.6c-0.2,0.3-0.4,0.7-0.4,0.7c-0.3-0.1-0.6-0.2-0.7-0.4c-0.1-0.1,0-0.4,0-0.7
			C526.6,488.3,527,488.4,527.4,488.6z"/>
		<path class="st1" d="M1016.3,1093.3c0.3,0.4,0.6,0.7,0.8,1c-0.3,0.2-0.6,0.7-0.9,0.6c-0.4-0.1-0.6-0.5-1-0.8
			C1015.5,1093.9,1015.8,1093.6,1016.3,1093.3z"/>
		<path class="st1" d="M1180.2,426.2c-0.4-0.2-0.7-0.3-0.8-0.5c-0.2-0.7,0.5-1.7,1.2-1.6c0.2,0,0.5,0.5,0.5,0.6
			C1180.9,425.2,1180.5,425.7,1180.2,426.2z"/>
		<path class="st1" d="M847.2,870c0.1-0.7,0.1-1.4,0.2-2.4c0.7,1.2,1,2-0.4,2.3C847.1,869.9,847.2,870,847.2,870z"/>
		<path class="st1" d="M418.3,934.1c0.1-0.8,0.1-1.6,0.2-2.4c0.2,0,0.3,0.1,0.5,0.1C418.8,932.5,418.6,933.3,418.3,934.1
			C418.3,934.1,418.3,934.1,418.3,934.1z"/>
		<path class="st1" d="M542.9,1140.6c-0.7,0-1.5,0.1-2.2,0.1c0-0.2-0.1-0.4-0.1-0.6c0.8-0.1,1.5-0.2,2.3-0.3c0,0-0.1-0.1-0.1-0.1
			c0,0.4,0,0.7,0,1.1L542.9,1140.6z"/>
		<path class="st1" d="M443.5,661.3c-0.1,0.1-0.2,0.4-0.2,0.4c-0.2-0.1-0.5-0.2-0.7-0.3c0.1-0.1,0.1-0.3,0.2-0.3
			C443.1,661.1,443.3,661.2,443.5,661.3z"/>
		<path class="st1" d="M81.9,535.5c0.3,0.3,0.5,0.4,0.7,0.6c-0.3,0.2-0.6,0.5-0.9,0.7c0,0-0.3-0.2-0.3-0.3
			C81.5,536.2,81.7,535.9,81.9,535.5z"/>
		<path class="st1" d="M1169.3,978.9c-0.1,0-0.4,0-0.4,0c0-0.3,0-0.5,0-0.8c0.2,0,0.4,0,0.6,0
			C1169.5,978.4,1169.4,978.7,1169.3,978.9z"/>
		<path class="st1" d="M94.4,967.4c-0.3,0.2-0.7,0.4-1,0.6c-0.2-0.3-0.3-0.7-0.5-1c0.4-0.2,0.7-0.3,1.1-0.5
			C94.2,966.7,94.3,966.9,94.4,967.4z"/>
		<path class="st1" d="M1220.9,818.5c-0.2,0-0.5,0.1-0.7,0.1c0-0.1,0-0.3,0-0.4c0.2-0.1,0.5-0.1,0.7-0.1
			C1220.9,818.2,1220.9,818.3,1220.9,818.5z"/>
		<path class="st1" d="M89.2,823.5c-0.3,0.4-0.5,0.7-0.8,1c-0.2-0.2-0.5-0.4-0.5-0.5c0-0.3,0.2-0.6,0.4-0.7
			C88.5,823.2,88.8,823.4,89.2,823.5z"/>
		<path class="st1" d="M620.2,945.6c0.1,0.3,0.4,0.5,0.4,0.8c0,0.3-0.3,0.5-0.5,0.7c-0.2-0.3-0.4-0.5-0.4-0.8
			C619.7,946.1,620,945.8,620.2,945.6z"/>
		<path class="st1" d="M679.5,1158.8c0.2-0.3,0.4-0.7,0.5-0.7c0.3,0.1,0.7,0.3,1,0.6c0.1,0.1-0.2,0.5-0.3,0.7
			C680.2,1159.2,679.9,1159,679.5,1158.8z"/>
		<path class="st1" d="M421.7,940.8c-0.3,0-0.5,0.1-0.7,0c-0.1,0-0.2-0.3-0.2-0.4c0.2-0.2,0.4-0.3,0.6-0.5
			C421.5,940.3,421.5,940.5,421.7,940.8z"/>
		<path class="st1" d="M541.6,1163.1c0.2,0.4,0.3,0.7,0.5,1.1c-0.3,0.1-0.6,0.3-0.8,0.2c-0.2-0.1-0.3-0.5-0.3-0.7
			C541,1163.5,541.3,1163.4,541.6,1163.1z"/>
		<polygon class="st1" points="249.2,195.7 249.2,195.4 249.6,195.5 		"/>
		<path class="st1" d="M714.8,409.7c-0.1,0-0.3,0.1-0.4,0.1c0,0-0.1-0.2-0.1-0.3c0.1,0,0.3-0.1,0.4-0.1
			C714.7,409.4,714.8,409.6,714.8,409.7z"/>
		<path class="st1" d="M412.9,894.3c0,0.2,0.1,0.5,0.1,0.5C413,894.7,412.9,894.5,412.9,894.3C412.9,894.3,412.9,894.3,412.9,894.3z
			"/>
		<path class="st1" d="M179.6,366.5c0,0.4,0.1,0.8,0.1,1.1c-0.1-0.1-0.3-0.2-0.3-0.2c0.1-0.3,0.2-0.5,0.3-0.8
			C179.7,366.6,179.6,366.5,179.6,366.5z"/>
		<path class="st1" d="M1144.3,973.1c-0.1,0.1-0.3,0.2-0.4,0.1c-0.1,0-0.2-0.2-0.3-0.2C1143.9,973,1144.1,973.1,1144.3,973.1z"/>
		<polygon class="st1" points="1166.9,975.9 1167.2,976 1166.9,976.1 		"/>
		<path class="st1" d="M1194,817.6c0.2,0,0.5-0.1,0.7-0.1c-0.1,0-0.3-0.1-0.3-0.1C1194.3,817.4,1194.2,817.5,1194,817.6
			C1194.1,817.7,1194,817.6,1194,817.6z"/>
		<path class="st1" d="M714.5,548C714.5,548,714.6,548.1,714.5,548C714.6,548.1,714.5,548,714.5,548z"/>
		<path class="st1" d="M907.4,177.4c-0.2,0-0.5,0-0.7-0.1C906.9,177.4,907.2,177.4,907.4,177.4C907.4,177.3,907.4,177.4,907.4,177.4
			z"/>
		<path class="st1" d="M907.1,174.2c0,0.1,0.1,0.2,0.1,0.3c-0.1,0-0.3,0.1-0.4,0.1c-0.1,0-0.1-0.2-0.1-0.3
			C906.8,174.3,906.9,174.3,907.1,174.2z"/>
		<path class="st1" d="M176.7,1083.3c0.1,0.2,0.5,0.5,0.4,0.7c-0.1,0.3-0.4,0.5-0.6,0.7c-0.1-0.2-0.3-0.5-0.3-0.7
			C176.3,1083.7,176.5,1083.5,176.7,1083.3z"/>
		<polygon class="st1" points="175.6,1087.9 175.6,1087.5 175.8,1087.6 		"/>
		<path class="st1" d="M1020.5,1093c-0.1,0-0.2-0.1-0.3-0.1c0.1-0.1,0.3-0.1,0.4-0.2C1020.6,1092.8,1020.6,1092.9,1020.5,1093z"/>
		<path class="st1" d="M1051.4,293.6c-0.2,0-0.4,0-0.7,0c0.1,0.1,0.2,0.2,0.3,0.2C1051.1,293.7,1051.2,293.6,1051.4,293.6
			C1051.3,293.5,1051.4,293.6,1051.4,293.6z"/>
		<polygon class="st1" points="512.7,525.3 512.7,525.6 512.5,525.5 		"/>
		<path class="st1" d="M74.7,670c-0.4-0.1-0.8-0.1-1.2-0.2c0.1-0.1,0.2-0.2,0.3-0.2c0.3,0.1,0.5,0.3,0.8,0.5
			C74.6,670.1,74.7,670,74.7,670z"/>
		<polygon class="st1" points="55.7,675.7 55.8,676.1 55.5,676 		"/>
		<path class="st1" d="M356.9,1146.5c0.2,0.1,0.4,0.3,0.5,0.4c-0.2,0.2-0.3,0.4-0.5,0.6c-0.1-0.1-0.3-0.2-0.3-0.3
			C356.8,1146.9,356.9,1146.7,356.9,1146.5z"/>
		<polygon class="st1" points="612.2,656.2 612.5,656.4 612.1,656.5 		"/>
		<path class="st1" d="M671.3,142.8c0-0.1,0.1-0.2,0.1-0.3c0.1,0.1,0.2,0.3,0.3,0.4C671.5,142.9,671.4,142.9,671.3,142.8z"/>
	</g>
</g>
</svg>
